<svg width="77" height="55" viewBox="0 0 77 55" fill="none" xmlns="http://www.w3.org/2000/svg">
<path d="M19.6507 54.9173C14.453 54.9173 10.012 53.1181 6.32793 49.5197C2.64382 45.9212 0.801758 41.5231 0.801758 36.3254C0.801758 31.8702 2.14403 27.9005 4.82858 24.4163C7.51313 20.9321 11.0259 18.7045 15.3669 17.7335C16.7948 12.4786 19.6507 8.22331 23.9346 4.96758C28.2184 1.71185 33.0735 0.0839844 38.4997 0.0839844C45.1825 0.0839844 50.8515 2.41155 55.5066 7.06667C60.1617 11.7218 62.4893 17.3908 62.4893 24.0736C66.4304 24.5305 69.7004 26.2298 72.2993 29.1714C74.8982 32.1129 76.1976 35.5543 76.1976 39.4954C76.1976 43.7793 74.6982 47.4206 71.6995 50.4193C68.7009 53.418 65.0596 54.9173 60.7757 54.9173H41.9268C40.0419 54.9173 38.4283 54.2462 37.086 52.9039C35.7437 51.5616 35.0726 49.948 35.0726 48.0631V30.4137L29.5893 35.7257L24.7913 30.9277L38.4997 17.2194L52.208 30.9277L47.4101 35.7257L41.9268 30.4137V48.0631H60.7757C63.1747 48.0631 65.2024 47.2349 66.8588 45.5785C68.5152 43.9221 69.3434 41.8944 69.3434 39.4954C69.3434 37.0965 68.5152 35.0688 66.8588 33.4124C65.2024 31.7559 63.1747 30.9277 60.7757 30.9277H55.6351V24.0736C55.6351 19.3328 53.9644 15.2917 50.623 11.9503C47.2816 8.60885 43.2405 6.93815 38.4997 6.93815C33.7589 6.93815 29.7178 8.60885 26.3764 11.9503C23.035 15.2917 21.3643 19.3328 21.3643 24.0736H19.6507C16.3379 24.0736 13.5105 25.2445 11.1687 27.5863C8.82685 29.9282 7.65592 32.7555 7.65592 36.0684C7.65592 39.3812 8.82685 42.2085 11.1687 44.5504C13.5105 46.8922 16.3379 48.0631 19.6507 48.0631H28.2184V54.9173H19.6507Z" fill="#656567"/>
</svg>
