<svg width="537" height="430" viewBox="0 0 537 430" fill="none" xmlns="http://www.w3.org/2000/svg">
<path d="M492.186 385.031C492.394 383.642 497.258 350.056 487.517 338.467C486.547 337.245 485.319 336.254 483.921 335.565C482.522 334.875 480.988 334.504 479.429 334.479C459.753 334.02 457.071 349.764 457.043 349.972L459.364 350.334C459.447 349.764 461.782 336.438 479.374 336.827C480.599 336.844 481.806 337.135 482.904 337.679C484.003 338.222 484.966 339.004 485.724 339.967C494.784 350.764 489.893 384.337 489.893 384.684L492.186 385.031Z" fill="#3C486B"/>
<path d="M493.367 383.506L495.715 383.422C495.715 383.116 494.937 352.504 510.014 346.181C524.799 339.998 531.455 352.726 531.719 353.268L533.817 352.212C533.748 352.059 525.938 336.927 509.111 344.028C492.547 350.962 493.325 382.172 493.367 383.506Z" fill="#3C486B"/>
<path d="M493.298 385.906C493.298 385.42 493.45 337.007 502.886 322.847C511.946 309.243 526.509 315.649 527.189 315.899L528.148 313.759C527.981 313.69 511.112 306.242 500.926 321.513C491.102 336.257 490.963 383.85 490.963 385.878L493.298 385.906Z" fill="#3C486B"/>
<path d="M476.608 335.648C476.608 335.648 485.196 338.816 482.639 346.278C480.082 353.74 452.944 366.052 452.944 366.052C452.944 366.052 441.563 355.63 452.013 338.677C462.463 321.724 476.372 330.298 476.608 335.648Z" fill="#3C486B"/>
<path d="M503.302 320.292C503.302 320.292 497.216 319.639 497.744 315.929C498.272 312.218 521.45 302.658 535.137 318.11C535.137 318.11 526.369 333.173 513.696 333.396C501.023 333.618 503.302 320.292 503.302 320.292Z" fill="#3C486B"/>
<path d="M509.625 345.123C509.625 345.123 505.456 341.733 509.958 340.079C514.461 338.426 536.777 338.884 537 360.923C537 360.923 511.056 365.244 507.819 356.837C504.581 348.431 509.625 345.123 509.625 345.123Z" fill="#3C486B"/>
<path opacity="0.2" d="M476.608 335.648C476.608 335.648 485.196 338.816 482.639 346.278C480.082 353.74 452.944 366.052 452.944 366.052C452.944 366.052 441.563 355.63 452.013 338.677C462.463 321.724 476.372 330.298 476.608 335.648Z" fill="black"/>
<path opacity="0.2" d="M503.302 320.292C503.302 320.292 497.216 319.639 497.744 315.929C498.272 312.218 521.45 302.658 535.137 318.11C535.137 318.11 526.369 333.173 513.696 333.396C501.023 333.618 503.302 320.292 503.302 320.292Z" fill="black"/>
<path opacity="0.2" d="M509.625 345.123C509.625 345.123 505.456 341.733 509.958 340.079C514.461 338.426 536.777 338.884 537 360.923C537 360.923 511.056 365.244 507.819 356.837C504.581 348.431 509.625 345.123 509.625 345.123Z" fill="black"/>
<path d="M471.995 429.984H512.265L516.601 385.906H467.66L471.995 429.984Z" fill="#3C486B"/>
<path opacity="0.5" d="M471.995 429.984H512.265L516.601 385.906H467.66L471.995 429.984Z" fill="white"/>
<path d="M465.506 390.758H518.755V381.031H465.506V390.758Z" fill="#3C486B"/>
<path opacity="0.2" d="M465.506 390.758H518.755V381.031H465.506V390.758Z" fill="white"/>
<path d="M426.417 398.386L386.383 394.454V338.176H370.515V394.426L330.37 398.386C328.444 398.576 326.659 399.474 325.359 400.908C324.06 402.341 323.339 404.206 323.338 406.14V412.157H433.504V406.14C433.505 404.196 432.778 402.322 431.466 400.887C430.155 399.452 428.354 398.56 426.417 398.386Z" fill="#263238"/>
<path opacity="0.2" d="M426.417 398.386L386.383 394.454V338.176H370.515V394.426L330.37 398.386C328.444 398.576 326.659 399.474 325.359 400.908C324.06 402.341 323.339 404.206 323.338 406.14V412.157H433.504V406.14C433.505 404.196 432.778 402.322 431.466 400.887C430.155 399.452 428.354 398.56 426.417 398.386Z" fill="white"/>
<path d="M327.521 429.999C333.254 429.999 337.901 425.351 337.901 419.618C337.901 413.886 333.254 409.238 327.521 409.238C321.788 409.238 317.141 413.886 317.141 419.618C317.141 425.351 321.788 429.999 327.521 429.999Z" fill="#263238"/>
<path d="M429.224 429.999C434.957 429.999 439.604 425.351 439.604 419.618C439.604 413.886 434.957 409.238 429.224 409.238C423.491 409.238 418.844 413.886 418.844 419.618C418.844 425.351 423.491 429.999 429.224 429.999Z" fill="#263238"/>
<path d="M367.791 300.156H389.121V344.525C389.121 346.048 388.517 347.507 387.44 348.583C386.364 349.66 384.904 350.264 383.382 350.264H373.53C372.008 350.264 370.548 349.66 369.472 348.583C368.396 347.507 367.791 346.048 367.791 344.525V300.156Z" fill="#263238"/>
<path opacity="0.3" d="M367.791 300.156H389.121V344.525C389.121 346.048 388.517 347.507 387.44 348.583C386.364 349.66 384.904 350.264 383.382 350.264H373.53C372.008 350.264 370.548 349.66 369.472 348.583C368.396 347.507 367.791 346.048 367.791 344.525V300.156Z" fill="white"/>
<path d="M416.385 212.211C416.385 212.211 419.414 287.248 398.515 300.157H422.374C422.374 300.157 440.855 274.603 435.63 212.211H416.385Z" fill="#263238"/>
<path opacity="0.3" d="M416.385 212.211C416.385 212.211 419.414 287.248 398.515 300.157H422.374C422.374 300.157 440.855 274.603 435.63 212.211H416.385Z" fill="white"/>
<path d="M430.489 305.91H323.602V296.614C323.602 294.771 324.334 293.004 325.637 291.701C326.94 290.398 328.707 289.666 330.55 289.666H423.541C425.383 289.666 427.151 290.398 428.454 291.701C429.757 293.004 430.489 294.771 430.489 296.614V305.91Z" fill="#263238"/>
<path d="M321.935 305.91H432.142C433.685 305.91 434.935 304.66 434.935 303.117V300.588C434.935 299.046 433.685 297.795 432.142 297.795H321.935C320.392 297.795 319.142 299.046 319.142 300.588V303.117C319.142 304.66 320.392 305.91 321.935 305.91Z" fill="#263238"/>
<path opacity="0.6" d="M321.935 305.91H432.142C433.685 305.91 434.935 304.66 434.935 303.117V300.588C434.935 299.046 433.685 297.795 432.142 297.795H321.935C320.392 297.795 319.142 299.046 319.142 300.588V303.117C319.142 304.66 320.392 305.91 321.935 305.91Z" fill="white"/>
<path d="M441.48 171.982H403.267C392.077 171.982 383.007 181.053 383.007 192.242V207.194C383.007 218.384 392.077 227.454 403.267 227.454H441.48C452.669 227.454 461.74 218.384 461.74 207.194V192.242C461.74 181.053 452.669 171.982 441.48 171.982Z" fill="#263238"/>
<path d="M287.362 110.675L279.733 90.5681C279.733 90.5681 283.012 87.5388 280.761 84.4679C278.51 81.3969 264.448 72.7676 261.891 74.2823C259.334 75.7969 253.623 81.522 256.708 84.7041C259.792 87.8862 273.383 93.1805 273.383 93.1805L280.136 119.582L287.362 110.675Z" fill="#E4897B"/>
<path d="M340.624 148.903C340.624 148.903 305.885 141.775 302.175 140.065C298.465 138.356 284.513 97.4609 284.513 97.4609L273.8 102.463C273.8 102.463 282.415 143.512 291.225 153.266C300.035 163.021 337.637 171.331 337.637 171.331L340.624 148.903Z" fill="#3C486B"/>
<path opacity="0.2" d="M337.553 171.289L336.914 171.136C335.024 170.706 329.091 169.316 322.045 167.246C310.609 163.924 296.185 158.908 291.155 153.28C282.359 143.553 273.73 102.463 273.73 102.463L284.429 97.4609C284.429 97.4609 298.395 138.37 302.174 140.065C305.954 141.761 340.624 148.903 340.624 148.903L337.553 171.289Z" fill="black"/>
<path d="M284.61 96.6543L286.82 100.92L273.063 105.659L273.591 100.448L284.61 96.6543Z" fill="#3C486B"/>
<path opacity="0.2" d="M337.817 170.72C335.899 170.442 329.882 169.511 322.684 167.94C326.784 160.854 338.79 157.213 338.79 157.213L337.817 170.72Z" fill="black"/>
<path d="M389.537 120.584C389.537 120.584 391.58 139.802 384.465 144.526C377.351 149.251 342.319 143.72 338.345 135.98C334.371 128.24 349.323 107.258 349.323 107.258L389.537 120.584Z" fill="#263238"/>
<path d="M247.814 373.459L256.958 375.669L261.585 363.051L265.781 351.573L255.374 347.141L251.372 361.064L247.814 373.459Z" fill="#E4897B"/>
<path opacity="0.2" d="M251.372 361.064L261.585 363.051L265.782 351.573L255.374 347.141L251.372 361.064Z" fill="black"/>
<path d="M252.289 354.407L264.962 359.118C264.962 359.118 298.77 274.59 305.718 274.353C312.666 274.117 383.409 306.578 401.14 288.541C418.871 270.504 393.234 227.011 393.234 227.011C393.234 227.011 350.588 220.924 347.378 230.554C346.588 233.392 345.984 236.28 345.571 239.197C345.085 242.143 344.751 244.616 344.751 244.616C343.431 244.283 300.618 233.236 283.749 244.616C266.588 256.192 252.289 354.407 252.289 354.407Z" fill="#3C486B"/>
<path opacity="0.6" d="M252.289 354.407L264.962 359.118C264.962 359.118 298.77 274.59 305.718 274.353C312.666 274.117 383.409 306.578 401.14 288.541C418.871 270.504 393.234 227.011 393.234 227.011C393.234 227.011 350.588 220.924 347.378 230.554C346.588 233.392 345.984 236.28 345.571 239.197C345.085 242.143 344.751 244.616 344.751 244.616C343.431 244.283 300.618 233.236 283.749 244.616C266.588 256.192 252.289 354.407 252.289 354.407Z" fill="white"/>
<path d="M325.186 409.519L334.288 407.199L332.537 394.123L330.911 382.145L319.656 383.159L322.574 397.124L325.186 409.519Z" fill="#E4897B"/>
<path opacity="0.2" d="M322.643 397.402L332.592 394.373L330.939 382.27L319.669 383.228L322.643 397.402Z" fill="black"/>
<path d="M270.2 354.419L251.733 348.152L250.941 355.712L264.948 360.659L270.2 354.419Z" fill="#3C486B"/>
<path d="M370.514 292.82C370.514 292.82 367.623 292.89 322.893 290.806C322.893 290.806 329.577 346.722 333.231 388.59L319.85 390.869C319.85 390.869 287.89 301.227 288.237 286.984C288.584 272.741 304.912 268.572 304.912 268.572C304.912 268.572 336.775 286.984 370.514 292.82Z" fill="#3C486B"/>
<path opacity="0.6" d="M370.514 292.82C370.514 292.82 367.623 292.89 322.893 290.806C322.893 290.806 329.577 346.722 333.231 388.59L319.85 390.869C319.85 390.869 287.89 301.227 288.237 286.984C288.584 272.741 304.912 268.572 304.912 268.572C304.912 268.572 336.775 286.984 370.514 292.82Z" fill="white"/>
<path opacity="0.1" d="M370.514 292.82C370.514 292.82 367.623 292.89 322.893 290.806C322.893 290.806 329.577 346.722 333.231 388.59L319.85 390.869C319.85 390.869 287.89 301.227 288.237 286.984C288.584 272.741 304.912 268.572 304.912 268.572C304.912 268.572 336.775 286.984 370.514 292.82Z" fill="black"/>
<path d="M335.177 384.535L316.793 386.633L320.35 393.831L335.233 391.928L335.177 384.535Z" fill="#3C486B"/>
<path opacity="0.1" d="M344.751 244.617L369.694 249.814C369.694 249.814 355.91 242.199 345.571 239.197C345.085 242.143 344.751 244.617 344.751 244.617Z" fill="black"/>
<path d="M392.206 220.383L393.234 227.011L347.378 230.554L346.169 222.703L392.206 220.383Z" fill="#263238"/>
<path opacity="0.2" d="M392.206 220.383L393.234 227.011L347.378 230.554L346.169 222.703L392.206 220.383Z" fill="black"/>
<path d="M377.742 231.487L380.009 231.254L378.823 219.712L376.556 219.945L377.742 231.487Z" fill="#3C486B"/>
<path d="M357.37 230.335L367.41 229.689L366.921 222.076L356.881 222.722L357.37 230.335Z" fill="white"/>
<path d="M349.607 232.7L351.874 232.467L350.688 220.925L348.421 221.158L349.607 232.7Z" fill="#3C486B"/>
<path opacity="0.6" d="M377.742 231.487L380.009 231.254L378.823 219.712L376.556 219.945L377.742 231.487Z" fill="white"/>
<path opacity="0.6" d="M349.607 232.7L351.874 232.467L350.688 220.925L348.421 221.158L349.607 232.7Z" fill="white"/>
<path d="M339.79 148.277C348.379 150.65 357.293 151.631 366.192 151.182C380.922 150.431 398.458 157.532 398.458 157.532L392.149 220.341L346.099 222.661C346.099 222.661 330.688 170.26 339.79 148.277Z" fill="#3C486B"/>
<path d="M347.197 112.802C347.197 112.802 349.781 82.3145 375.266 93.3477C407.227 107.243 381.825 144.401 366.192 136.786C350.56 129.171 347.197 112.802 347.197 112.802Z" fill="#263238"/>
<path opacity="0.2" d="M354.339 152.891L355.076 170.122L360.787 162.021C360.787 162.021 358.744 181.072 359.939 191.452C359.939 191.452 361.037 172.846 363.622 162.021L369.694 170.122L378.407 153.002C378.407 153.002 364.303 147.93 354.339 152.891Z" fill="black"/>
<path d="M362.232 156.142L375.419 152.418C367.29 146.86 371.39 134.354 371.39 134.354L358.328 138.939C358.928 140.755 359.393 142.613 359.717 144.497C361.107 152.64 357.41 153.293 357.41 153.293L362.232 156.142Z" fill="#E4897B"/>
<path opacity="0.2" d="M358.328 138.869C358.928 140.685 359.393 142.543 359.717 144.428C365.97 141.912 371.376 134.256 371.376 134.256L358.328 138.869Z" fill="black"/>
<path d="M366.859 99.7956C355.284 97.2388 350.184 102.575 346.711 114.331C342.361 128.991 343.32 140.302 358.48 140.33C379.074 140.357 386.063 104.048 366.859 99.7956Z" fill="#E4897B"/>
<path d="M354.326 115.344C353.023 116.866 351.539 118.224 349.907 119.387C350.14 119.944 350.523 120.424 351.014 120.775C351.505 121.126 352.084 121.334 352.686 121.375L354.326 115.344Z" fill="#DE5753"/>
<path d="M361.621 115.956C361.384 116.901 361.704 117.804 362.343 117.957C362.983 118.11 363.663 117.471 363.9 116.567C364.136 115.664 363.816 114.733 363.177 114.566C362.538 114.4 361.857 115.011 361.621 115.956Z" fill="#263238"/>
<path d="M363.427 114.636L361.579 113.33C361.579 113.33 362.177 115.317 363.427 114.636Z" fill="#263238"/>
<path d="M349.921 112.87C349.685 113.815 350.004 114.718 350.643 114.871C351.283 115.024 352.033 114.385 352.2 113.481C352.366 112.578 352.116 111.647 351.477 111.48C350.838 111.314 350.157 111.925 349.921 112.87Z" fill="#263238"/>
<path d="M351.727 111.552L349.823 110.287C349.823 110.287 350.476 112.219 351.727 111.552Z" fill="#263238"/>
<path d="M368.138 111.357C368.044 111.359 367.953 111.335 367.872 111.289C367.791 111.242 367.724 111.175 367.679 111.093C367.221 110.378 366.609 109.775 365.888 109.328C365.166 108.881 364.354 108.601 363.51 108.509C363.378 108.491 363.257 108.424 363.172 108.321C363.086 108.218 363.044 108.086 363.052 107.953C363.066 107.819 363.132 107.695 363.236 107.61C363.34 107.524 363.473 107.482 363.608 107.494C364.632 107.593 365.619 107.928 366.492 108.473C367.365 109.018 368.099 109.758 368.638 110.635C368.669 110.694 368.688 110.758 368.693 110.825C368.699 110.891 368.691 110.958 368.67 111.022C368.65 111.085 368.616 111.144 368.573 111.194C368.529 111.245 368.475 111.286 368.416 111.315C368.327 111.35 368.232 111.365 368.138 111.357Z" fill="#263238"/>
<path d="M355.201 106.117C355.107 106.115 355.015 106.086 354.937 106.033C354.254 105.705 353.506 105.535 352.748 105.535C351.991 105.535 351.243 105.705 350.56 106.033C350.499 106.058 350.435 106.07 350.37 106.069C350.305 106.069 350.241 106.055 350.181 106.029C350.122 106.003 350.068 105.966 350.023 105.919C349.978 105.872 349.943 105.816 349.92 105.755C349.896 105.694 349.883 105.629 349.884 105.563C349.884 105.497 349.898 105.432 349.923 105.371C349.949 105.31 349.987 105.255 350.034 105.209C350.081 105.163 350.137 105.127 350.198 105.102C351.028 104.716 351.936 104.525 352.851 104.544C353.767 104.564 354.666 104.792 355.479 105.213C355.535 105.249 355.583 105.295 355.621 105.349C355.659 105.403 355.686 105.464 355.7 105.529C355.714 105.593 355.716 105.66 355.704 105.725C355.692 105.79 355.668 105.853 355.632 105.908C355.582 105.975 355.517 106.029 355.442 106.066C355.367 106.102 355.284 106.119 355.201 106.117Z" fill="#263238"/>
<path d="M375.183 122.084C375.183 122.084 371.876 111.384 374.321 104.227C374.321 104.227 353.478 89.7898 347.197 112.801C347.197 112.801 349.517 91.6518 369.513 95.5982C389.509 99.5446 382.965 128.601 370.778 134.993C370.778 134.993 377.212 128.767 375.183 122.084Z" fill="#263238"/>
<path d="M372.751 124.182C373.158 122.868 374.069 121.768 375.286 121.124C376.502 120.481 377.924 120.346 379.24 120.75C382.742 121.931 382.811 129.671 373.515 129.463C372.167 129.366 371.722 127.962 372.751 124.182Z" fill="#E4897B"/>
<path d="M350.587 125.767C350.896 127.186 351.101 128.626 351.199 130.075H351.949C355.409 130.366 357.104 129.352 357.938 128.157C358.337 127.563 358.585 126.881 358.661 126.17C358.719 125.769 358.719 125.362 358.661 124.961C356.43 125.729 354.061 126.009 351.713 125.781C351.046 125.822 350.587 125.767 350.587 125.767Z" fill="#263238"/>
<path d="M351.769 125.849L351.977 127.114C355.229 127.378 357.535 127.114 358.661 126.238C358.72 125.837 358.72 125.43 358.661 125.029C356.448 125.79 354.098 126.069 351.769 125.849Z" fill="white"/>
<path d="M351.949 130.143C355.409 130.434 357.104 129.42 357.938 128.225C356.626 128.139 355.309 128.285 354.047 128.656C353.209 128.918 352.474 129.438 351.949 130.143Z" fill="#DE5753"/>
<path d="M366.901 100.727C366.901 100.727 367.346 120.778 379.407 123.196C391.469 125.614 378.296 97.4057 378.296 97.4057C378.296 97.4057 360.37 85.7055 348.42 93.9596C336.469 102.214 347.225 112.802 347.225 112.802C347.225 112.802 349.712 97.9059 366.901 100.727Z" fill="#263238"/>
<path d="M371.501 119.082C371.419 119.082 371.34 119.052 371.278 118.999C362.718 112.273 366.943 99.406 366.984 99.2809C367.016 99.194 367.08 99.1225 367.162 99.0811C367.245 99.0397 367.341 99.0317 367.429 99.0586C367.516 99.0899 367.586 99.1544 367.625 99.2378C367.664 99.3212 367.669 99.4167 367.638 99.5033C367.638 99.6283 363.538 112.009 371.709 118.457C371.742 118.488 371.769 118.526 371.787 118.568C371.805 118.61 371.814 118.655 371.814 118.7C371.814 118.746 371.805 118.791 371.787 118.833C371.769 118.875 371.742 118.912 371.709 118.943C371.686 118.98 371.656 119.011 371.62 119.035C371.584 119.059 371.543 119.075 371.501 119.082Z" fill="#263238"/>
<path d="M382.895 127.309C381.367 131.394 377.434 133.687 374.113 132.45C370.792 131.214 369.347 126.892 370.875 122.807C372.404 118.721 376.336 116.429 379.657 117.679C382.978 118.93 384.424 123.238 382.895 127.309Z" fill="#3C486B"/>
<path opacity="0.4" d="M382.895 127.309C381.367 131.394 377.434 133.687 374.113 132.45C370.792 131.214 369.347 126.892 370.875 122.807C372.404 118.721 376.336 116.429 379.657 117.679C382.978 118.93 384.424 123.238 382.895 127.309Z" fill="black"/>
<path d="M379.004 120.624C379.004 120.624 383.993 98.2935 372.807 92.4434C374.081 92.61 375.343 92.856 376.587 93.1798C377.976 93.5967 386.967 102.657 382.451 122.722L379.004 120.624Z" fill="#3C486B"/>
<path opacity="0.2" d="M379.004 120.624C379.004 120.624 383.993 98.2935 372.807 92.4434C374.081 92.61 375.343 92.856 376.587 93.1798C377.976 93.5967 386.967 102.657 382.451 122.722L379.004 120.624Z" fill="black"/>
<path d="M358.161 133.409L357.327 133.284L357.549 131.894C363.686 132.838 369.957 131.509 375.183 128.156L376.003 129.268C370.748 132.75 364.413 134.221 358.161 133.409Z" fill="#3C486B"/>
<g opacity="0.2">
<path d="M358.161 133.409L357.327 133.284L357.549 131.894C363.686 132.838 369.957 131.509 375.183 128.156L376.003 129.268C370.748 132.75 364.413 134.221 358.161 133.409Z" fill="black"/>
</g>
<path d="M382.423 126.753C381.422 129.449 378.81 130.922 376.628 130.144C374.447 129.366 373.474 126.475 374.488 123.78C375.503 121.084 378.101 119.611 380.283 120.389C382.465 121.167 383.437 124.058 382.423 126.753Z" fill="#3C486B"/>
<path d="M356.854 133.909L355.729 133.756C355.532 133.73 355.343 133.666 355.171 133.567C355 133.467 354.849 133.335 354.729 133.178C354.609 133.02 354.521 132.84 354.471 132.648C354.421 132.457 354.409 132.257 354.436 132.061C354.46 131.863 354.523 131.672 354.622 131.499C354.721 131.326 354.853 131.174 355.01 131.052C355.168 130.931 355.349 130.842 355.541 130.791C355.734 130.739 355.934 130.727 356.132 130.754L357.243 130.907C357.64 130.963 357.999 131.171 358.243 131.488C358.487 131.805 358.597 132.205 358.55 132.603C358.494 132.999 358.286 133.358 357.969 133.602C357.652 133.846 357.252 133.956 356.854 133.909Z" fill="#3C486B"/>
<path opacity="0.4" d="M356.854 133.909L355.729 133.756C355.532 133.73 355.343 133.666 355.171 133.567C355 133.467 354.849 133.335 354.729 133.178C354.609 133.02 354.521 132.84 354.471 132.648C354.421 132.457 354.409 132.257 354.436 132.061C354.46 131.863 354.523 131.672 354.622 131.499C354.721 131.326 354.853 131.174 355.01 131.052C355.168 130.931 355.349 130.842 355.541 130.791C355.734 130.739 355.934 130.727 356.132 130.754L357.243 130.907C357.64 130.963 357.999 131.171 358.243 131.488C358.487 131.805 358.597 132.205 358.55 132.603C358.494 132.999 358.286 133.358 357.969 133.602C357.652 133.846 357.252 133.956 356.854 133.909Z" fill="black"/>
<path d="M371.875 147.596L363.621 155.697L366.929 165.646L378.406 153.001L371.875 147.596Z" fill="#3C486B"/>
<path d="M359.939 149.291L361.273 155.53L357.007 164.354L354.339 152.89L359.939 149.291Z" fill="#3C486B"/>
<path d="M370.111 154.627L374.905 137.076C374.905 137.076 372.585 132.713 373.085 131.796C373.585 130.879 376.086 119.095 377.865 117.817C379.644 116.538 386.967 118.72 387.703 119.915C388.44 121.11 380.686 137.076 380.686 137.076L377.907 156.1L370.111 154.627Z" fill="#E4897B"/>
<path d="M398.458 157.532C411.659 171.039 385.216 201.637 370.055 200.331C354.895 199.025 370.445 143.553 370.445 143.553L380.172 145.151C380.172 145.151 376.767 169.163 377.837 171.039C378.907 172.915 394.081 153.044 398.458 157.532Z" fill="#3C486B"/>
<path opacity="0.2" d="M398.458 157.532C411.659 171.039 385.216 201.637 370.055 200.331C354.895 199.025 370.445 143.553 370.445 143.553L380.172 145.151C380.172 145.151 376.767 169.163 377.837 171.039C378.907 172.915 394.081 153.044 398.458 157.532Z" fill="black"/>
<path d="M369.694 141.816L368.263 146.402L381.784 147.597V143.595L369.694 141.816Z" fill="#3C486B"/>
<path opacity="0.6" d="M349.198 178.098H343.723C343.116 178.098 342.625 178.589 342.625 179.195V189.534C342.625 190.14 343.116 190.632 343.723 190.632H349.198C349.804 190.632 350.295 190.14 350.295 189.534V179.195C350.295 178.589 349.804 178.098 349.198 178.098Z" fill="white"/>
<path opacity="0.2" d="M349.309 178.932H343.084V187.45H349.309V178.932Z" fill="black"/>
<path d="M347.03 175.082H345.655V180.098H347.03V175.082Z" fill="#263238"/>
<path d="M232.696 391.218C234.082 390.573 235.575 390.191 237.101 390.092C237.101 390.092 242.381 386.993 247.606 374.918H253.484C254.48 374.925 255.451 375.24 256.261 375.819C257.072 376.399 257.684 377.215 258.014 378.156C258.112 378.414 258.168 378.686 258.18 378.962C258.111 380.382 257.958 381.797 257.722 383.2C256.862 387.897 255.716 392.538 254.29 397.096L253.289 396.845L255.096 388.063C255.707 385.09 252.567 387.966 251.121 390.968C249.676 393.969 247.439 397.012 240.936 395.525C233.363 393.663 230.319 392.58 232.696 391.218Z" fill="#3C486B"/>
<path d="M248.676 371.763C248.676 371.763 241.325 387.132 237.101 390.092C237.101 390.092 242.77 393.468 248.676 385.923C256.305 376.196 258.18 378.906 258.18 378.906C258.02 377.227 257.709 375.567 257.249 373.945C256.11 370.832 248.676 371.763 248.676 371.763Z" fill="#E4897B"/>
<path d="M313.597 427.833C314.798 426.887 316.158 426.162 317.613 425.693C317.613 425.693 322.004 421.427 324.213 408.462L329.924 407.073C330.894 406.85 331.908 406.93 332.831 407.303C333.753 407.676 334.538 408.323 335.08 409.157C335.236 409.389 335.358 409.641 335.441 409.908C335.719 411.284 335.909 412.676 336.011 414.076C336.278 418.826 336.255 423.587 335.941 428.333H334.913L334.593 419.385C334.468 416.341 332.12 419.885 331.411 423.15C330.703 426.416 329.271 429.876 322.601 429.973C314.834 430.057 311.61 429.723 313.597 427.833Z" fill="#3C486B"/>
<path d="M324.505 405.139C324.505 405.139 321.017 421.814 317.557 425.691C317.557 425.691 323.866 427.637 327.812 418.924C332.926 407.669 335.385 409.864 335.385 409.864C334.836 408.271 334.143 406.732 333.315 405.265C331.508 402.485 324.505 405.139 324.505 405.139Z" fill="#E4897B"/>
<path d="M453.708 68.8066H405.198C401.307 68.8066 398.153 71.9609 398.153 75.8518V96.5982C398.153 100.489 401.307 103.643 405.198 103.643H453.708C457.599 103.643 460.753 100.489 460.753 96.5982V75.8518C460.753 71.9609 457.599 68.8066 453.708 68.8066Z" fill="#3C486B"/>
<path d="M414.925 99.6699L400.307 119.541L423.888 101.004L414.925 99.6699Z" fill="#3C486B"/>
<path d="M415.467 86.2185C415.47 86.6264 415.351 87.0259 415.126 87.3663C414.901 87.7066 414.58 87.9723 414.204 88.1297C413.828 88.2871 413.413 88.329 413.013 88.2501C412.613 88.1712 412.245 87.975 411.956 87.6866C411.668 87.3981 411.472 87.0304 411.393 86.6302C411.314 86.2299 411.356 85.8153 411.513 85.4389C411.671 85.0626 411.936 84.7415 412.277 84.5166C412.617 84.2917 413.016 84.1731 413.424 84.1758C413.966 84.1758 414.486 84.391 414.869 84.7741C415.252 85.1572 415.467 85.6767 415.467 86.2185Z" fill="white"/>
<path d="M426.153 86.2185C426.156 86.6264 426.037 87.0259 425.812 87.3663C425.587 87.7066 425.266 87.9723 424.89 88.1297C424.513 88.2871 424.099 88.329 423.699 88.2501C423.298 88.1712 422.931 87.975 422.642 87.6866C422.354 87.3981 422.158 87.0304 422.079 86.6302C422 86.2299 422.042 85.8153 422.199 85.4389C422.356 85.0626 422.622 84.7415 422.962 84.5166C423.303 84.2917 423.702 84.1731 424.11 84.1758C424.652 84.1758 425.172 84.391 425.555 84.7741C425.938 85.1572 426.153 85.6767 426.153 86.2185Z" fill="white"/>
<path d="M436.839 86.2185C436.841 86.6264 436.723 87.0259 436.498 87.3663C436.273 87.7066 435.952 87.9723 435.576 88.1297C435.199 88.2871 434.785 88.329 434.384 88.2501C433.984 88.1712 433.616 87.975 433.328 87.6866C433.039 87.3981 432.843 87.0304 432.764 86.6302C432.686 86.2299 432.727 85.8153 432.885 85.4389C433.042 85.0626 433.308 84.7415 433.648 84.5166C433.989 84.2917 434.388 84.1731 434.796 84.1758C435.338 84.1758 435.857 84.391 436.24 84.7741C436.623 85.1572 436.839 85.6767 436.839 86.2185Z" fill="white"/>
<path d="M447.524 86.2185C447.527 86.6264 447.408 87.0259 447.183 87.3663C446.959 87.7066 446.637 87.9723 446.261 88.1297C445.885 88.2871 445.47 88.329 445.07 88.2501C444.67 88.1712 444.302 87.975 444.013 87.6866C443.725 87.3981 443.529 87.0304 443.45 86.6302C443.371 86.2299 443.413 85.8153 443.57 85.4389C443.728 85.0626 443.993 84.7415 444.334 84.5166C444.674 84.2917 445.074 84.1731 445.482 84.1758C446.023 84.1758 446.543 84.391 446.926 84.7741C447.309 85.1572 447.524 85.6767 447.524 86.2185Z" fill="white"/>
<path d="M271.553 52.3786L236.944 33.7356C236.012 33.2333 234.849 33.582 234.346 34.5144L223.302 55.0182C222.799 55.9506 223.148 57.1136 224.081 57.6159L258.69 76.2589C259.622 76.7611 260.785 76.4124 261.288 75.48L272.332 54.9763C272.835 54.0439 272.486 52.8808 271.553 52.3786Z" fill="#3C486B"/>
<path opacity="0.7" d="M271.553 52.3786L236.944 33.7356C236.012 33.2333 234.849 33.582 234.346 34.5144L223.302 55.0182C222.799 55.9506 223.148 57.1136 224.081 57.6159L258.69 76.2589C259.622 76.7611 260.785 76.4124 261.288 75.48L272.332 54.9763C272.835 54.0439 272.486 52.8808 271.553 52.3786Z" fill="white"/>
<path opacity="0.2" d="M233.446 36.207L244.216 56.4254C244.629 57.1956 245.262 57.8259 246.033 58.2365C246.805 58.6471 247.681 58.8195 248.551 58.7321L271.076 56.5088L248.148 59.8854C247.146 60.0336 246.123 59.8539 245.231 59.3731C244.34 58.8923 243.628 58.1361 243.201 57.2174L233.446 36.207Z" fill="black"/>
<path d="M207.169 32.4697C207.544 24.7437 213.269 9.16649 220.231 4.40024C227.193 -0.366008 222.607 6.23448 222.607 6.23448C222.607 6.23448 229.208 -0.185368 232.682 0.00917263C236.156 0.203713 232.682 4.17791 232.682 4.17791C232.682 4.17791 239.838 -0.227056 243.131 0.00917263C246.425 0.245401 243.131 4.05285 243.131 4.05285C243.131 4.05285 248.995 -0.11589 251.372 1.84341C253.748 3.80272 220.954 25.4662 217.299 34.2762C213.645 43.0861 206.794 40.2652 207.169 32.4697Z" fill="#3C486B"/>
<path opacity="0.4" d="M207.169 32.4697C207.544 24.7437 213.269 9.16649 220.231 4.40024C227.193 -0.366008 222.607 6.23448 222.607 6.23448C222.607 6.23448 229.208 -0.185368 232.682 0.00917263C236.156 0.203713 232.682 4.17791 232.682 4.17791C232.682 4.17791 239.838 -0.227056 243.131 0.00917263C246.425 0.245401 243.131 4.05285 243.131 4.05285C243.131 4.05285 248.995 -0.11589 251.372 1.84341C253.748 3.80272 220.954 25.4662 217.299 34.2762C213.645 43.0861 206.794 40.2652 207.169 32.4697Z" fill="white"/>
<path d="M235.35 31.3027L239.727 34.0819C239.797 34.1247 239.849 34.1896 239.877 34.2661C239.905 34.3426 239.906 34.4261 239.88 34.5033C239.854 34.5804 239.803 34.6466 239.735 34.6912C239.667 34.7358 239.586 34.7561 239.505 34.7489L234.906 34.3876L235.295 37.9171C235.306 38.0003 235.29 38.085 235.249 38.1584C235.209 38.2318 235.145 38.2901 235.069 38.3245C234.992 38.3589 234.906 38.3676 234.824 38.3493C234.742 38.3309 234.668 38.2866 234.614 38.2228L231.96 35.2491L235.35 31.3027Z" fill="#3C486B"/>
<path opacity="0.3" d="M235.35 31.3027L239.727 34.0819C239.797 34.1247 239.849 34.1896 239.877 34.2661C239.905 34.3426 239.906 34.4261 239.88 34.5033C239.854 34.5804 239.803 34.6466 239.735 34.6912C239.667 34.7358 239.586 34.7561 239.505 34.7489L234.906 34.3876L235.295 37.9171C235.306 38.0003 235.29 38.085 235.249 38.1584C235.209 38.2318 235.145 38.2901 235.069 38.3245C234.992 38.3589 234.906 38.3676 234.824 38.3493C234.742 38.3309 234.668 38.2866 234.614 38.2228L231.96 35.2491L235.35 31.3027Z" fill="white"/>
<path d="M173.862 13.9039C173.862 13.9039 179.92 9.73519 189.077 12.431C189.077 12.431 191.704 24.5342 198.916 28.564C202.876 30.7734 212.561 30.5789 220.232 28.1054C229.334 25.1595 233.78 25.1595 235.434 28.564C237.087 31.9684 235.253 35.5119 228.291 37.1655C221.33 38.819 215.785 50.9084 203.182 51.0612C190.578 51.2141 183.88 38.555 187.063 27.4384C184.05 21.7554 179.468 17.0576 173.862 13.9039Z" fill="#3C486B"/>
<path opacity="0.5" d="M173.862 13.9039C173.862 13.9039 179.92 9.73519 189.077 12.431C189.077 12.431 191.704 24.5342 198.916 28.564C202.876 30.7734 212.561 30.5789 220.232 28.1054C229.334 25.1595 233.78 25.1595 235.434 28.564C237.087 31.9684 235.253 35.5119 228.291 37.1655C221.33 38.819 215.785 50.9084 203.182 51.0612C190.578 51.2141 183.88 38.555 187.063 27.4384C184.05 21.7554 179.468 17.0576 173.862 13.9039Z" fill="white"/>
<path d="M231.959 30.8577C231.959 30.9814 231.922 31.1023 231.854 31.2051C231.785 31.308 231.687 31.3881 231.573 31.4355C231.459 31.4828 231.333 31.4952 231.212 31.471C231.091 31.4469 230.979 31.3874 230.892 31.2999C230.804 31.2124 230.745 31.101 230.721 30.9797C230.696 30.8584 230.709 30.7327 230.756 30.6184C230.803 30.5042 230.884 30.4065 230.986 30.3378C231.089 30.2691 231.21 30.2324 231.334 30.2324C231.5 30.2324 231.659 30.2983 231.776 30.4156C231.893 30.5328 231.959 30.6919 231.959 30.8577Z" fill="#263238"/>
<path d="M200.249 41.0302C192.787 43.059 176.196 42.4198 169.526 37.2784C162.856 32.1369 170.526 34.4992 170.526 34.4992C170.526 34.4992 162.397 30.2054 161.494 26.8426C160.591 23.4798 165.496 25.5364 165.496 25.5364C165.496 25.5364 159.104 20.1032 158.27 16.9072C157.436 13.7111 162.105 15.6565 162.105 15.6565C162.105 15.6565 156.283 11.3766 157.464 8.5002C158.645 5.62378 189.341 30.1359 198.832 30.9002C208.323 31.6645 207.808 38.9736 200.249 41.0302Z" fill="#3C486B"/>
<path opacity="0.4" d="M200.249 41.0302C192.787 43.059 176.196 42.4198 169.526 37.2784C162.856 32.1369 170.526 34.4992 170.526 34.4992C170.526 34.4992 162.397 30.2054 161.494 26.8426C160.591 23.4798 165.496 25.5364 165.496 25.5364C165.496 25.5364 159.104 20.1032 158.27 16.9072C157.436 13.7111 162.105 15.6565 162.105 15.6565C162.105 15.6565 156.283 11.3766 157.464 8.5002C158.645 5.62378 189.341 30.1359 198.832 30.9002C208.323 31.6645 207.808 38.9736 200.249 41.0302Z" fill="white"/>
<path d="M151.336 7.22068C151.282 7.23422 151.224 7.23422 151.17 7.22068C149.877 6.76212 148.557 6.33135 147.223 5.92838C147.091 5.88672 146.981 5.79495 146.916 5.67282C146.851 5.55069 146.837 5.40794 146.876 5.27527C146.918 5.14336 147.009 5.03306 147.131 4.9681C147.254 4.90314 147.396 4.88869 147.529 4.92788C148.919 5.33086 150.211 5.77552 151.517 6.31746C151.633 6.35721 151.732 6.43737 151.794 6.54341C151.856 6.64944 151.879 6.77431 151.857 6.89536C151.835 7.01641 151.77 7.12561 151.675 7.20315C151.58 7.28068 151.459 7.32142 151.336 7.31795V7.22068Z" fill="#3C486B"/>
<path d="M67.3505 120.013C67.2128 120.013 67.0805 119.959 66.9819 119.863C66.8833 119.767 66.826 119.636 66.8224 119.499C66.8224 119.361 66.8761 119.229 66.9721 119.13C67.0682 119.032 67.1989 118.974 67.3366 118.971C70.1009 118.932 72.8572 118.662 75.5768 118.165C75.713 118.14 75.8533 118.17 75.9677 118.248C76.082 118.326 76.1612 118.446 76.1882 118.582C76.2022 118.649 76.2025 118.719 76.189 118.787C76.1755 118.854 76.1485 118.919 76.1096 118.976C76.0707 119.033 76.0207 119.082 75.9625 119.119C75.9044 119.156 75.8394 119.181 75.7713 119.193C72.9923 119.702 70.1754 119.976 67.3505 120.013ZM59.013 119.568C56.209 119.269 53.425 118.805 50.6755 118.179C50.5394 118.149 50.4207 118.066 50.3452 117.949C50.2697 117.832 50.2436 117.69 50.2725 117.553C50.3056 117.42 50.3894 117.304 50.5062 117.232C50.623 117.159 50.7635 117.135 50.8979 117.164C53.6038 117.774 56.3406 118.238 59.0964 118.554C59.22 118.574 59.3323 118.638 59.4134 118.733C59.4945 118.829 59.539 118.95 59.539 119.075C59.539 119.2 59.4945 119.321 59.4134 119.417C59.3323 119.512 59.22 119.576 59.0964 119.596L59.013 119.568ZM83.7058 116.789C83.6058 116.79 83.5079 116.761 83.424 116.707C83.3401 116.652 83.2738 116.575 83.2333 116.483C83.2034 116.421 83.1866 116.353 83.1837 116.283C83.1809 116.214 83.1922 116.144 83.2168 116.08C83.2415 116.015 83.2791 115.955 83.3273 115.905C83.3755 115.855 83.4333 115.816 83.4973 115.789C86.0211 114.701 88.364 113.234 90.4452 111.439C90.5516 111.358 90.6848 111.32 90.818 111.334C90.9511 111.347 91.0742 111.41 91.1624 111.511C91.2507 111.611 91.2974 111.742 91.2933 111.875C91.2891 112.009 91.2343 112.136 91.14 112.231C88.9752 114.089 86.5442 115.611 83.9281 116.747C83.8514 116.79 83.7657 116.814 83.678 116.817L83.7058 116.789ZM42.7271 115.844C42.6724 115.858 42.6151 115.858 42.5604 115.844C39.9202 114.969 37.2661 113.94 34.6954 112.815C34.5815 112.75 34.4959 112.645 34.4552 112.52C34.4146 112.395 34.4219 112.26 34.4757 112.14C34.5294 112.02 34.6259 111.925 34.7461 111.872C34.8664 111.82 35.0018 111.814 35.1262 111.856C37.6552 112.968 40.2676 113.982 42.8939 114.858C43.0239 114.905 43.1302 115.001 43.19 115.126C43.2497 115.25 43.2582 115.394 43.2135 115.525C43.1742 115.621 43.1067 115.703 43.0199 115.76C42.9331 115.817 42.831 115.846 42.7271 115.844ZM27.4418 109.091C27.3603 109.116 27.2732 109.116 27.1917 109.091C24.7043 107.701 22.2865 106.201 20.0353 104.63C19.9797 104.591 19.9323 104.541 19.8959 104.484C19.8595 104.426 19.8348 104.362 19.8232 104.295C19.8115 104.228 19.8133 104.159 19.8282 104.093C19.8432 104.026 19.871 103.963 19.9103 103.908C19.9495 103.852 19.9993 103.805 20.0569 103.768C20.1144 103.732 20.1786 103.707 20.2457 103.696C20.3128 103.684 20.3815 103.686 20.4479 103.701C20.5144 103.716 20.5772 103.743 20.6329 103.783C22.8562 105.325 25.2324 106.812 27.7058 108.188C27.7657 108.221 27.8183 108.266 27.8606 108.319C27.9029 108.373 27.934 108.435 27.9521 108.501C27.9702 108.567 27.975 108.636 27.9661 108.704C27.9572 108.772 27.9349 108.837 27.9004 108.896C27.8416 108.986 27.7574 109.057 27.6584 109.099C27.5594 109.141 27.4502 109.153 27.3445 109.133L27.4418 109.091ZM96.1425 105.909C96.061 105.933 95.9739 105.933 95.8924 105.909C95.8325 105.875 95.7799 105.831 95.7376 105.777C95.6953 105.723 95.6642 105.661 95.6461 105.595C95.628 105.529 95.6232 105.46 95.6321 105.392C95.641 105.325 95.6633 105.259 95.6978 105.2C96.1286 104.45 96.5316 103.671 96.8929 102.866C97.6663 101.164 98.2713 99.3907 98.6993 97.5712C98.7354 97.4366 98.822 97.3211 98.941 97.2487C99.06 97.1762 99.2024 97.1524 99.3385 97.1822C99.4725 97.2181 99.5869 97.3053 99.6571 97.4249C99.7273 97.5445 99.7476 97.6869 99.7137 97.8214C99.2603 99.7008 98.6323 101.534 97.8378 103.296C97.4626 104.13 97.0457 104.95 96.6011 105.728C96.5418 105.817 96.4569 105.886 96.3577 105.926C96.2584 105.965 96.1495 105.974 96.0452 105.95L96.1425 105.909ZM13.7406 99.4888C13.6183 99.487 13.5004 99.4428 13.4071 99.3638C11.2908 97.4945 9.30815 95.4794 7.47356 93.333C7.37765 93.2344 7.32397 93.1023 7.32397 92.9648C7.32397 92.8272 7.37765 92.6951 7.47356 92.5965C7.56979 92.5015 7.6996 92.4482 7.83485 92.4482C7.9701 92.4482 8.09991 92.5015 8.19614 92.5965C9.99757 94.6978 11.943 96.6711 14.0185 98.5023C14.1144 98.6008 14.1681 98.7329 14.1681 98.8705C14.1681 99.008 14.1144 99.1402 14.0185 99.2387C13.984 99.314 13.9319 99.3798 13.8666 99.4306C13.8013 99.4814 13.7247 99.5157 13.6433 99.5305L13.7406 99.4888ZM100.144 89.8452C100.076 89.8452 100.008 89.8315 99.9445 89.8048C99.8811 89.7781 99.8238 89.7389 99.7759 89.6897C99.728 89.6405 99.6904 89.5822 99.6654 89.5182C99.6404 89.4542 99.6285 89.3858 99.6303 89.3171C99.6101 86.5537 99.3545 83.797 98.8661 81.0769C98.8416 80.9407 98.8715 80.8003 98.9495 80.686C99.0275 80.5716 99.1472 80.4925 99.2829 80.4655C99.4207 80.445 99.561 80.4783 99.6749 80.5585C99.7887 80.6387 99.8673 80.7597 99.8943 80.8963C100.394 83.6758 100.655 86.4931 100.673 89.3171C100.673 89.4572 100.617 89.5915 100.518 89.6905C100.419 89.7895 100.285 89.8452 100.144 89.8452ZM97.3653 73.3648C97.2529 73.3637 97.1437 73.3267 97.0537 73.2592C96.9637 73.1917 96.8976 73.0973 96.8651 72.9896C96.1564 70.5578 95.281 67.9732 94.211 65.0829C94.1844 65.0183 94.1713 64.949 94.1724 64.8791C94.1735 64.8093 94.1888 64.7404 94.2174 64.6767C94.246 64.613 94.2873 64.5558 94.3388 64.5086C94.3902 64.4613 94.4508 64.4251 94.5167 64.402C94.6458 64.3566 94.7875 64.3631 94.912 64.4201C95.0364 64.4771 95.1338 64.5802 95.1837 64.7077C96.2676 67.6258 97.143 70.266 97.8656 72.6839C97.9048 72.8166 97.8903 72.9593 97.8254 73.0814C97.7604 73.2036 97.6501 73.2953 97.5182 73.337L97.3653 73.3648ZM91.6125 57.5931C91.516 57.5938 91.4215 57.5667 91.3401 57.5149C91.2588 57.4631 91.1941 57.3889 91.1539 57.3013C90.2646 55.0779 89.0556 52.5211 87.7911 49.8114V49.6725C87.7549 49.5514 87.7634 49.4213 87.815 49.3059C87.8665 49.1904 87.9578 49.0973 88.0722 49.0435C88.1866 48.9897 88.3165 48.9787 88.4383 49.0125C88.5602 49.0463 88.6658 49.1227 88.736 49.2278V49.3668C90.0145 52.1459 91.2095 54.6611 92.0988 56.8427C92.1549 56.9736 92.1573 57.1214 92.1052 57.2541C92.0532 57.3867 91.9511 57.4935 91.8209 57.5514L91.6125 57.5931ZM84.6646 42.3077C84.5623 42.311 84.4614 42.2836 84.3747 42.2291C84.2881 42.1747 84.2197 42.0956 84.1782 42.002C82.9276 39.0978 81.9271 36.5271 81.1351 34.1509C81.0904 34.02 81.0988 33.8768 81.1586 33.7521C81.2183 33.6274 81.3247 33.5311 81.4547 33.4839C81.5873 33.4399 81.7321 33.4503 81.8571 33.5128C81.9821 33.5753 82.0773 33.6849 82.1217 33.8174C82.8998 36.1658 83.8864 38.7087 85.137 41.5852C85.1643 41.648 85.1787 41.7157 85.1795 41.7842C85.1802 41.8527 85.1673 41.9207 85.1414 41.9841C85.1155 42.0475 85.0772 42.1052 85.0287 42.1536C84.9803 42.202 84.9226 42.2402 84.8591 42.2661C84.8127 42.3153 84.7557 42.3533 84.6924 42.3772L84.6646 42.3077ZM79.5787 26.3832C79.4544 26.3815 79.3347 26.3359 79.2406 26.2546C79.1465 26.1732 79.0842 26.0613 79.0646 25.9385C78.8261 24.4496 78.7053 22.9442 78.7033 21.4363C78.6918 20.089 78.8128 18.744 79.0646 17.4204C79.1047 17.2971 79.1887 17.1929 79.3006 17.1275C79.4126 17.0622 79.5446 17.0403 79.6717 17.0661C79.7987 17.0918 79.9119 17.1634 79.9895 17.2672C80.0672 17.371 80.104 17.4997 80.0929 17.6288C79.8523 18.8835 79.736 20.1588 79.7455 21.4363C79.7502 22.8928 79.8664 24.3468 80.0929 25.7857C80.1096 25.9212 80.0745 26.0581 79.9946 26.1689C79.9147 26.2796 79.796 26.3562 79.6621 26.3832H79.5787ZM83.2055 10.5976C83.0848 10.6009 82.9667 10.5615 82.872 10.4864C82.7761 10.3878 82.7224 10.2557 82.7224 10.1182C82.7224 9.98063 82.7761 9.84852 82.872 9.74994C84.7375 7.57048 87.0072 5.77266 89.5559 4.45564C89.6778 4.39083 89.8203 4.37635 89.9528 4.41531C90.0852 4.45428 90.1972 4.54358 90.2646 4.66408C90.3247 4.78831 90.3352 4.93081 90.2939 5.0625C90.2526 5.1942 90.1626 5.30517 90.0423 5.37277C87.6153 6.62785 85.4541 8.34073 83.678 10.4169C83.632 10.4937 83.5668 10.5572 83.4889 10.601C83.4109 10.6449 83.3228 10.6677 83.2333 10.6671L83.2055 10.5976ZM139.233 3.78865H139.122C136.454 3.23282 133.689 2.76036 130.896 2.39907C130.828 2.39055 130.763 2.3686 130.703 2.33451C130.644 2.30042 130.592 2.25488 130.551 2.20055C130.51 2.14621 130.479 2.08417 130.462 2.01805C130.445 1.95193 130.441 1.88306 130.451 1.81545C130.46 1.74768 130.482 1.68228 130.516 1.62309C130.55 1.56389 130.595 1.51208 130.65 1.47068C130.704 1.42928 130.766 1.39913 130.832 1.38197C130.898 1.36482 130.967 1.36102 131.035 1.37079C133.814 1.73208 136.593 2.20454 139.372 2.76037C139.497 2.78907 139.607 2.86202 139.682 2.96568C139.757 3.06934 139.791 3.19667 139.779 3.324C139.768 3.45134 139.71 3.57004 139.617 3.65805C139.524 3.74606 139.403 3.79741 139.275 3.80255L139.233 3.78865ZM97.546 2.60751C97.4784 2.61481 97.4101 2.60873 97.345 2.58964C97.2798 2.57054 97.219 2.53881 97.1661 2.49623C97.1132 2.45365 97.0692 2.40106 97.0367 2.34148C97.0041 2.28189 96.9836 2.21647 96.9762 2.14895C96.9689 2.08143 96.975 2.01314 96.9941 1.94796C97.0132 1.88279 97.0449 1.82202 97.0875 1.76911C97.1301 1.71621 97.1827 1.67221 97.2423 1.63963C97.3019 1.60704 97.3673 1.58652 97.4348 1.57922C100.179 0.963562 102.966 0.559404 105.772 0.370293C105.91 0.362613 106.045 0.409214 106.149 0.50012C106.253 0.591027 106.317 0.719007 106.328 0.856643C106.334 0.925302 106.326 0.994398 106.304 1.05983C106.282 1.12527 106.248 1.18571 106.203 1.23756C106.157 1.28941 106.102 1.3316 106.04 1.36165C105.978 1.3917 105.911 1.40899 105.842 1.41248C103.082 1.59091 100.341 1.98583 97.6432 2.59361L97.546 2.60751ZM122.558 1.6348C120.14 1.46805 117.264 1.28741 114.221 1.23182C114.083 1.2282 113.953 1.17098 113.856 1.07234C113.76 0.973707 113.707 0.841458 113.707 0.703788C113.707 0.635085 113.72 0.567069 113.747 0.503767C113.774 0.440465 113.813 0.383162 113.862 0.335233C113.911 0.287304 113.97 0.249727 114.034 0.224722C114.098 0.199716 114.166 0.187784 114.235 0.189641C117.306 0.25912 120.21 0.42587 122.572 0.59262C122.641 0.596109 122.708 0.613396 122.77 0.643444C122.832 0.673492 122.888 0.715688 122.933 0.767536C122.979 0.819384 123.013 0.879826 123.035 0.945262C123.056 1.0107 123.064 1.07979 123.059 1.14845C123.069 1.27393 123.034 1.39888 122.96 1.5008C122.886 1.60271 122.778 1.67488 122.656 1.70429L122.558 1.6348Z" fill="#3C486B"/>
<path d="M2.92947 86.6632C2.83628 86.6649 2.74439 86.6412 2.66361 86.5947C2.58284 86.5482 2.51623 86.4806 2.4709 86.3991C1.76817 85.1792 1.14166 83.9169 0.594975 82.6195C0.567704 82.5566 0.55327 82.489 0.552521 82.4205C0.551772 82.3519 0.564721 82.284 0.590613 82.2206C0.616504 82.1571 0.654812 82.0995 0.703287 82.0511C0.751761 82.0027 0.809428 81.9644 0.872892 81.9386C1.00024 81.8873 1.14256 81.8877 1.26967 81.9395C1.39678 81.9914 1.49869 82.0908 1.55378 82.2165C2.09039 83.4729 2.69816 84.6977 3.37413 85.885C3.42605 85.9624 3.45533 86.0527 3.45868 86.1458C3.46203 86.2389 3.43932 86.3311 3.3931 86.412C3.34687 86.4929 3.27898 86.5592 3.19707 86.6036C3.11515 86.648 3.02247 86.6686 2.92947 86.6632Z" fill="#3C486B"/>
<path d="M171.694 196.494H118.946V207.305H171.694V196.494Z" fill="white"/>
<path opacity="0.1" d="M171.694 196.494H118.946V207.305H171.694V196.494Z" fill="black"/>
<path opacity="0.1" d="M141.165 196.494H118.946V207.305H141.165V196.494Z" fill="black"/>
<path opacity="0.1" d="M118.946 198.051H165.899L118.946 199.385V198.051Z" fill="black"/>
<path opacity="0.1" d="M171.694 199.926L130.993 200.94H171.694V199.926Z" fill="black"/>
<path opacity="0.1" d="M121.099 202.957L141.165 202.137L170.665 202.957L141.165 203.415L121.099 202.957Z" fill="black"/>
<path opacity="0.1" d="M118.946 205.248H153.713L118.946 206.068V205.248Z" fill="black"/>
<path opacity="0.1" d="M171.61 206.068L148.391 206.499H171.694L171.61 206.068Z" fill="black"/>
<path d="M164.357 185.684H111.608V196.495H164.357V185.684Z" fill="white"/>
<path opacity="0.1" d="M164.357 185.684H111.608V196.495H164.357V185.684Z" fill="black"/>
<path opacity="0.1" d="M133.827 185.684H111.608V196.495H133.827V185.684Z" fill="black"/>
<path opacity="0.1" d="M111.608 187.24H158.562L111.608 188.56V187.24Z" fill="black"/>
<path opacity="0.1" d="M164.356 189.115L123.656 190.13H164.356V189.115Z" fill="black"/>
<path opacity="0.1" d="M113.748 192.144L133.814 191.311L163.315 192.144L133.814 192.603L113.748 192.144Z" fill="black"/>
<path opacity="0.1" d="M111.608 194.424H146.375L111.608 195.258V194.424Z" fill="black"/>
<path opacity="0.1" d="M164.273 195.258L141.053 195.689H164.356L164.273 195.258Z" fill="black"/>
<path d="M170.374 174.859H117.625V185.67H170.374V174.859Z" fill="white"/>
<path opacity="0.1" d="M170.374 174.859H117.625V185.67H170.374V174.859Z" fill="black"/>
<path opacity="0.1" d="M139.845 174.859H117.625V185.67H139.845V174.859Z" fill="black"/>
<path opacity="0.1" d="M117.625 176.416H164.579L117.625 177.75V176.416Z" fill="black"/>
<path opacity="0.1" d="M170.374 178.291L129.673 179.305H170.374V178.291Z" fill="black"/>
<path opacity="0.1" d="M119.779 181.32L139.844 180.5L169.345 181.32L139.844 181.778L119.779 181.32Z" fill="black"/>
<path opacity="0.1" d="M117.625 183.613H152.392L117.625 184.433V183.613Z" fill="black"/>
<path opacity="0.1" d="M170.304 184.434L147.084 184.864H170.374L170.304 184.434Z" fill="black"/>
<path d="M205.516 207.084L206.878 201.9H263.239L289.183 204.499L290.169 207.084H205.516Z" fill="#263238"/>
<path opacity="0.4" d="M263.239 201.9V207.084H205.516L206.878 201.9H263.239Z" fill="black"/>
<path d="M251.914 177.096C251.99 177.725 251.93 178.362 251.738 178.965C251.547 179.568 251.229 180.124 250.805 180.594C250.381 181.064 249.861 181.438 249.281 181.69C248.7 181.942 248.073 182.067 247.44 182.057H161.119C159.769 182.028 158.476 181.508 157.482 180.595C156.487 179.682 155.858 178.439 155.714 177.096L150.586 121.833C150.531 121.293 150.568 120.748 150.697 120.221C150.937 119.25 151.499 118.39 152.292 117.782C153.085 117.173 154.061 116.852 155.061 116.872H241.437C242.787 116.901 244.079 117.421 245.074 118.334C246.069 119.247 246.697 120.49 246.842 121.833L251.914 177.096Z" fill="#263238"/>
<path opacity="0.4" d="M247.134 182.057H161.119C159.769 182.028 158.476 181.508 157.482 180.595C156.487 179.682 155.858 178.438 155.714 177.096L150.586 121.833C150.531 121.293 150.568 120.748 150.697 120.221H236.712C238.062 120.25 239.355 120.77 240.35 121.683C241.344 122.595 241.973 123.839 242.118 125.182L247.245 180.445C247.301 180.985 247.263 181.53 247.134 182.057Z" fill="black"/>
<path d="M187.826 148.164H205.682L200.93 199.287L229.166 203.525V207.082H169.692V203.525L181.879 199.287L187.826 148.164Z" fill="#263238"/>
<path opacity="0.1" d="M205.682 148.164L192.454 206.276L181.879 205.957L187.826 148.164H205.682Z" fill="white"/>
<path d="M205.6 429.986H197.095L181.796 217.033H193.093L205.6 429.986Z" fill="#263238"/>
<path opacity="0.4" d="M205.613 429.986H197.095L182.547 227.622L181.796 217.381H193.093L193.705 227.622L205.613 429.986Z" fill="white"/>
<path opacity="0.2" d="M193.705 227.108H182.547L181.796 217.381H193.093L193.705 227.108Z" fill="black"/>
<path d="M268.075 429.986H259.57L258.181 217.033H269.464L268.075 429.986Z" fill="#263238"/>
<path opacity="0.5" d="M269.478 217.381L269.256 251.745L268.089 429.986H259.57L258.403 251.745L258.181 217.381H269.478Z" fill="white"/>
<path opacity="0.2" d="M269.478 217.381L269.256 252.12H258.403L258.181 217.381H269.478Z" fill="black"/>
<path d="M358.453 429.986H349.949L334.65 217.033H345.947L358.453 429.986Z" fill="#263238"/>
<path opacity="0.5" d="M358.467 429.986H349.949L335.4 227.622L334.65 217.381H345.947L346.558 227.622L358.467 429.986Z" fill="white"/>
<path opacity="0.2" d="M346.558 227.108H335.4L334.65 217.381H345.947L346.558 227.108Z" fill="black"/>
<path d="M108.218 429.986H99.7134L112.22 217.033H123.517L108.218 429.986Z" fill="#263238"/>
<path opacity="0.5" d="M123.517 217.381L122.766 227.622L108.218 429.986H99.7134L111.608 227.622L112.22 217.381H123.517Z" fill="white"/>
<path opacity="0.2" d="M112.22 217.381H123.517L122.766 227.108H111.608L112.22 217.381Z" fill="black"/>
<path d="M103.271 211.725H354.895V219.381C354.895 219.775 354.818 220.166 354.667 220.53C354.516 220.894 354.295 221.225 354.016 221.504C353.738 221.782 353.407 222.003 353.043 222.154C352.678 222.305 352.288 222.383 351.894 222.383H106.272C105.476 222.383 104.713 222.066 104.15 221.504C103.587 220.941 103.271 220.177 103.271 219.381V211.725Z" fill="#3C486B"/>
<path opacity="0.6" d="M103.271 211.725H354.895V219.381C354.895 219.775 354.818 220.166 354.667 220.53C354.516 220.894 354.295 221.225 354.016 221.504C353.738 221.782 353.407 222.003 353.043 222.154C352.678 222.305 352.288 222.383 351.894 222.383H106.272C105.476 222.383 104.713 222.066 104.15 221.504C103.587 220.941 103.271 220.177 103.271 219.381V211.725Z" fill="white"/>
<path opacity="0.2" d="M354.895 211.711H103.271V217.047H354.895V211.711Z" fill="black"/>
<path d="M360.176 213.115H97.9905C97.1945 213.115 96.431 212.798 95.8681 212.235C95.3052 211.672 94.989 210.909 94.989 210.113C94.989 209.316 95.3048 208.551 95.8673 207.986C96.4298 207.421 97.1932 207.101 97.9905 207.098H360.176C360.973 207.101 361.737 207.421 362.299 207.986C362.862 208.551 363.177 209.316 363.177 210.113C363.177 210.909 362.861 211.672 362.298 212.235C361.735 212.798 360.972 213.115 360.176 213.115Z" fill="#3C486B"/>
<path opacity="0.6" d="M360.176 213.115H97.9905C97.1945 213.115 96.431 212.798 95.8681 212.235C95.3052 211.672 94.989 210.909 94.989 210.113C94.989 209.316 95.3048 208.551 95.8673 207.986C96.4298 207.421 97.1932 207.101 97.9905 207.098H360.176C360.973 207.101 361.737 207.421 362.299 207.986C362.862 208.551 363.177 209.316 363.177 210.113C363.177 210.909 362.861 211.672 362.298 212.235C361.735 212.798 360.972 213.115 360.176 213.115Z" fill="white"/>
<path d="M298.146 197.829L301.369 192.994C301.687 192.519 302.117 192.129 302.621 191.86C303.125 191.591 303.688 191.451 304.26 191.451H308.345C308.684 191.452 309.021 191.504 309.345 191.604L323.922 196.023C324.751 196.27 325.455 196.821 325.895 197.565L327.994 201.081L298.146 197.829Z" fill="#3C486B"/>
<path opacity="0.2" d="M327.994 201.081L306.747 198.774L298.118 197.829L301.341 192.994C301.659 192.519 302.089 192.129 302.593 191.86C303.098 191.591 303.66 191.451 304.232 191.451H308.317C308.661 191.453 309.002 191.505 309.332 191.604L309.651 191.701L323.894 196.023C324.727 196.268 325.437 196.819 325.881 197.565L327.994 201.081Z" fill="black"/>
<path opacity="0.2" d="M327.993 201.081L306.747 198.774L309.651 191.701L323.894 196.023C324.727 196.268 325.437 196.819 325.881 197.565L327.993 201.081Z" fill="black"/>
<path d="M338.082 206.624V207.082H293.031L294.699 200.565C295.008 199.368 295.707 198.308 296.686 197.553C297.665 196.798 298.868 196.391 300.104 196.397H320.087C320.751 196.393 321.41 196.511 322.032 196.744L324.533 197.675L334.455 201.371C335.526 201.768 336.448 202.485 337.097 203.425C337.746 204.365 338.09 205.482 338.082 206.624Z" fill="#3C486B"/>
<path opacity="0.2" d="M338.081 206.624V207.083H319.586L320.573 200.038C320.636 199.601 320.797 199.184 321.042 198.817C321.288 198.45 321.612 198.143 321.992 197.918C322.372 197.693 322.797 197.555 323.237 197.516C323.676 197.476 324.119 197.536 324.533 197.689L334.455 201.386C335.523 201.782 336.444 202.497 337.093 203.434C337.742 204.371 338.087 205.485 338.081 206.624Z" fill="black"/>
<path d="M322.463 202.303L328.355 184.642C328.412 184.462 328.509 184.297 328.637 184.158C328.765 184.019 328.922 183.91 329.097 183.838C329.272 183.767 329.46 183.735 329.649 183.744C329.838 183.753 330.022 183.803 330.189 183.891C330.445 184.038 330.648 184.263 330.768 184.533C330.888 184.803 330.919 185.104 330.856 185.392L325.895 204.235C325.895 204.235 322.602 205.569 322.463 202.303Z" fill="#263238"/>
<path opacity="0.2" d="M298.145 205.623H295.532L296.033 203.053H298.645L298.145 205.623Z" fill="black"/>
<path opacity="0.2" d="M302.036 205.528H299.424L299.924 202.957H302.536L302.036 205.528Z" fill="black"/>
</svg>
