<svg width="49" height="66" viewBox="0 0 49 66" fill="none" xmlns="http://www.w3.org/2000/svg">
<path d="M24.4993 41.3535C21.6434 41.3535 19.2159 40.354 17.2168 38.3548C15.2177 36.3557 14.2181 33.9282 14.2181 31.0723V10.5098C14.2181 7.65386 15.2177 5.22635 17.2168 3.22721C19.2159 1.22808 21.6434 0.228516 24.4993 0.228516C27.3553 0.228516 29.7828 1.22808 31.7819 3.22721C33.781 5.22635 34.7806 7.65386 34.7806 10.5098V31.0723C34.7806 33.9282 33.781 36.3557 31.7819 38.3548C29.7828 40.354 27.3553 41.3535 24.4993 41.3535ZM21.0723 65.3431V54.8048C15.132 54.0052 10.2198 51.3492 6.33581 46.8369C2.45178 42.3245 0.509766 37.0697 0.509766 31.0723H7.36393C7.36393 35.8131 9.03464 39.8542 12.376 43.1956C15.7174 46.537 19.7586 48.2077 24.4993 48.2077C29.2401 48.2077 33.2813 46.537 36.6227 43.1956C39.9641 39.8542 41.6348 35.8131 41.6348 31.0723H48.4889C48.4889 37.0697 46.5469 42.3245 42.6629 46.8369C38.7789 51.3492 33.8667 54.0052 27.9264 54.8048V65.3431H21.0723ZM24.4993 34.4994C25.4704 34.4994 26.2843 34.1709 26.9411 33.5141C27.598 32.8572 27.9264 32.0433 27.9264 31.0723V10.5098C27.9264 9.53876 27.598 8.72483 26.9411 8.06797C26.2843 7.41111 25.4704 7.08268 24.4993 7.08268C23.5283 7.08268 22.7144 7.41111 22.0576 8.06797C21.4007 8.72483 21.0723 9.53876 21.0723 10.5098V31.0723C21.0723 32.0433 21.4007 32.8572 22.0576 33.5141C22.7144 34.1709 23.5283 34.4994 24.4993 34.4994Z" fill="#656567"/>
</svg>
