<svg width="270" height="180" viewBox="0 0 270 180" fill="none" xmlns="http://www.w3.org/2000/svg">
<path d="M67.7657 25.7715H34.7393V73.6443H67.7657V25.7715Z" fill="#E0E0E0"/>
<path d="M66.1104 25.7715H33.084V73.6443H66.1104V25.7715Z" fill="#F5F5F5"/>
<path d="M62.0095 30.9551H37.1875V68.4563H62.0095V30.9551Z" fill="white"/>
<path d="M62.0097 68.4613C62.0097 68.4613 62.0097 68.3965 62.0097 68.2777C62.0097 68.1589 62.0097 67.9753 62.0097 67.7449C62.0097 67.2733 62.0097 66.5821 62.0097 65.6893C62.0097 63.8893 62.0097 61.2721 61.9845 57.9637C61.9845 51.3505 61.9629 41.9833 61.9449 30.9637L62.0277 31.0465H37.2093L37.2993 30.9565C37.2993 45.1045 37.2993 58.1473 37.2993 68.4613L37.2273 68.3893L55.2957 68.4253L60.2853 68.4433H61.5957H62.0493H61.6101H60.3141H55.3389L37.2273 68.4793H37.1553V68.4073C37.1553 58.0933 37.1553 45.0505 37.1553 30.9025V30.8125H37.2489H62.0673H62.1501V30.9601C62.1501 42.0121 62.1177 51.3937 62.1105 58.0213C62.1105 61.3225 62.0925 63.9325 62.0853 65.7253C62.0853 66.6145 62.0853 67.2985 62.0853 67.7665C62.0853 67.9933 62.0853 68.1697 62.0853 68.2885C62.0853 68.4073 62.0097 68.4613 62.0097 68.4613Z" fill="#E0E0E0"/>
<path d="M66.2076 25.7715C66.0369 26.0776 65.8394 26.3679 65.6172 26.6391C65.2356 27.1503 64.6884 27.8487 64.0692 28.6047C63.45 29.3607 62.8668 30.0267 62.4348 30.5019C62.2177 30.7703 61.9768 31.0185 61.7148 31.2435C61.9013 30.9515 62.112 30.6757 62.3448 30.4191L63.936 28.4895L65.52 26.5491C65.7268 26.2709 65.9568 26.0107 66.2076 25.7715Z" fill="#E0E0E0"/>
<path d="M62.1357 68.3398C63.3683 70.2964 64.8174 72.1079 66.4557 73.7398L62.1357 68.3398Z" fill="white"/>
<path d="M66.4662 73.7542C66.1892 73.5541 65.9356 73.3235 65.7102 73.0666C65.1347 72.4815 64.5892 71.8675 64.0758 71.227C63.4782 70.4746 62.9778 69.7582 62.6358 69.229C62.4391 68.9499 62.2703 68.652 62.1318 68.3398C62.3545 68.5969 62.5578 68.87 62.7402 69.157C63.1002 69.6682 63.6186 70.3666 64.2126 71.1118C64.8066 71.857 65.3826 72.5122 65.8002 72.9802C66.0405 73.222 66.263 73.4806 66.4662 73.7542Z" fill="#E0E0E0"/>
<path d="M33.0801 73.6047L37.4001 68.2695L33.0801 73.6047Z" fill="white"/>
<path d="M37.4073 68.2695C36.7557 69.213 36.0564 70.1226 35.3121 70.9947C34.6156 71.9043 33.8705 72.7755 33.0801 73.6047C33.7317 72.6613 34.431 71.7517 35.1753 70.8795C35.8718 69.97 36.6169 69.0987 37.4073 68.2695Z" fill="#E0E0E0"/>
<path d="M33.084 25.7715C33.8303 26.5725 34.5321 27.4137 35.1864 28.2915C35.8871 29.1295 36.5409 30.0057 37.1448 30.9159C36.3998 30.1148 35.6991 29.2735 35.046 28.3959C34.3444 27.5577 33.6894 26.6816 33.084 25.7715Z" fill="#E0E0E0"/>
<path d="M54.2772 38.5703H45.9648V62.1683H54.2772V38.5703Z" fill="#E0E0E0"/>
<path d="M112.295 18.7949V39.7613H82.1842L81.1006 18.9425L112.295 18.7949Z" fill="#E0E0E0"/>
<path d="M81.0967 18.9428V39.7148H111.207V18.9428L81.0967 18.9428Z" fill="white"/>
<path d="M111.351 39.8588H80.9561V18.7988H111.351V39.8588ZM81.2441 39.5744H111.066V19.0796H81.2441V39.5744Z" fill="#E0E0E0"/>
<path d="M107.95 21.5234H84.3623V37.133H107.95V21.5234Z" fill="white"/>
<path d="M107.949 21.5235H107.496H106.2H101.34L84.362 21.5991L84.4304 21.5307C84.4304 26.3007 84.4304 31.5855 84.4304 37.1403L84.3584 37.0683H107.946L107.884 37.1259C107.884 32.3775 107.91 28.4859 107.917 25.7679C107.917 24.4143 107.917 23.3559 107.917 22.6287C107.917 22.2687 107.917 21.9951 107.917 21.8043C107.917 21.6135 107.917 21.5163 107.917 21.5163C107.917 21.5163 107.917 21.6063 107.917 21.7899C107.917 21.9735 107.917 22.2507 107.917 22.6035C107.917 23.3235 107.917 24.3819 107.935 25.7319C107.935 28.4535 107.953 32.3631 107.964 37.1259V37.1871H107.906H84.3188H84.2432V37.1115C84.2432 31.5567 84.2432 26.2719 84.2432 21.5019V21.4551H84.3116L101.336 21.4875L106.182 21.5091H107.463H107.899L107.949 21.5235Z" fill="#E0E0E0"/>
<path d="M81.1006 18.8848C81.2867 18.9743 81.4609 19.0867 81.619 19.2196C81.925 19.4428 82.339 19.7596 82.7998 20.1196C83.2606 20.4796 83.6494 20.8396 83.9302 21.0808C84.0908 21.2112 84.2358 21.3598 84.3622 21.5236C83.7886 21.1225 83.2359 20.6923 82.7062 20.2348C82.1429 19.8193 81.6066 19.3684 81.1006 18.8848Z" fill="#E0E0E0"/>
<path d="M111.211 18.9434C110.716 19.4305 110.186 19.8817 109.627 20.2934C109.097 20.7427 108.537 21.1541 107.949 21.5246C108.444 21.0374 108.974 20.5862 109.533 20.1746C110.062 19.7242 110.623 19.3128 111.211 18.9434Z" fill="#E0E0E0"/>
<path d="M111.186 39.7177L107.827 36.9961L111.186 39.7177Z" fill="white"/>
<path d="M107.827 36.9961C108.431 37.3921 109.008 37.8275 109.555 38.2993C110.13 38.735 110.675 39.2089 111.186 39.7177C110.581 39.324 110.005 38.8885 109.462 38.4145C108.884 37.9806 108.338 37.5066 107.827 36.9961Z" fill="#E0E0E0"/>
<path d="M81.1006 39.7145C81.5897 39.2333 82.1131 38.7881 82.6666 38.3825C83.1903 37.9371 83.7449 37.5293 84.3262 37.1621C83.8386 37.6461 83.3151 38.0926 82.7602 38.4977C82.237 38.9428 81.6824 39.3494 81.1006 39.7145Z" fill="#E0E0E0"/>
<path d="M89.1504 26.388V31.6152H103.993V26.388H89.1504Z" fill="#E0E0E0"/>
<path d="M234.968 112.739C234.968 112.739 232.264 111.479 230.144 117.815C228.023 124.151 227.393 127.718 227.393 127.718C227.393 127.718 226.785 129.072 225.817 128.392C224.848 127.711 223.347 125.598 221.968 126.232C220.589 126.865 220.294 128.622 220.946 131.03C221.597 133.439 222.832 138.763 222.94 139.246C223.048 139.728 222.879 140.466 222.148 140.11C221.417 139.753 216.946 136.063 215.308 138.284C213.67 140.506 216.601 146.924 216.907 147.623C217.213 148.321 217.115 148.667 216.791 148.901C216.467 149.135 215.089 147.752 213.775 146.741C212.461 145.729 210.765 144.818 209.933 146.179C209.102 147.54 209.534 152.612 215.535 160.057L218.541 163.322L222.908 162.419C232.135 159.917 235.461 156.065 235.587 154.474C235.713 152.882 233.787 152.638 232.149 152.674C230.511 152.71 228.571 153.016 228.448 152.634C228.326 152.252 228.448 151.914 229.103 151.554C229.759 151.194 235.889 147.684 235.882 144.93C235.875 142.176 230.09 142.543 229.287 142.41C228.484 142.277 228.787 141.564 229.15 141.244C229.514 140.923 233.647 137.33 235.587 135.764C237.527 134.198 238.355 132.647 237.578 131.282C236.8 129.918 234.374 130.793 233.193 130.775C232.012 130.757 232.311 129.302 232.311 129.302C232.311 129.302 233.895 126.062 235.911 119.672C237.927 113.282 234.91 112.732 234.91 112.732" fill="#EBEBEB"/>
<path d="M217.973 164.227C219.463 159.547 222.249 151.285 224.607 144.175C226.965 137.065 229.093 130.632 230.609 125.967C231.361 123.634 231.969 121.747 232.409 120.437C232.621 119.789 232.769 119.281 232.898 118.932C232.953 118.767 232.997 118.637 233.028 118.543C233.057 118.453 233.075 118.41 233.075 118.41C233.075 118.41 233.075 118.457 233.039 118.547C233.003 118.637 232.974 118.77 232.923 118.939C232.815 119.299 232.661 119.8 232.459 120.451C232.056 121.765 231.462 123.659 230.713 125.995C229.223 130.675 227.113 137.112 224.755 144.219C222.397 151.325 219.593 159.591 218.077 164.256" fill="#E0E0E0"/>
<path d="M223.952 129.27C224.012 129.358 224.064 129.452 224.107 129.55C224.201 129.734 224.327 130.008 224.467 130.342C224.773 131.016 225.187 131.955 225.587 132.999C225.986 134.043 226.364 134.961 226.667 135.674C226.793 135.994 226.904 136.268 226.991 136.484C227.04 136.58 227.076 136.681 227.099 136.786C227.039 136.698 226.987 136.604 226.944 136.506C226.85 136.322 226.724 136.052 226.584 135.714C226.285 135.037 225.9 134.094 225.482 133.05C225.065 132.006 224.69 131.091 224.402 130.382L224.071 129.572C224.019 129.477 223.979 129.375 223.952 129.27Z" fill="#E0E0E0"/>
<path d="M227.52 136.798C227.502 136.762 229.402 135.862 231.764 134.782C234.126 133.702 236.048 132.86 236.084 132.896C236.12 132.932 234.198 133.832 231.836 134.908C229.474 135.984 227.52 136.838 227.52 136.798Z" fill="#E0E0E0"/>
<path d="M223.395 147.557C223.5 147.523 223.608 147.501 223.719 147.492L224.601 147.362C225.342 147.254 226.372 147.1 227.499 146.884C228.625 146.668 229.637 146.448 230.379 146.275L231.246 146.077C231.351 146.044 231.46 146.025 231.57 146.02C231.47 146.065 231.367 146.101 231.261 146.128C231.059 146.189 230.767 146.275 230.404 146.372C229.684 146.567 228.661 146.808 227.524 147.02C226.386 147.233 225.364 147.38 224.611 147.46C224.251 147.503 223.935 147.532 223.722 147.546C223.613 147.559 223.504 147.563 223.395 147.557Z" fill="#E0E0E0"/>
<path d="M218.678 141.445C218.756 141.51 218.826 141.584 218.887 141.665L219.416 142.299C219.859 142.835 220.46 143.584 221.119 144.415C221.777 145.247 222.371 146.003 222.793 146.557L223.286 147.216C223.35 147.294 223.407 147.379 223.455 147.468C223.376 147.404 223.306 147.331 223.246 147.249L222.717 146.619C222.274 146.079 221.673 145.333 221.011 144.502C220.348 143.67 219.761 142.911 219.34 142.36L218.847 141.701C218.781 141.623 218.724 141.537 218.678 141.445Z" fill="#E0E0E0"/>
<path d="M213.84 150.48C213.937 150.566 214.025 150.661 214.103 150.765C214.283 150.974 214.509 151.247 214.783 151.571C215.355 152.255 216.133 153.209 216.99 154.268C217.847 155.326 218.613 156.287 219.15 156.989L219.798 157.821C219.88 157.921 219.954 158.028 220.017 158.141C219.922 158.054 219.835 157.958 219.755 157.857L219.074 157.05C218.505 156.363 217.724 155.412 216.867 154.354C216.011 153.296 215.244 152.334 214.707 151.632C214.448 151.298 214.229 151.017 214.063 150.797C213.978 150.699 213.904 150.593 213.84 150.48Z" fill="#E0E0E0"/>
<path d="M219.96 157.912C220.092 157.872 220.227 157.842 220.363 157.822L221.476 157.621C222.415 157.448 223.711 157.203 225.133 156.901C226.555 156.598 227.837 156.281 228.762 156.047L229.86 155.774C229.993 155.734 230.129 155.705 230.267 155.688C230.14 155.745 230.009 155.791 229.874 155.824C229.619 155.904 229.248 156.015 228.794 156.141C227.873 156.4 226.595 156.728 225.169 157.034C223.744 157.34 222.444 157.574 221.501 157.721C221.029 157.797 220.644 157.851 220.381 157.884C220.242 157.907 220.101 157.916 219.96 157.912Z" fill="#E0E0E0"/>
<path d="M243 164.097C243 164.148 193.54 164.191 132.545 164.191C71.5502 164.191 22.0898 164.159 22.0898 164.097C22.0898 164.036 71.5394 164.004 132.559 164.004C193.579 164.004 243 164.047 243 164.097Z" fill="#263238"/>
<path d="M175.448 38.8164L172.022 41.7461L176.595 47.0922L180.02 44.1626L175.448 38.8164Z" fill="#263238"/>
<path d="M178.409 38.4006L171.36 44.4558L166.417 38.6958C168.361 35.967 170.679 33.9078 173.455 32.6406L178.409 38.4006Z" fill="#455A64"/>
<path d="M172.548 43.4408C172.508 43.4768 171.316 42.1664 169.884 40.5212C168.451 38.876 167.32 37.5152 167.364 37.4792C167.407 37.4432 168.595 38.7536 170.028 40.3988C171.46 42.044 172.587 43.4084 172.548 43.4408Z" fill="#263238"/>
<path d="M173.879 42.2888C173.595 42.0117 173.33 41.7145 173.087 41.3996C172.612 40.8416 171.968 40.0676 171.259 39.2036L169.459 36.986L168.919 36.3128C168.789 36.1472 168.721 36.0716 168.721 36.0608C168.793 35.996 169.992 37.3604 171.41 39.0848C172.13 39.9488 172.749 40.7372 173.21 41.3168C173.461 41.6205 173.685 41.9457 173.879 42.2888Z" fill="#263238"/>
<path d="M175.679 40.7513C175.39 40.4751 175.122 40.1778 174.877 39.8621C174.398 39.2969 173.75 38.5085 173.037 37.6337L171.237 35.3801L170.697 34.6925C170.627 34.6105 170.564 34.5226 170.51 34.4297C170.819 34.6852 171.097 34.9765 171.338 35.2973C171.824 35.8553 172.479 36.6401 173.188 37.5149C173.897 38.3897 174.535 39.1925 174.988 39.7793C175.245 40.0833 175.477 40.4085 175.679 40.7513Z" fill="#263238"/>
<path d="M177.304 39.312C177.264 39.3444 176.08 38.0232 174.658 36.36C173.236 34.6968 172.12 33.318 172.159 33.282C172.199 33.246 173.38 34.5708 174.802 36.2376C176.224 37.9044 177.343 39.2796 177.304 39.312Z" fill="#263238"/>
<path d="M235.769 42.4558L232.655 39.1973L227.57 44.0572L230.684 47.3158L235.769 42.4558Z" fill="#263238"/>
<path d="M235.919 45.6629L229.504 38.9489L234.987 33.7109C237.809 35.5109 239.991 37.7177 241.398 40.4249L235.919 45.6629Z" fill="#455A64"/>
<path d="M230.576 40.0745C230.54 40.0349 231.782 38.7749 233.352 37.2593C234.921 35.7437 236.232 34.5449 236.257 34.5809C236.282 34.6169 235.051 35.8769 233.481 37.3961C231.912 38.9153 230.612 40.1105 230.576 40.0745Z" fill="#263238"/>
<path d="M231.8 41.353C232.056 41.0507 232.335 40.769 232.635 40.5106C233.164 40.0066 233.906 39.319 234.73 38.563L236.851 36.6442L237.495 36.0682C237.65 35.9314 237.725 35.863 237.736 35.8594C237.805 35.9278 236.505 37.1986 234.856 38.7034C234.032 39.4558 233.276 40.1434 232.721 40.6078C232.434 40.88 232.126 41.1292 231.8 41.353Z" fill="#263238"/>
<path d="M233.428 43.0552C233.687 42.75 233.97 42.4659 234.274 42.2056C234.81 41.698 235.563 41.0068 236.401 40.2508L238.561 38.3284L239.22 37.7524C239.301 37.6808 239.385 37.6135 239.472 37.5508C239.234 37.8738 238.959 38.1675 238.651 38.4256C238.119 38.9404 237.366 39.6352 236.531 40.3912C235.696 41.1472 234.925 41.8312 234.371 42.3064C234.076 42.5798 233.761 42.8302 233.428 43.0552Z" fill="#263238"/>
<path d="M234.95 44.6073C234.914 44.5677 236.174 43.3185 237.762 41.8101C239.349 40.3017 240.667 39.1137 240.703 39.1533C240.739 39.1929 239.479 40.4421 237.891 41.9469C236.304 43.4517 234.986 44.6397 234.95 44.6073Z" fill="#263238"/>
<path d="M207.029 26.8984H201.693V35.2252H207.029V26.8984Z" fill="#263238"/>
<path d="M209.879 29.391H198.899V20.4162C202.748 19.4658 206.42 19.4082 209.89 20.4162L209.879 29.391Z" fill="#FFC20D"/>
<path d="M210.02 20.452C209.891 20.5325 209.755 20.6 209.613 20.6536C209.237 20.8191 208.851 20.961 208.457 21.0784C207.868 21.2601 207.266 21.402 206.657 21.5032C205.918 21.6206 205.171 21.6831 204.422 21.6904C203.674 21.6915 202.926 21.6362 202.186 21.5248C201.578 21.4304 200.976 21.2945 200.386 21.118C199.992 21.0027 199.605 20.8644 199.227 20.704C199.084 20.6544 198.948 20.588 198.82 20.506C198.82 20.4736 199.425 20.722 200.422 20.9884C201.008 21.1431 201.601 21.2633 202.201 21.3484C202.933 21.4475 203.672 21.498 204.411 21.4996C205.151 21.4912 205.889 21.4335 206.622 21.3268C207.218 21.2405 207.81 21.1203 208.393 20.9668C209.415 20.6752 210.006 20.4196 210.02 20.452Z" fill="#263238"/>
<path d="M202.528 29.3648C202.478 29.3648 202.435 27.6404 202.435 25.5164C202.435 23.3924 202.478 21.668 202.528 21.668C202.579 21.668 202.622 23.3888 202.622 25.5164C202.622 27.644 202.582 29.3648 202.528 29.3648Z" fill="#263238"/>
<path d="M204.62 29.4147C204.57 29.4147 204.526 27.6831 204.526 25.5483C204.526 23.4135 204.57 21.6855 204.62 21.6855C204.67 21.6855 204.714 23.4135 204.714 25.5483C204.714 27.6831 204.674 29.4147 204.62 29.4147Z" fill="#263238"/>
<path d="M206.712 29.3832C206.661 29.3832 206.618 27.6516 206.618 25.5168C206.618 23.382 206.661 21.6504 206.712 21.6504C206.762 21.6504 206.805 23.382 206.805 25.5168C206.805 27.6516 206.766 29.3832 206.712 29.3832Z" fill="#263238"/>
<path d="M208.44 29.3826C208.386 29.3826 208.347 27.5106 208.347 25.203C208.347 22.8954 208.386 21.0234 208.44 21.0234C208.494 21.0234 208.534 22.8954 208.534 25.203C208.534 27.5106 208.505 29.3826 208.44 29.3826Z" fill="#263238"/>
<path d="M200.553 29.328C200.502 29.328 200.459 27.456 200.459 25.1484C200.459 22.8408 200.502 20.9688 200.553 20.9688C200.603 20.9688 200.646 22.8408 200.646 25.1484C200.646 27.456 200.607 29.328 200.553 29.328Z" fill="#263238"/>
<path d="M231.165 98.9178C246.325 83.7581 246.325 59.1794 231.165 44.0197C216.006 28.86 191.427 28.86 176.267 44.0197C161.108 59.1794 161.108 83.7581 176.267 98.9178C191.427 114.077 216.006 114.077 231.165 98.9178Z" fill="#FFC20D"/>
<path d="M203.717 103.762C221.722 103.762 236.318 89.1656 236.318 71.1602C236.318 53.1548 221.722 38.5586 203.717 38.5586C185.711 38.5586 171.115 53.1548 171.115 71.1602C171.115 89.1656 185.711 103.762 203.717 103.762Z" fill="#FAFAFA"/>
<path d="M236.318 71.1614C236.318 71.1614 236.318 70.985 236.293 70.6358C236.268 70.2866 236.293 69.7646 236.225 69.0842C236.096 67.0991 235.785 65.13 235.296 63.2018C234.943 61.8102 234.497 60.4439 233.96 59.1122C233.33 57.5246 232.571 55.9908 231.692 54.5258C229.542 50.9469 226.733 47.8086 223.412 45.2774C219.383 42.2116 214.692 40.1306 209.714 39.2006C205.496 38.4244 201.166 38.4745 196.967 39.3482C195.492 39.6684 194.039 40.0832 192.618 40.5902C186.569 42.7936 181.308 46.7381 177.498 51.9266C176.504 53.2778 175.618 54.7055 174.848 56.1962C174.449 56.9414 174.107 57.7154 173.768 58.493C173.43 59.2706 173.128 60.077 172.872 60.8978C172.319 62.5404 171.905 64.2263 171.634 65.9378C171.36 67.6683 171.217 69.4168 171.205 71.1686C171.218 72.9215 171.36 74.6711 171.63 76.403C171.906 78.1138 172.32 79.7993 172.868 81.443C173.128 82.2602 173.451 83.0522 173.765 83.8442C174.078 84.6362 174.456 85.3994 174.845 86.1446C175.614 87.6362 176.501 89.064 177.498 90.4142C181.307 95.6046 186.569 99.5505 192.618 101.754C194.039 102.261 195.492 102.676 196.967 102.996C198.405 103.297 199.861 103.5 201.326 103.605C204.13 103.817 206.95 103.662 209.714 103.144C214.692 102.214 219.383 100.133 223.412 97.067C226.734 94.5369 229.543 91.3984 231.692 87.8186C232.57 86.3533 233.329 84.8196 233.96 83.2322C235.239 80.0493 236.003 76.6833 236.225 73.2602C236.286 72.5798 236.275 72.0578 236.293 71.7086C236.311 71.3594 236.318 71.1794 236.318 71.1794C236.318 71.1794 236.318 71.3594 236.318 71.7086C236.318 72.0578 236.318 72.5798 236.268 73.2602C236.071 76.6929 235.321 80.0711 234.047 83.2646C233.42 84.8596 232.664 86.4007 231.786 87.8726C229.641 91.4696 226.831 94.6254 223.506 97.1714C219.462 100.256 214.752 102.352 209.754 103.291C206.977 103.816 204.144 103.976 201.326 103.767C199.854 103.662 198.39 103.459 196.945 103.158C195.461 102.839 194 102.423 192.571 101.913C186.487 99.701 181.194 95.7361 177.361 90.5186C176.361 89.1611 175.47 87.7262 174.697 86.2274C174.294 85.4786 173.948 84.6938 173.595 83.9126C173.243 83.1314 172.955 82.3214 172.695 81.497C172.143 79.8465 171.727 78.1537 171.45 76.4354C170.879 72.9499 170.879 69.3946 171.45 65.909C171.728 64.1981 172.145 62.5126 172.695 60.869C172.958 60.0446 173.282 59.249 173.599 58.4534C173.916 57.6578 174.294 56.891 174.697 56.1422C175.472 54.6442 176.364 53.2093 177.365 51.851C181.196 46.6343 186.488 42.6704 192.571 40.4606C193.999 39.9508 195.459 39.5347 196.941 39.215C198.388 38.9146 199.853 38.7113 201.326 38.6066C204.143 38.3974 206.975 38.5572 209.75 39.0818C214.75 40.0173 219.461 42.1136 223.502 45.2018C226.827 47.7495 229.637 50.9064 231.782 54.5042C233.395 57.2201 234.607 60.1543 235.382 63.2162C235.863 65.1512 236.163 67.1264 236.279 69.1166C236.333 69.797 236.315 70.319 236.329 70.6682C236.343 71.0174 236.318 71.1614 236.318 71.1614Z" fill="#263238"/>
<path d="M231.534 69.981C230.5 70.0242 229.658 69.981 229.654 69.891C229.651 69.801 230.482 69.6786 231.516 69.621C232.549 69.5634 233.391 69.5994 233.398 69.7074C233.406 69.8154 232.56 69.9378 231.534 69.981Z" fill="#263238"/>
<path d="M230.839 77.4855C229.831 77.2479 229.039 76.9851 229.039 76.8951C229.039 76.8051 229.896 76.9131 230.907 77.1327C231.919 77.3523 232.707 77.6187 232.707 77.7231C232.707 77.8275 231.84 77.7195 230.839 77.4855Z" fill="#263238"/>
<path d="M228.15 84.5243C227.239 84.0275 226.541 83.5559 226.584 83.4767C226.627 83.3975 227.405 83.7251 228.319 84.1967C229.234 84.6683 229.936 85.1543 229.885 85.2479C229.835 85.3415 229.057 85.0247 228.15 84.5243Z" fill="#263238"/>
<path d="M223.667 90.5884C222.926 89.8684 222.375 89.2276 222.44 89.1484C222.505 89.0692 223.16 89.6056 223.916 90.3184C224.672 91.0312 225.215 91.6684 225.143 91.7584C225.071 91.8484 224.405 91.312 223.667 90.5884Z" fill="#263238"/>
<path d="M217.728 95.2321C217.21 94.3357 216.85 93.5725 216.929 93.5257C217.008 93.4789 217.505 94.1629 218.038 95.0485C218.57 95.9341 218.93 96.6973 218.84 96.7549C218.75 96.8125 218.25 96.1213 217.728 95.2321Z" fill="#263238"/>
<path d="M210.762 98.108C210.502 97.1036 210.362 96.272 210.452 96.2504C210.542 96.2288 210.834 97.0172 211.111 98.0144C211.388 99.0116 211.525 99.8432 211.42 99.872C211.316 99.9008 211.021 99.1088 210.762 98.108Z" fill="#263238"/>
<path d="M203.277 99.0006C203.277 97.9638 203.381 97.125 203.471 97.125C203.561 97.125 203.637 97.9674 203.637 99.0006C203.637 100.034 203.547 100.876 203.443 100.876C203.338 100.876 203.259 100.041 203.277 99.0006Z" fill="#263238"/>
<path d="M195.84 97.8713C196.135 96.8777 196.445 96.0965 196.535 96.1217C196.625 96.1469 196.466 96.9749 196.175 97.9721C195.883 98.9693 195.584 99.7721 195.48 99.7217C195.376 99.6713 195.527 98.8649 195.84 97.8713Z" fill="#263238"/>
<path d="M188.953 94.773C189.504 93.8982 190.012 93.225 190.091 93.2718C190.17 93.3186 189.796 94.0782 189.259 94.9638C188.723 95.8494 188.212 96.519 188.122 96.465C188.032 96.411 188.403 95.6514 188.953 94.773Z" fill="#263238"/>
<path d="M183.161 89.9481C183.928 89.2497 184.601 88.7385 184.659 88.8069C184.716 88.8753 184.162 89.5017 183.406 90.2109C182.65 90.9201 181.984 91.4313 181.908 91.3557C181.833 91.2801 182.398 90.6465 183.161 89.9481Z" fill="#263238"/>
<path d="M178.87 83.7497C179.795 83.2853 180.58 82.9721 180.619 83.0513C180.659 83.1305 179.953 83.5877 179.035 84.0701C178.117 84.5525 177.336 84.8657 177.286 84.7685C177.235 84.6713 177.948 84.2177 178.87 83.7497Z" fill="#263238"/>
<path d="M176.4 76.631C177.419 76.4294 178.258 76.3394 178.276 76.4294C178.294 76.5194 177.487 76.7678 176.476 76.9838C175.464 77.1998 174.622 77.2898 174.6 77.1854C174.578 77.081 175.392 76.8326 176.4 76.631Z" fill="#263238"/>
<path d="M175.942 69.119C176.976 69.1946 177.807 69.3314 177.804 69.4214C177.8 69.5114 176.954 69.5366 175.921 69.4754C174.888 69.4142 174.052 69.281 174.06 69.173C174.067 69.065 174.909 69.0254 175.942 69.119Z" fill="#263238"/>
<path d="M177.509 61.7295C178.484 62.0895 179.247 62.4495 179.219 62.5251C179.19 62.6007 178.369 62.4063 177.39 62.0679C176.411 61.7295 175.647 61.3767 175.68 61.2759C175.712 61.1751 176.537 61.3767 177.509 61.7295Z" fill="#263238"/>
<path d="M181.004 55.0504C181.847 55.6516 182.488 56.1988 182.444 56.2744C182.401 56.35 181.66 55.9324 180.806 55.3456C179.953 54.7588 179.312 54.2116 179.366 54.1216C179.42 54.0316 180.158 54.4492 181.004 55.0504Z" fill="#263238"/>
<path d="M186.156 49.5502C186.807 50.353 187.279 51.0514 187.211 51.1126C187.142 51.1738 186.541 50.5726 185.879 49.777C185.216 48.9814 184.741 48.2866 184.824 48.2182C184.907 48.1498 185.504 48.7474 186.156 49.5502Z" fill="#263238"/>
<path d="M192.6 45.6252C193.011 46.5756 193.281 47.3748 193.194 47.4252C193.108 47.4756 192.698 46.7268 192.273 45.7836C191.848 44.8404 191.578 44.0412 191.675 43.9836C191.772 43.926 192.179 44.6784 192.6 45.6252Z" fill="#263238"/>
<path d="M199.85 43.5848C199.99 44.6108 200.033 45.4532 199.94 45.4676C199.846 45.482 199.648 44.6612 199.493 43.6388C199.339 42.6164 199.295 41.7704 199.4 41.756C199.504 41.7416 199.709 42.5588 199.85 43.5848Z" fill="#263238"/>
<path d="M207.388 43.5588C207.252 44.5848 207.068 45.4092 206.978 45.3984C206.888 45.3876 206.91 44.5416 207.032 43.5156C207.154 42.4896 207.338 41.6616 207.442 41.676C207.547 41.6904 207.525 42.5292 207.388 43.5588Z" fill="#263238"/>
<path d="M214.657 45.5502C214.25 46.5042 213.85 47.2458 213.764 47.2098C213.677 47.1738 213.933 46.371 214.325 45.4098C214.718 44.4486 215.121 43.7106 215.218 43.7538C215.315 43.797 215.067 44.5998 214.657 45.5502Z" fill="#263238"/>
<path d="M221.122 49.4276C220.474 50.2376 219.891 50.846 219.819 50.7884C219.747 50.7308 220.204 50.0216 220.841 49.2044C221.479 48.3872 222.058 47.7644 222.145 47.8472C222.231 47.93 221.759 48.6212 221.122 49.4276Z" fill="#263238"/>
<path d="M226.318 54.8928C225.475 55.4976 224.752 55.9296 224.698 55.854C224.644 55.7784 225.274 55.2204 226.105 54.6012C226.937 53.982 227.66 53.5536 227.725 53.64C227.79 53.7264 227.16 54.288 226.318 54.8928Z" fill="#263238"/>
<path d="M229.856 61.5595C228.884 61.9195 228.056 62.1319 228.035 62.0491C228.013 61.9663 228.755 61.5919 229.73 61.2211C230.706 60.8503 231.509 60.6307 231.548 60.7315C231.588 60.8323 230.828 61.1995 229.856 61.5595Z" fill="#263238"/>
<path d="M231.48 68.9096C230.446 68.9924 229.604 68.9852 229.597 68.9096C229.59 68.834 230.418 68.6684 231.447 68.5496C232.477 68.4308 233.323 68.4596 233.33 68.5676C233.337 68.6756 232.502 68.8268 231.48 68.9096Z" fill="#263238"/>
<path d="M191.056 35.8926L190.944 35.943L190.613 36.0762C190.325 36.1986 189.893 36.3462 189.342 36.5874C187.79 37.2362 186.283 37.9878 184.831 38.8374C183.91 39.3702 182.934 40.0074 181.908 40.7238C180.882 41.4402 179.834 42.2754 178.787 43.215C174.187 47.2691 170.674 52.4084 168.566 58.1658C168.073 59.4834 167.702 60.7722 167.382 61.9782C167.062 63.1842 166.846 64.3362 166.684 65.3874C166.421 67.0483 166.268 68.7247 166.226 70.4058C166.198 71.0034 166.226 71.4642 166.226 71.7774C166.226 71.9286 166.226 72.0438 166.226 72.1374C166.23 72.1781 166.23 72.219 166.226 72.2598C166.222 72.2203 166.222 72.1804 166.226 72.141C166.226 72.051 166.226 71.9322 166.226 71.781C166.226 71.4678 166.187 71.007 166.205 70.4094C166.218 68.722 166.351 67.0377 166.604 65.3694C166.756 64.311 166.99 63.1626 167.281 61.9422C167.607 60.6449 167.998 59.3653 168.455 58.1082C170.552 52.3122 174.086 47.1433 178.726 43.0854C179.78 42.1458 180.853 41.3358 181.868 40.5978C182.884 39.8598 183.884 39.2478 184.817 38.7222C186.279 37.8814 187.798 37.1452 189.364 36.519C189.914 36.2886 190.357 36.159 190.652 36.0402L190.991 35.925C191.012 35.9126 191.033 35.9018 191.056 35.8926Z" fill="white"/>
<path d="M201.891 33.7894C201.521 33.8663 201.145 33.9156 200.768 33.937C200.069 34.009 199.112 34.1134 198.053 34.2502C196.995 34.387 196.041 34.531 195.35 34.639C194.98 34.7152 194.604 34.7633 194.227 34.783C194.585 34.6582 194.953 34.5666 195.328 34.5094C196.016 34.369 196.97 34.2034 198.028 34.0666C199.087 33.9298 200.055 33.8434 200.757 33.8038C201.134 33.7636 201.513 33.7587 201.891 33.7894Z" fill="white"/>
<g opacity="0.4">
<path d="M177.66 90.7584C177.66 90.7584 194.555 117.42 220.763 103.765C248.123 89.5092 233.003 56.832 233.003 56.832C233.003 56.832 245.877 82.8744 219.208 99.852C212.566 104.082 205.333 104.086 199.818 103.531C185.724 102.12 177.66 90.7584 177.66 90.7584Z" fill="black"/>
</g>
<path d="M212.803 53.8359C212.966 58.6175 212.821 63.4045 212.371 68.1675C212.206 69.8919 212.011 71.6343 211.345 73.2363C210.679 74.8383 209.545 76.3071 207.947 76.9839C206.349 77.6607 204.304 77.3799 203.191 76.0551L212.803 53.8359Z" fill="#E0E0E0"/>
<path d="M203.008 68.5899L214.855 48.6387L207.706 71.1639L204.052 72.2547L203.008 68.5899Z" fill="#FFC20D"/>
<g opacity="0.4">
<path d="M214.855 48.6387L206.067 69.0255L207.705 71.1639L214.855 48.6387Z" fill="black"/>
</g>
<path d="M204.052 76.0662C206.157 76.0662 207.864 74.3593 207.864 72.2538C207.864 70.1483 206.157 68.4414 204.052 68.4414C201.946 68.4414 200.239 70.1483 200.239 72.2538C200.239 74.3593 201.946 76.0662 204.052 76.0662Z" fill="#FAFAFA"/>
<path d="M207.864 72.2546C207.829 71.9448 207.778 71.6371 207.709 71.333C207.488 70.5119 206.999 69.7883 206.319 69.2774C205.82 68.9018 205.234 68.6572 204.616 68.566C203.998 68.4748 203.367 68.5399 202.78 68.7554C202.443 68.8749 202.126 69.0462 201.841 69.263C201.537 69.4831 201.271 69.7505 201.052 70.055C200.584 70.693 200.332 71.4635 200.332 72.2546C200.332 73.0458 200.584 73.8163 201.052 74.4542C201.49 75.0473 202.09 75.5002 202.78 75.7574C203.273 75.9381 203.798 76.0138 204.322 75.9797C204.845 75.9456 205.356 75.8024 205.821 75.5594C206.286 75.3164 206.695 74.9788 207.022 74.5684C207.349 74.158 207.587 73.6838 207.72 73.1762C207.789 72.8723 207.841 72.5646 207.874 72.2546C207.897 72.5702 207.869 72.8874 207.792 73.1942C207.595 74.0526 207.106 74.8161 206.409 75.3542C205.931 75.7252 205.373 75.9781 204.778 76.0922C204.095 76.2229 203.389 76.1682 202.734 75.9338C202.378 75.8109 202.044 75.6323 201.744 75.4046C201.425 75.1745 201.146 74.895 200.916 74.5766C200.42 73.9094 200.152 73.1002 200.152 72.269C200.152 71.4378 200.42 70.6287 200.916 69.9614C201.147 69.6439 201.426 69.3645 201.744 69.1334C202.045 68.9089 202.379 68.7317 202.734 68.6078C203.388 68.3717 204.095 68.317 204.778 68.4494C205.504 68.589 206.175 68.9349 206.709 69.4457C207.244 69.9565 207.619 70.6105 207.792 71.3294C207.864 71.6322 207.888 71.9444 207.864 72.2546Z" fill="#263238"/>
<path d="M206.844 72.8282C207.154 71.2925 206.161 69.7959 204.626 69.4855C203.09 69.175 201.593 70.1682 201.283 71.7038C200.972 73.2395 201.966 74.7361 203.501 75.0465C205.037 75.357 206.533 74.3638 206.844 72.8282Z" fill="#455A64"/>
<path d="M173.996 163.761H192.752L184.008 88.3984L173.996 163.761Z" fill="#E0E0E0"/>
<path d="M81.7063 88.3984L69.4951 164.65L173.697 166.007L184.008 88.3984H81.7063Z" fill="#FAFAFA"/>
<path d="M179.367 123.329H76.1113L78.3577 109.289H181.231L179.367 123.329Z" fill="#EBEBEB"/>
<path d="M179.374 123.343H76.1006L78.3506 109.303H181.242L179.374 123.343ZM76.1222 123.325H179.359L181.221 109.285H78.3686L76.1222 123.325Z" fill="#263238"/>
<path d="M81.7064 88.3984L78.3584 109.289H181.232L184.008 88.3984H81.7064Z" fill="#FFC20D"/>
<path d="M81.7205 88.3989L184.022 88.3125H184.119V88.4097C181.106 111.129 177.686 136.895 174.071 164.107V164.19H172.818L69.5813 164.161H69.4805V164.071L81.7205 88.3989C81.6197 89.0253 76.9685 118.261 69.6713 164.107L69.5957 164.017H172.793H173.963L173.873 164.096C177.491 136.884 180.918 111.122 183.953 88.4025L184.036 88.4961L81.7205 88.3989Z" fill="#263238"/>
<path d="M181.232 109.289C181.232 109.339 158.192 109.383 129.799 109.383C101.406 109.383 78.3584 109.339 78.3584 109.289C78.3584 109.239 101.398 109.195 129.799 109.195C158.199 109.195 181.232 109.235 181.232 109.289Z" fill="#263238"/>
<path d="M179.367 123.332C179.367 123.386 156.205 123.425 127.642 123.425C99.0801 123.425 75.9141 123.386 75.9141 123.332C75.9141 123.278 99.0693 123.238 127.642 123.238C156.216 123.238 179.367 123.281 179.367 123.332Z" fill="#263238"/>
<path d="M177.265 136.25C177.265 136.304 154.106 136.343 125.544 136.343C96.9812 136.343 73.8008 136.304 73.8008 136.25C73.8008 136.196 96.956 136.156 125.529 136.156C154.102 136.156 177.265 136.199 177.265 136.25Z" fill="#263238"/>
<path d="M175.166 149.172C175.166 149.222 152.004 149.265 123.441 149.265C94.8789 149.265 71.7129 149.222 71.7129 149.172C71.7129 149.121 94.8681 149.078 123.441 149.078C152.014 149.078 175.166 149.121 175.166 149.172Z" fill="#263238"/>
<path d="M84.1221 164.211C84.0717 164.211 85.9617 151.899 88.3485 136.735C90.7353 121.572 92.7045 109.278 92.7549 109.289C92.8053 109.3 90.9153 121.594 88.5321 136.764C86.1489 151.935 84.1761 164.218 84.1221 164.211Z" fill="#263238"/>
<path d="M100.044 164.211C99.9901 164.211 101.884 151.899 104.267 136.735C106.65 121.572 108.623 109.278 108.677 109.289C108.731 109.3 106.837 121.594 104.451 136.764C102.064 151.935 100.08 164.218 100.044 164.211Z" fill="#263238"/>
<path d="M114.841 163.66C114.79 163.66 116.662 151.474 119.02 136.462C121.378 121.45 123.34 109.278 123.387 109.289C123.434 109.3 121.566 121.471 119.208 136.491C116.85 151.51 114.888 163.667 114.841 163.66Z" fill="#263238"/>
<path d="M129.475 164.095C129.424 164.095 131.311 151.809 133.69 136.678C136.07 121.547 138.039 109.278 138.089 109.289C138.14 109.3 136.253 121.569 133.874 136.707C131.494 151.845 129.525 164.103 129.475 164.095Z" fill="#263238"/>
<path d="M144.181 164.095C144.13 164.095 146.017 151.809 148.396 136.678C150.776 121.547 152.745 109.278 152.795 109.289C152.846 109.3 150.963 121.569 148.583 136.707C146.204 151.845 144.235 164.103 144.181 164.095Z" fill="#263238"/>
<path d="M158.876 164.163C158.826 164.163 160.716 151.862 163.099 136.706C165.482 121.55 167.451 109.267 167.505 109.277C167.559 109.288 165.666 121.575 163.282 136.735C160.899 151.894 158.926 164.185 158.876 164.163Z" fill="#263238"/>
<g opacity="0.2">
<path d="M149.624 110.271C151.395 109.486 152.504 107.643 152.961 105.76C153.418 103.877 153.346 101.911 153.415 99.9709C153.483 98.0305 153.713 96.0325 154.703 94.3657C155.29 93.3829 156.115 92.5657 156.766 91.6189C157.418 90.6721 157.9 89.5201 157.659 88.3789L146.578 88.4365L149.624 110.271Z" fill="black"/>
</g>
<path d="M103.68 124.371C103.651 124.419 103.615 124.463 103.572 124.501L103.241 124.861C102.95 125.159 102.521 125.581 101.981 126.106C100.901 127.143 99.4001 128.554 97.69 130.066C95.98 131.578 94.3961 132.896 93.2333 133.832C92.6501 134.3 92.1749 134.674 91.8437 134.912L91.4585 135.2C91.4156 135.237 91.367 135.268 91.3145 135.29C91.3145 135.29 91.3541 135.243 91.4333 135.171L91.7933 134.854L93.1433 133.713C94.2881 132.752 95.8577 131.416 97.5641 129.911C99.2705 128.407 100.804 127.01 101.884 125.998L103.184 124.799L103.544 124.479C103.585 124.437 103.63 124.401 103.68 124.371Z" fill="#263238"/>
<path d="M102.849 135.433C102.696 135.3 102.553 135.155 102.421 135.001L101.294 133.799C100.322 132.766 99.0187 131.376 97.5823 129.839L93.8312 125.915L92.6936 124.723C92.55 124.581 92.4164 124.43 92.2939 124.27C92.457 124.39 92.6088 124.525 92.7475 124.673C93.0283 124.939 93.4315 125.332 93.9247 125.821C94.9111 126.8 96.2575 128.172 97.7155 129.713C99.1735 131.254 100.47 132.672 101.391 133.712C101.852 134.231 102.223 134.656 102.471 134.951C102.612 135.1 102.738 135.261 102.849 135.433Z" fill="#263238"/>
<path d="M106.693 127.678C106.693 127.678 106.729 127.584 106.805 127.401C106.924 127.134 107.069 126.88 107.237 126.641C107.899 125.716 108.832 125.02 109.908 124.65C110.678 124.372 111.5 124.264 112.316 124.334C113.288 124.428 114.225 124.747 115.052 125.266C116.008 125.855 116.814 126.655 117.41 127.606C118.1 128.667 118.443 129.916 118.393 131.181C118.352 131.863 118.14 132.524 117.778 133.103C117.398 133.704 116.892 134.215 116.294 134.601C115.023 135.416 113.526 135.808 112.018 135.72C111.228 135.678 110.45 135.509 109.714 135.22C108.948 134.921 108.259 134.453 107.698 133.852C107.419 133.536 107.184 133.183 106.999 132.804C106.823 132.418 106.702 132.008 106.639 131.588C106.52 130.726 106.595 129.849 106.859 129.021C107.409 127.293 108.603 125.843 110.192 124.971C111.017 124.518 111.933 124.26 112.873 124.217C113.812 124.174 114.748 124.347 115.61 124.722C116.504 125.099 117.286 125.697 117.882 126.461C118.479 127.246 118.853 128.178 118.962 129.158C119.087 130.152 118.926 131.161 118.498 132.066C118.278 132.521 117.989 132.939 117.641 133.305C117.287 133.666 116.887 133.979 116.453 134.237C115.576 134.72 114.609 135.017 113.613 135.11C112.616 135.203 111.611 135.09 110.66 134.777C109.724 134.49 108.863 133.998 108.14 133.337C107.423 132.676 106.933 131.806 106.74 130.85C106.537 129.91 106.671 128.929 107.118 128.078C107.345 127.658 107.656 127.29 108.032 126.998C108.403 126.718 108.816 126.5 109.256 126.353C110.121 126.076 111.028 125.954 111.935 125.993C112.818 126 113.696 126.121 114.548 126.353C115.391 126.575 116.169 126.992 116.82 127.57C117.444 128.152 117.869 128.915 118.037 129.752C118.202 130.56 118.154 131.398 117.896 132.182C117.642 132.938 117.211 133.622 116.64 134.18C115.556 135.24 114.119 135.865 112.604 135.936C111.895 135.974 111.186 135.871 110.516 135.634C109.874 135.404 109.296 135.022 108.832 134.522C108.392 134.044 108.059 133.478 107.856 132.862C107.655 132.284 107.566 131.673 107.593 131.062C107.645 129.93 108.096 128.853 108.868 128.024C109.527 127.302 110.362 126.763 111.29 126.458C112.07 126.204 112.896 126.125 113.71 126.227C114.834 126.367 115.902 126.798 116.809 127.476C117.045 127.65 117.267 127.84 117.475 128.045C117.616 128.186 117.684 128.261 117.684 128.261C117.684 128.261 117.605 128.193 117.464 128.06C117.251 127.861 117.024 127.676 116.788 127.505C115.879 126.846 114.817 126.431 113.702 126.299C112.824 126.198 111.933 126.308 111.106 126.621C110.278 126.934 109.538 127.441 108.947 128.099C108.195 128.911 107.758 129.964 107.712 131.069C107.688 131.669 107.777 132.267 107.975 132.833C108.175 133.431 108.501 133.98 108.929 134.442C109.38 134.927 109.94 135.298 110.563 135.522C111.216 135.749 111.907 135.847 112.597 135.81C114.076 135.738 115.476 135.124 116.532 134.086C117.084 133.547 117.499 132.884 117.745 132.153C117.992 131.395 118.036 130.586 117.875 129.806C117.713 129.002 117.304 128.27 116.705 127.71C116.071 127.154 115.317 126.752 114.502 126.537C113.664 126.307 112.8 126.186 111.931 126.177C111.046 126.143 110.161 126.265 109.318 126.537C108.457 126.8 107.729 127.381 107.28 128.16C106.854 128.974 106.726 129.912 106.92 130.81C107.107 131.728 107.579 132.564 108.27 133.197C108.97 133.844 109.807 134.326 110.718 134.608C111.643 134.913 112.622 135.023 113.592 134.933C114.562 134.842 115.502 134.553 116.356 134.082C116.777 133.835 117.163 133.532 117.504 133.182C117.838 132.831 118.116 132.43 118.328 131.994C118.743 131.12 118.899 130.146 118.778 129.186C118.675 128.24 118.318 127.34 117.745 126.58C117.168 125.842 116.413 125.263 115.549 124.899C114.713 124.533 113.804 124.365 112.892 124.406C111.98 124.447 111.09 124.697 110.29 125.136C108.745 125.987 107.585 127.398 107.05 129.078C106.793 129.882 106.718 130.733 106.83 131.57C106.895 131.976 107.016 132.371 107.19 132.743C107.368 133.107 107.593 133.446 107.86 133.751C108.403 134.333 109.069 134.786 109.811 135.076C110.531 135.361 111.292 135.528 112.064 135.573C113.54 135.663 115.007 135.285 116.255 134.493C116.832 134.14 117.318 133.656 117.673 133.081C118.029 132.505 118.245 131.855 118.303 131.181C118.354 129.944 118.02 128.722 117.349 127.682C116.767 126.743 115.976 125.951 115.038 125.367C114.226 124.853 113.305 124.533 112.349 124.434C111.545 124.358 110.734 124.459 109.973 124.73C108.907 125.09 107.977 125.768 107.309 126.674C107.136 126.908 106.987 127.159 106.862 127.422C106.74 127.588 106.693 127.678 106.693 127.678Z" fill="#FFC20D"/>
<path d="M116.446 137.618C116.479 137.657 113.624 140.098 110.067 143.072C106.51 146.045 103.587 148.418 103.566 148.378C103.544 148.338 106.388 145.898 109.945 142.928C113.502 139.958 116.414 137.578 116.446 137.618Z" fill="#263238"/>
<path d="M117.069 148.06C116.9 147.961 116.739 147.846 116.59 147.718L115.323 146.732C114.261 145.889 112.803 144.716 111.197 143.413C109.592 142.109 108.148 140.921 107.108 140.054L105.88 139.017C105.725 138.898 105.58 138.766 105.448 138.621C105.617 138.722 105.777 138.836 105.927 138.963L107.191 139.949C108.253 140.792 109.711 141.965 111.316 143.269C112.922 144.572 114.365 145.76 115.409 146.628L116.633 147.661C116.788 147.783 116.934 147.917 117.069 148.06Z" fill="#263238"/>
<path d="M146.498 137.758C146.527 137.798 143.798 139.89 140.396 142.438C136.994 144.987 134.215 147 134.183 146.956C134.151 146.913 136.883 144.825 140.285 142.276C143.687 139.728 146.466 137.715 146.498 137.758Z" fill="#263238"/>
<path d="M147.557 146.616C147.532 146.66 144.63 144.863 141.077 142.599C137.524 140.334 134.676 138.47 134.701 138.423C134.727 138.376 137.628 140.18 141.181 142.44C144.735 144.701 147.6 146.573 147.557 146.616Z" fill="#263238"/>
<path d="M116.914 164.101C116.875 164.065 119.712 161.091 123.247 157.466C126.782 153.841 129.68 150.921 129.727 150.957C129.774 150.993 126.93 153.967 123.394 157.596C119.859 161.225 116.95 164.137 116.914 164.101Z" fill="#FFC20D"/>
<path d="M128.905 164.096C128.905 164.096 128.858 164.056 128.786 163.97L128.484 163.61C128.203 163.25 127.829 162.786 127.372 162.217C126.432 161.043 125.1 159.448 123.556 157.753C122.011 156.057 120.546 154.585 119.466 153.541L118.184 152.281L117.824 151.942C117.783 151.905 117.745 151.862 117.713 151.816C117.713 151.816 117.767 151.845 117.85 151.914L118.21 152.227C118.53 152.5 118.984 152.907 119.538 153.418C120.64 154.441 122.123 155.902 123.674 157.602C125.226 159.301 126.554 160.914 127.454 162.109C127.915 162.706 128.279 163.189 128.534 163.549L128.812 163.945C128.849 163.991 128.88 164.042 128.905 164.096Z" fill="#FFC20D"/>
<path d="M99.436 148.955C99.436 148.955 99.5512 157.8 97.3192 163.096L83.7148 160.777C83.7148 160.777 87.8116 152.397 86.6956 147.738L99.436 148.955Z" fill="#EBEBEB"/>
<path d="M99.4322 148.626C99.4322 148.626 97.7258 159.484 96.6818 162.724L83.1602 160.038C83.1602 160.038 85.943 149.54 85.907 146.617L99.4322 148.626Z" fill="#FFC20D"/>
<path d="M87.2793 151.481C87.2793 151.531 89.2881 151.999 91.7901 152.525C94.2921 153.051 96.3261 153.436 96.3369 153.389C96.3477 153.342 94.3281 152.871 91.8261 152.345C89.3241 151.819 87.2901 151.431 87.2793 151.481Z" fill="white"/>
<path d="M86.9336 153.784C86.9336 153.834 88.9424 154.298 91.4444 154.828C93.9464 155.357 95.9804 155.738 95.9912 155.692C96.002 155.645 93.9824 155.173 91.4804 154.648C88.9784 154.122 86.9444 153.722 86.9336 153.784Z" fill="white"/>
<path d="M88.9209 156.387C89.1515 156.487 89.3932 156.559 89.6409 156.603C90.1053 156.714 90.7497 156.862 91.4589 157.013C92.1681 157.164 92.8197 157.287 93.2913 157.373C93.5432 157.436 93.802 157.468 94.0617 157.467C93.8223 157.366 93.5723 157.292 93.3165 157.247C92.8557 157.132 92.2113 156.984 91.4985 156.837C90.7857 156.689 90.1377 156.56 89.6697 156.477C89.4246 156.417 89.1732 156.386 88.9209 156.387Z" fill="white"/>
<path d="M163.801 124.117C163.801 124.117 165.194 132.736 163.783 138.233L150.16 137.941C150.16 137.941 152.947 129.164 151.179 124.776L163.801 124.117Z" fill="#EBEBEB"/>
<path d="M163.739 123.797C163.739 123.797 163.649 134.636 163.098 137.945L149.501 137.3C149.501 137.3 150.693 126.644 150.221 123.797H163.739Z" fill="#455A64"/>
<path d="M152.15 128.618C152.15 128.669 154.195 128.712 156.719 128.715C159.242 128.719 161.291 128.683 161.291 128.633C161.291 128.582 159.246 128.539 156.719 128.535C154.192 128.532 152.15 128.568 152.15 128.618Z" fill="white"/>
<path d="M152.28 130.911C152.28 130.962 154.325 131.005 156.849 131.008C159.372 131.012 161.421 130.976 161.421 130.926C161.421 130.875 159.376 130.832 156.849 130.828C154.321 130.825 152.28 130.861 152.28 130.911Z" fill="white"/>
<path d="M154.718 133.025C154.968 133.079 155.225 133.102 155.481 133.093C155.953 133.093 156.604 133.119 157.324 133.122C158.044 133.126 158.692 133.122 159.164 133.097C159.42 133.107 159.676 133.087 159.927 133.036C159.676 132.982 159.42 132.961 159.164 132.971C158.692 132.953 158.044 132.942 157.324 132.939C156.604 132.935 155.953 132.939 155.481 132.964C155.225 132.954 154.969 132.974 154.718 133.025Z" fill="white"/>
<path d="M166.68 99.2682C164.138 99.2682 161.579 97.6734 160.232 95.1642C158.924 92.6655 158.518 89.7915 159.084 87.0282C159.829 83.4282 162.212 80.4762 165.157 79.533C167.659 78.7302 172.13 79.173 174.24 82.7046C175.245 84.4315 175.744 86.4063 175.68 88.4034C175.671 88.5452 175.633 88.6838 175.57 88.8112C175.507 88.9386 175.42 89.0524 175.313 89.146C175.206 89.2396 175.081 89.3112 174.947 89.3567C174.812 89.4023 174.67 89.4208 174.528 89.4114C174.242 89.3923 173.974 89.2602 173.785 89.0442C173.596 88.8281 173.501 88.5458 173.52 88.2594C173.539 86.7002 173.139 85.1646 172.361 83.8134C170.734 81.0954 167.166 81.1494 165.791 81.5886C163.271 82.395 161.658 85.1202 161.172 87.4638C160.705 89.7327 161.037 92.0932 162.112 94.1454C163.174 96.1254 165.323 97.3566 167.227 97.065C167.508 97.0259 167.794 97.099 168.021 97.2685C168.249 97.438 168.401 97.6903 168.444 97.9709C168.487 98.2514 168.418 98.5376 168.251 98.7676C168.085 98.9976 167.835 99.1528 167.555 99.1998C167.265 99.2447 166.973 99.2675 166.68 99.2682Z" fill="#263238"/>
<path d="M96.956 99.2679C94.4108 99.2679 91.8548 97.6731 90.5084 95.1639C89.1984 92.6656 88.7914 89.7916 89.3564 87.0279C89.9864 83.9895 92.1176 80.4903 95.4764 79.5255C97.0959 79.0868 98.8128 79.1738 100.38 79.7739L99.602 81.7899C98.4744 81.3614 97.2413 81.2947 96.074 81.5991C93.5972 82.3191 91.9844 85.0623 91.4876 87.4635C91.021 89.7324 91.3529 92.0929 92.4272 94.1451C93.4892 96.1287 95.642 97.3563 97.5428 97.0647L97.8704 99.1995C97.5679 99.2462 97.2622 99.2691 96.956 99.2679Z" fill="#263238"/>
<path d="M165.791 88.457L164.798 93.8966H179.417L180.717 88.511L165.791 88.457Z" fill="#FFC20D"/>
<path d="M100.66 98.4079C100.661 98.8682 100.525 99.3183 100.27 99.7013C100.014 100.084 99.6511 100.383 99.226 100.559C98.8009 100.736 98.333 100.782 97.8816 100.693C97.4301 100.603 97.0154 100.381 96.6899 100.056C96.3645 99.7305 96.1429 99.3158 96.0533 98.8644C95.9637 98.4129 96.01 97.945 96.1865 97.5199C96.363 97.0948 96.6616 96.7316 97.0446 96.4764C97.4276 96.2211 97.8777 96.0852 98.338 96.0859C98.9535 96.0869 99.5436 96.3318 99.9788 96.7671C100.414 97.2023 100.659 97.7924 100.66 98.4079Z" fill="#263238"/>
<path d="M170.324 98.4079C170.325 98.8682 170.189 99.3183 169.934 99.7013C169.678 100.084 169.315 100.383 168.89 100.559C168.465 100.736 167.997 100.782 167.546 100.693C167.094 100.603 166.679 100.381 166.354 100.056C166.029 99.7305 165.807 99.3158 165.717 98.8644C165.628 98.4129 165.674 97.945 165.851 97.5199C166.027 97.0948 166.326 96.7316 166.709 96.4764C167.092 96.2211 167.542 96.0852 168.002 96.0859C168.618 96.0869 169.208 96.3318 169.643 96.7671C170.078 97.2023 170.323 97.7924 170.324 98.4079Z" fill="#263238"/>
<path d="M131.958 53.3945L128.135 67.8953L114.938 69.3137V71.6537L133.481 72.3053L136.966 56.0369L131.958 53.3945Z" fill="#FFBE9D"/>
<path d="M137.52 72.6907C137.52 72.6907 116.899 71.7079 111.028 76.2907C105.156 80.8735 108 88.3975 108 88.3975L141.185 88.3111L144.115 71.4883L137.52 72.6907Z" fill="#263238"/>
<path d="M141.03 83.7901C140.93 83.7926 140.83 83.7854 140.731 83.7685C140.537 83.7469 140.253 83.7181 139.885 83.6713C139.165 83.5813 138.085 83.4301 136.789 83.2105C133.387 82.6318 130.021 81.854 126.709 80.8813C124.773 80.3089 122.94 79.7329 121.248 79.3117C119.755 78.9251 118.227 78.684 116.687 78.5917C115.648 78.5335 114.606 78.5939 113.58 78.7717C113.22 78.8149 112.943 78.9085 112.749 78.9409C112.653 78.9646 112.555 78.9826 112.457 78.9949C112.549 78.9555 112.644 78.9253 112.741 78.9049C113.012 78.8206 113.287 78.752 113.566 78.6997C114.594 78.492 115.643 78.411 116.691 78.4585C118.253 78.5329 119.804 78.7632 121.32 79.1461C123.023 79.5565 124.859 80.1325 126.789 80.7049C130.082 81.6693 133.424 82.4611 136.8 83.0773C138.1 83.3149 139.155 83.4841 139.885 83.5993L140.728 83.7325C140.83 83.7432 140.931 83.7625 141.03 83.7901Z" fill="#455A64"/>
<path d="M121.864 79.1997C121.291 78.7273 120.68 78.3023 120.039 77.9289C119.366 77.6142 118.669 77.3541 117.954 77.1513C118.176 77.132 118.399 77.154 118.613 77.2161C119.139 77.3294 119.648 77.5135 120.125 77.7633C120.601 78.0145 121.042 78.3281 121.435 78.6957C121.608 78.8358 121.753 79.0067 121.864 79.1997Z" fill="#455A64"/>
<path d="M139.705 117.516L139.982 126.181L138.24 133.1C138.212 133.219 138.208 133.342 138.23 133.462C138.251 133.581 138.297 133.696 138.365 133.797C138.432 133.898 138.52 133.985 138.622 134.051C138.725 134.117 138.84 134.161 138.96 134.18C139.099 134.205 139.242 134.197 139.378 134.156C139.513 134.114 139.636 134.041 139.738 133.942C141.048 132.661 145.858 127.923 145.796 127.293C145.732 126.573 146.11 118.128 146.11 118.128L139.705 117.516Z" fill="#FFC20D"/>
<g opacity="0.6">
<path d="M138.928 134.192L145.768 126.719V127.079C145.772 127.397 145.662 127.706 145.458 127.95C144.915 128.602 143.37 130.369 139.738 133.948C139.634 134.05 139.506 134.126 139.366 134.167C139.226 134.209 139.078 134.215 138.935 134.185L138.928 134.192Z" fill="white"/>
</g>
<g opacity="0.6">
<path d="M143.954 123.936C143.844 124.017 143.768 124.135 143.742 124.269C143.716 124.402 143.742 124.541 143.813 124.656C143.889 124.764 144.003 124.839 144.132 124.866C144.261 124.893 144.396 124.869 144.508 124.8C144.621 124.717 144.698 124.594 144.725 124.456C144.752 124.318 144.726 124.175 144.652 124.055C144.562 123.95 144.435 123.883 144.298 123.87C144.16 123.856 144.022 123.897 143.914 123.983" fill="white"/>
</g>
<path d="M140.876 130.385C140.826 130.41 140.624 129.96 140.109 129.719C139.791 129.594 139.451 129.533 139.108 129.539C139.108 129.517 139.209 129.449 139.411 129.417C139.678 129.384 139.949 129.429 140.191 129.546C140.434 129.662 140.638 129.846 140.779 130.075C140.88 130.252 140.894 130.378 140.876 130.385Z" fill="#263238"/>
<path d="M140.267 131.554C140.018 131.418 139.761 131.298 139.497 131.194C139.216 131.144 138.932 131.111 138.647 131.093C138.78 131.008 138.931 130.956 139.087 130.942C139.244 130.927 139.402 130.951 139.547 131.01C140.059 131.147 140.311 131.529 140.267 131.554Z" fill="#263238"/>
<path d="M142.009 128.882C141.641 128.64 141.256 128.424 140.857 128.238C140.436 128.109 140.005 128.013 139.568 127.95C140.022 127.855 140.493 127.892 140.926 128.057C141.358 128.223 141.735 128.509 142.009 128.882Z" fill="#263238"/>
<path d="M142.146 126.245C142.125 126.299 141.642 126.101 141.019 126.087C140.397 126.072 139.903 126.224 139.882 126.17C140.231 125.977 140.626 125.882 141.024 125.896C141.423 125.909 141.811 126.03 142.146 126.245Z" fill="#263238"/>
<path d="M142.128 123.698C141.749 123.579 141.355 123.512 140.958 123.5C140.565 123.546 140.179 123.647 139.813 123.799C139.813 123.781 139.893 123.669 140.091 123.554C140.356 123.405 140.652 123.32 140.956 123.306C141.26 123.293 141.563 123.352 141.84 123.479C142.038 123.576 142.143 123.677 142.128 123.698Z" fill="#263238"/>
<path d="M140.969 123.018C140.947 122.91 140.947 122.798 140.969 122.69C140.996 122.389 141.083 122.097 141.225 121.83C141.309 121.624 141.46 121.453 141.653 121.344C141.72 121.314 141.795 121.305 141.867 121.319C141.939 121.332 142.005 121.367 142.057 121.42C142.149 121.528 142.199 121.666 142.197 121.808C142.18 122.098 142.063 122.374 141.866 122.588C141.67 122.802 141.405 122.941 141.117 122.982C140.83 123.014 140.54 122.96 140.283 122.826C140.027 122.693 139.816 122.487 139.677 122.233C139.642 122.169 139.621 122.098 139.616 122.026C139.611 121.953 139.622 121.88 139.648 121.812C139.682 121.747 139.734 121.695 139.799 121.661C139.863 121.627 139.936 121.613 140.008 121.621C140.222 121.667 140.421 121.767 140.584 121.913C140.821 122.1 141.023 122.326 141.182 122.582C141.245 122.673 141.292 122.774 141.319 122.881C141.09 122.556 140.814 122.266 140.501 122.021C140.355 121.901 140.182 121.818 139.997 121.78C139.957 121.773 139.916 121.779 139.88 121.797C139.844 121.815 139.814 121.844 139.796 121.88C139.783 121.927 139.78 121.975 139.786 122.023C139.792 122.07 139.808 122.116 139.832 122.158C139.958 122.372 140.143 122.546 140.365 122.658C140.587 122.77 140.837 122.817 141.085 122.791C141.33 122.76 141.557 122.645 141.729 122.466C141.9 122.287 142.004 122.055 142.024 121.808C142.029 121.71 141.998 121.613 141.938 121.535C141.911 121.504 141.874 121.483 141.834 121.474C141.794 121.466 141.752 121.471 141.715 121.488C141.557 121.584 141.431 121.726 141.355 121.895C141.163 122.244 141.033 122.624 140.969 123.018Z" fill="#263238"/>
<path d="M144.098 71.4899C144.098 71.4899 135.181 88.3487 135.058 91.2899C134.936 94.2311 135.058 121.343 135.058 121.343H148.861C149.221 121.343 151.291 109.128 150.87 106.316C150.448 103.505 148.962 88.3919 148.962 88.3919H156.903C156.903 88.3919 159.081 86.0627 159.002 83.1071C158.955 81.4763 157.89 78.1427 156.842 76.3751C156.162 75.2411 151.802 69.3047 151.802 69.3047L144.098 71.4899Z" fill="#263238"/>
<path d="M143.5 72.6293C143.491 72.663 143.477 72.6956 143.461 72.7265C143.428 72.7985 143.385 72.8885 143.331 73.0001L142.813 74.0513C142.579 74.5085 142.301 75.0629 141.977 75.7073L141.459 76.7405L140.915 77.9177L138.241 83.7101C137.733 84.7901 137.2 85.9457 136.646 87.1301L135.807 88.9301C135.536 89.5525 135.331 90.2017 135.195 90.8669C135.058 91.5339 134.987 92.2128 134.983 92.8937C134.961 93.5669 134.947 94.2329 134.936 94.8845C134.936 96.1949 134.911 97.4549 134.914 98.6573C134.914 101.062 134.943 103.229 134.968 105.047C134.993 106.865 135.015 108.323 135.033 109.367C135.033 109.864 135.033 110.256 135.033 110.537C135.033 110.663 135.033 110.764 135.033 110.843C135.033 110.922 135.033 110.948 135.033 110.948C135.027 110.913 135.027 110.878 135.033 110.843C135.033 110.764 135.033 110.663 135.033 110.541C135.033 110.256 135.004 109.868 134.983 109.367C134.947 108.352 134.9 106.88 134.86 105.047C134.821 103.215 134.777 101.066 134.767 98.6573C134.767 97.4549 134.767 96.1913 134.767 94.8845C134.767 94.2293 134.788 93.5633 134.813 92.8865C134.817 92.1948 134.888 91.5051 135.026 90.8273C135.165 90.1496 135.375 89.4884 135.652 88.8545L136.495 87.0545L138.1 83.6417L140.829 77.8637L141.383 76.6901C141.574 76.3301 141.743 75.9701 141.916 75.6641L142.777 74.0225C143.011 73.5797 143.198 73.2341 143.327 72.9857C143.389 72.8777 143.439 72.7913 143.475 72.7193C143.511 72.6473 143.497 72.6257 143.5 72.6293Z" fill="#455A64"/>
<path d="M140.613 78.3733C140.327 77.688 140.086 76.9844 139.893 76.2673C139.64 75.5691 139.435 74.8547 139.277 74.1289C139.613 74.7943 139.878 75.4929 140.069 76.2133C140.324 76.9127 140.506 77.6366 140.613 78.3733Z" fill="#455A64"/>
<path d="M150.898 105.788C150.875 105.726 150.86 105.662 150.855 105.597C150.838 105.451 150.813 105.267 150.779 105.046C150.714 104.539 150.631 103.847 150.527 103.009C150.329 101.266 150.063 98.9009 149.767 96.2873C149.472 93.6737 149.231 91.2797 149.083 89.5553C149.015 88.7129 148.957 88.0217 148.914 87.5141C148.914 87.2873 148.885 87.1037 148.875 86.9561C148.87 86.8914 148.87 86.8264 148.875 86.7617C148.897 86.823 148.911 86.8873 148.914 86.9525C148.932 87.1001 148.957 87.2837 148.986 87.5069C149.044 88.0145 149.123 88.7021 149.217 89.5445C149.407 91.2869 149.667 93.6557 149.937 96.2693C150.207 98.8829 150.462 101.248 150.657 102.994C150.736 103.837 150.804 104.528 150.851 105.035C150.869 105.259 150.883 105.446 150.894 105.593C150.901 105.658 150.902 105.723 150.898 105.788Z" fill="#455A64"/>
<path d="M147.391 26.3381C147.179 24.8981 148.413 23.5121 149.839 23.3429C151.265 23.1737 152.701 24.0629 153.356 25.3625C153.661 26.0161 153.828 26.7255 153.847 27.4464C153.865 28.1674 153.735 28.8845 153.464 29.5529C153.104 30.4637 152.438 31.3853 151.47 31.4573C150.501 31.5293 149.76 30.7913 149.119 30.1109" fill="#263238"/>
<path d="M137.258 33.4812C134.378 27.1704 141.218 23.9988 144.937 25.05C148.436 26.04 149.93 27.7824 150.506 30.1224C151.137 32.47 151.011 34.9569 150.146 37.2288C149.692 38.3304 148.879 39.4464 147.698 39.5832" fill="#263238"/>
<path d="M147.169 28.5516C147.465 28.5823 147.739 28.7235 147.935 28.947C148.132 29.1705 148.238 29.4599 148.231 29.7576L147.557 45.8208C147.532 47.718 144.764 48.7908 142.73 48.7476C140.681 48.7044 140.613 47.6964 140.57 45.8928C140.523 42.8796 140.523 41.7456 140.523 41.7636C140.523 41.7816 137.931 41.3316 137.395 37.9512C137.125 36.27 137.211 33.5124 137.351 31.2588C137.481 29.232 138.824 26.7408 140.847 26.9388L147.169 28.5516Z" fill="#FFBE9D"/>
<path d="M138.676 33.1808C138.674 33.2942 138.717 33.4038 138.795 33.4859C138.873 33.5681 138.98 33.6163 139.093 33.62C139.149 33.6244 139.204 33.6177 139.257 33.6002C139.309 33.5827 139.358 33.5549 139.4 33.5183C139.441 33.4817 139.475 33.4371 139.499 33.3872C139.523 33.3372 139.537 33.283 139.54 33.2276C139.541 33.1145 139.498 33.0055 139.42 32.9235C139.342 32.8415 139.235 32.7931 139.122 32.7884C139.067 32.784 139.011 32.7907 138.959 32.8082C138.906 32.8257 138.858 32.8536 138.816 32.8902C138.774 32.9268 138.741 32.9713 138.716 33.0213C138.692 33.0712 138.679 33.1255 138.676 33.1808Z" fill="#263238"/>
<path d="M137.959 32.6955C138.013 32.7495 138.345 32.5083 138.809 32.5083C139.273 32.5083 139.619 32.7423 139.669 32.6847C139.72 32.6271 139.641 32.5587 139.489 32.4507C139.287 32.3112 139.047 32.237 138.802 32.2383C138.559 32.236 138.323 32.3131 138.129 32.4579C137.985 32.5659 137.934 32.6703 137.959 32.6955Z" fill="#263238"/>
<path d="M143.237 33.1819C143.236 33.2926 143.277 33.3997 143.352 33.4813C143.427 33.5629 143.53 33.6128 143.641 33.6211C143.696 33.6255 143.751 33.6187 143.804 33.6013C143.857 33.5838 143.905 33.5559 143.947 33.5193C143.988 33.4827 144.022 33.4382 144.046 33.3882C144.07 33.3383 144.084 33.284 144.087 33.2287C144.088 33.1156 144.045 33.0065 143.967 32.9245C143.889 32.8426 143.782 32.7941 143.669 32.7895C143.56 32.7846 143.453 32.8231 143.372 32.8966C143.291 32.9701 143.243 33.0727 143.237 33.1819Z" fill="#263238"/>
<path d="M142.56 32.7815C142.614 32.8355 142.942 32.5943 143.406 32.5943C143.87 32.5943 144.216 32.8283 144.266 32.7743C144.317 32.7203 144.238 32.6447 144.086 32.5367C143.885 32.3965 143.645 32.3223 143.399 32.3243C143.157 32.3242 142.921 32.4011 142.726 32.5439C142.56 32.6519 142.52 32.7599 142.56 32.7815Z" fill="#263238"/>
<path d="M140.854 36.2412C140.609 36.1655 140.355 36.1196 140.098 36.1044C139.979 36.1044 139.864 36.0684 139.846 35.9892C139.835 35.8639 139.863 35.7382 139.925 35.6292C140.037 35.3412 140.152 35.0388 140.285 34.722C140.612 33.9534 140.876 33.1601 141.077 32.3496C140.687 33.0895 140.359 33.8601 140.095 34.6536L139.756 35.568C139.682 35.7121 139.66 35.8776 139.695 36.036C139.713 36.0779 139.74 36.1151 139.774 36.145C139.808 36.175 139.849 36.1968 139.893 36.2088C139.959 36.2262 140.026 36.2359 140.095 36.2376C140.347 36.2702 140.602 36.2714 140.854 36.2412Z" fill="#263238"/>
<path d="M140.533 41.7607C142.132 41.7898 143.706 41.3721 145.08 40.5547C145.08 40.5547 143.978 42.8803 140.594 42.5635L140.533 41.7607Z" fill="#EB996E"/>
<path d="M141.052 37.3658C141.141 37.2549 141.257 37.1683 141.388 37.1142C141.52 37.06 141.663 37.0401 141.805 37.0562C141.908 37.0649 142.009 37.0946 142.1 37.1435C142.192 37.1924 142.273 37.2595 142.337 37.3406C142.399 37.4183 142.436 37.513 142.442 37.6122C142.449 37.7113 142.425 37.81 142.373 37.895C142.299 37.9792 142.2 38.0389 142.091 38.0665C141.982 38.0941 141.867 38.0883 141.761 38.0498C141.54 37.9718 141.336 37.8493 141.164 37.6898C141.111 37.6526 141.066 37.6063 141.031 37.553C141.014 37.5273 141.005 37.4973 141.005 37.4666C141.005 37.4359 141.014 37.4059 141.031 37.3802" fill="#EB996E"/>
<path d="M142.229 36.5665C142.153 36.5665 142.15 37.0669 141.718 37.4269C141.286 37.7869 140.746 37.7293 140.742 37.7869C140.739 37.8445 140.861 37.8841 141.102 37.8913C141.399 37.8947 141.689 37.7941 141.919 37.6069C142.139 37.4265 142.281 37.1687 142.315 36.8869C142.319 36.6889 142.261 36.5629 142.229 36.5665Z" fill="#263238"/>
<path d="M142.337 31.9651C142.384 32.0911 142.852 32.0299 143.399 32.0983C143.946 32.1667 144.389 32.3107 144.461 32.1991C144.493 32.1451 144.414 32.0263 144.238 31.9003C144 31.7478 143.73 31.654 143.449 31.6267C143.17 31.5918 142.886 31.6252 142.621 31.7239C142.42 31.8031 142.319 31.9039 142.337 31.9651Z" fill="#263238"/>
<path d="M138.133 31.3415C138.216 31.4495 138.536 31.3415 138.925 31.3415C139.314 31.3415 139.645 31.4135 139.713 31.3019C139.746 31.2479 139.713 31.1399 139.551 31.0427C139.361 30.918 139.137 30.8563 138.91 30.8663C138.684 30.871 138.464 30.9451 138.28 31.0787C138.144 31.1831 138.097 31.2911 138.133 31.3415Z" fill="#263238"/>
<path d="M142.536 25.8304C141.388 25.8889 140.274 26.2356 139.296 26.8384C138.747 27.1226 138.26 27.5121 137.862 27.9847C137.465 28.4572 137.164 29.0035 136.977 29.5924C136.93 29.7148 136.908 29.8457 136.913 29.9769C136.918 30.1082 136.949 30.237 137.006 30.3556C137.113 30.4911 137.264 30.5851 137.433 30.6213C137.602 30.6574 137.778 30.6335 137.931 30.5536C138.236 30.3876 138.496 30.149 138.687 29.8588C138.763 30.1761 138.945 30.4583 139.202 30.6589C139.46 30.8595 139.778 30.9667 140.104 30.9629C140.43 30.9592 140.746 30.8446 140.999 30.6381C141.251 30.4316 141.426 30.1454 141.495 29.8264C141.521 30.1507 141.671 30.4526 141.913 30.6692C142.156 30.8858 142.473 31.0004 142.798 30.9892C143.123 30.9611 143.432 30.8388 143.688 30.6373C143.944 30.4358 144.135 30.164 144.238 29.8552C144.318 30.4405 144.52 31.0025 144.832 31.504C144.992 31.7529 145.225 31.9465 145.498 32.0586C145.772 32.1707 146.074 32.1957 146.362 32.1304C146.241 32.6281 146.249 33.1483 146.384 33.6424C146.564 34.1176 147.28 42.25 147.763 42.0844C148.245 41.9188 148.227 33.6244 148.335 33.142C148.575 32.2166 148.696 31.2646 148.695 30.3088C148.727 29.3241 148.408 28.36 147.795 27.5891C147.181 26.8181 146.314 26.2904 145.347 26.1004C144.382 25.879 143.392 25.7882 142.402 25.8304" fill="#263238"/>
<path d="M149.31 40.6408C149.31 40.6408 149.278 40.6624 149.206 40.6876C149.104 40.7247 148.999 40.7501 148.892 40.7632C148.392 40.8268 147.883 40.7469 147.426 40.5327C146.969 40.3186 146.583 39.979 146.311 39.5536C145.943 38.9128 145.788 38.1715 145.868 37.4368C145.922 36.6628 146.102 35.9572 146.185 35.3092C146.267 34.734 146.317 34.1547 146.336 33.574C146.336 33.0772 146.336 32.6776 146.336 32.3968C146.321 32.2533 146.321 32.1084 146.336 31.9648C146.379 32.1064 146.405 32.2527 146.412 32.4004C146.451 32.794 146.471 33.1893 146.47 33.5848C146.469 34.171 146.432 34.7565 146.358 35.338C146.279 36.0004 146.11 36.7096 146.056 37.4548C145.979 38.1524 146.119 38.8566 146.459 39.4708C146.755 39.9599 147.21 40.3323 147.748 40.5256C148.109 40.6635 148.496 40.7224 148.882 40.6984C149.159 40.6804 149.306 40.6228 149.31 40.6408Z" fill="#263238"/>
<path d="M141.343 25.3945C141.474 25.641 141.535 25.9186 141.52 26.1973C141.532 26.8795 141.274 27.5389 140.802 28.0313C140.33 28.5238 139.682 28.8093 139 28.8253C138.723 28.8519 138.444 28.8021 138.193 28.6813C138.193 28.6489 138.503 28.7353 138.993 28.6813C139.632 28.6379 140.233 28.3581 140.678 27.8964C141.123 27.4347 141.381 26.8239 141.401 26.1829C141.412 25.7041 141.311 25.4017 141.343 25.3945Z" fill="#455A64"/>
<path d="M141.84 29.3757C141.858 29.3757 141.815 29.6061 141.556 29.8581C141.384 30.0129 141.182 30.1312 140.963 30.2061C140.744 30.281 140.512 30.3108 140.282 30.2937C139.829 30.2534 139.393 30.1039 139.011 29.8581C138.719 29.6745 138.561 29.5341 138.575 29.4981C138.749 29.553 138.916 29.6292 139.072 29.7249C139.452 29.9224 139.866 30.0446 140.292 30.0849C140.715 30.1099 141.133 29.9821 141.47 29.7249C141.732 29.5593 141.819 29.3613 141.84 29.3757Z" fill="#455A64"/>
<path d="M149.994 28.3438C150.018 28.6537 149.996 28.9654 149.929 29.2689C149.827 30.0209 149.543 30.7365 149.101 31.3533C148.871 31.6592 148.58 31.9148 148.247 32.1042C147.914 32.2936 147.545 32.413 147.165 32.4549C146.933 32.4758 146.7 32.4526 146.477 32.3865C146.322 32.3397 146.247 32.2929 146.25 32.2821C146.547 32.3353 146.85 32.3486 147.15 32.3217C147.866 32.2055 148.511 31.8189 148.95 31.2417C149.372 30.6453 149.66 29.9651 149.796 29.2473C149.843 28.9424 149.91 28.6406 149.994 28.3438Z" fill="#455A64"/>
<path d="M150.614 29.9805C150.647 30.073 150.665 30.1702 150.668 30.2685C150.692 30.5305 150.698 30.794 150.686 31.0569C150.667 31.9427 150.35 32.7963 149.786 33.4797C149.467 33.8554 149.053 34.1378 148.587 34.2969C148.205 34.4219 147.797 34.4467 147.402 34.3689C147.138 34.3183 146.886 34.2128 146.664 34.0593C146.513 33.9477 146.448 33.8649 146.456 33.8577C146.751 34.0456 147.08 34.1751 147.424 34.2393C147.795 34.2926 148.174 34.2569 148.529 34.1349C148.962 33.9753 149.346 33.7076 149.645 33.3573C150.18 32.6992 150.498 31.892 150.556 31.0461C150.614 30.3945 150.581 29.9841 150.614 29.9805Z" fill="#455A64"/>
<path d="M103.162 73.4938L96.6279 88.4374H105.624L112.032 73.375L103.162 73.4938Z" fill="#455A64"/>
<path d="M98.4099 57.6009L105.779 72.0945H129.021L128.081 70.2009L121.349 69.9993L115.859 57.7809C115.692 57.4087 115.421 57.0927 115.079 56.871C114.737 56.6493 114.337 56.5315 113.93 56.5317H99.0651C98.9377 56.5271 98.8112 56.5565 98.6988 56.6169C98.5864 56.6772 98.4921 56.7663 98.4254 56.8751C98.3588 56.9838 98.3222 57.1083 98.3195 57.2359C98.3168 57.3634 98.348 57.4894 98.4099 57.6009Z" fill="#E0E0E0"/>
<path d="M110.049 64.1001C110.049 64.276 109.997 64.4479 109.899 64.5941C109.801 64.7404 109.662 64.8544 109.5 64.9217C109.338 64.989 109.159 65.0066 108.986 64.9722C108.814 64.9379 108.655 64.8533 108.531 64.7289C108.407 64.6045 108.322 64.4461 108.288 64.2736C108.253 64.1011 108.271 63.9223 108.338 63.7599C108.405 63.5974 108.519 63.4585 108.666 63.3608C108.812 63.2631 108.984 63.2109 109.16 63.2109C109.395 63.2119 109.621 63.3059 109.787 63.4724C109.954 63.639 110.048 63.8646 110.049 64.1001Z" fill="#263238"/>
<path d="M131.497 72.1211H103.086V73.5071H131.497V72.1211Z" fill="#455A64"/>
<path d="M122.746 72.8164L131.39 88.4512H135.523L136.423 86.662L137.25 84.7792L131.498 73.5076L122.746 72.8164Z" fill="#455A64"/>
<path d="M137.765 46.0117C137.765 46.0117 132.747 47.7793 131.667 53.3953L136.966 56.0377L137.765 46.0117Z" fill="#FFC20D"/>
<path d="M137.765 46.0127C137.765 46.0127 134.255 53.8823 134.388 58.1807C134.435 59.6747 135.414 63.5807 135.414 63.5807L137.24 73.2503C137.24 73.2503 151.211 71.3603 151.521 71.3603C151.83 71.3603 151.053 63.4223 151.053 63.4223L153.332 48.1691C153.332 48.1691 152.288 46.0919 147.572 45.3719C144.746 44.9291 137.765 46.0127 137.765 46.0127Z" fill="#FFC20D"/>
<path d="M136.44 50.5801C136.473 50.5981 136.105 51.1849 135.663 52.2001C135.406 52.7945 135.189 53.4055 135.015 54.0289C134.804 54.7928 134.652 55.5714 134.557 56.3581C134.475 57.146 134.449 57.9389 134.482 58.7305C134.515 59.3768 134.59 60.0202 134.709 60.6565C134.91 61.7365 135.141 62.3989 135.105 62.4097C135.029 62.2663 134.969 62.1155 134.925 61.9597C134.86 61.7814 134.805 61.5999 134.759 61.4161C134.701 61.2001 134.626 60.9589 134.575 60.6961C134.44 60.0553 134.351 59.4056 134.309 58.7521C134.266 57.9501 134.286 57.146 134.37 56.3473C134.466 55.5497 134.626 54.7611 134.849 53.9893C135.034 53.3618 135.266 52.7493 135.544 52.1569C135.645 51.9268 135.758 51.7021 135.882 51.4837C135.968 51.3144 136.063 51.1498 136.167 50.9905C136.244 50.8448 136.335 50.7072 136.44 50.5801Z" fill="#263238"/>
<path d="M139.464 45.9401L139.665 43.7801C139.688 43.5556 139.792 43.3471 139.958 43.1944C140.124 43.0417 140.34 42.9555 140.565 42.9521L147.459 42.8477C147.669 42.8452 147.871 42.9223 148.025 43.0634C148.18 43.2044 148.275 43.3988 148.291 43.6073L148.467 45.9365C147.89 47.1598 146.914 48.1501 145.699 48.7445C143.672 49.7273 140.522 49.7597 140.522 49.7597L139.464 45.9401Z" fill="#FFC20D"/>
<path d="M141.268 42.9708C141.29 42.9708 141.189 43.1112 141.146 43.3308C141.107 43.6489 141.107 43.9704 141.146 44.2884C141.206 44.7521 141.206 45.2216 141.146 45.6852C141.022 45.2336 140.959 44.7675 140.958 44.2992C140.91 43.9659 140.925 43.6264 141.002 43.2984C141.12 43.05 141.257 42.9528 141.268 42.9708Z" fill="#263238"/>
<path d="M142.92 45.6416C142.8 45.2006 142.742 44.745 142.748 44.288C142.721 43.9645 142.721 43.6394 142.748 43.316C142.784 43.0568 142.888 42.9236 142.91 42.956C142.931 42.9884 142.877 43.1072 142.881 43.3448C142.884 43.5824 142.92 43.9208 142.92 44.2808C142.981 44.7323 142.981 45.19 142.92 45.6416Z" fill="#263238"/>
<path d="M144.99 45.5838C144.841 45.1637 144.75 44.7253 144.72 44.2806C144.631 43.8401 144.603 43.3895 144.637 42.9414C144.788 43.3648 144.878 43.807 144.907 44.2554C144.995 44.6924 145.023 45.1393 144.99 45.5838Z" fill="#263238"/>
<path d="M146.776 45.721C146.612 45.2583 146.524 44.7719 146.517 44.281C146.448 43.7916 146.46 43.2941 146.553 42.8086C146.647 43.283 146.698 43.765 146.704 44.2486C146.774 44.7361 146.798 45.229 146.776 45.721Z" fill="#263238"/>
<g opacity="0.3">
<path d="M148.144 53.9688C147.867 56.3915 148.051 60.5675 148.907 62.8535L152.932 56.2043L148.144 53.9688Z" fill="black"/>
</g>
<path d="M152.957 47.668L152.979 47.6896C154.12 48.8876 154.955 50.3437 155.413 51.934L156.154 55.3144L148.234 56.5384C147.798 55.1045 147.695 53.5902 147.932 52.1104C148.321 49.5616 152.957 47.668 152.957 47.668Z" fill="#FFC20D"/>
<path d="M156.153 55.3143C156.102 55.3324 156.049 55.3457 155.995 55.3539L155.541 55.4367L153.846 55.7139L148.107 56.5851H148.007V56.4807C147.989 56.0019 147.974 55.5051 147.963 54.9939C147.945 53.6655 147.963 52.3947 148.043 51.2391C148.098 50.2035 148.415 49.1989 148.964 48.3195C149.334 47.728 149.84 47.2341 150.44 46.8795C150.602 46.7832 150.773 46.7036 150.951 46.6419C151.011 46.6146 151.074 46.5964 151.139 46.5879C151.139 46.5879 150.887 46.6851 150.476 46.9479C149.905 47.3139 149.426 47.8066 149.076 48.3879C148.554 49.2618 148.258 50.2513 148.212 51.2679C148.129 52.4127 148.133 53.6799 148.154 55.0083C148.154 55.5123 148.179 56.0127 148.19 56.4879L148.086 56.3979L153.846 55.5879L155.549 55.3683L156.009 55.3143C156.057 55.3081 156.106 55.3081 156.153 55.3143Z" fill="#263238"/>
<path d="M139.425 50.3507C139.021 50.116 138.651 49.8291 138.323 49.4975C137.953 49.2121 137.624 48.8779 137.344 48.5039C138.117 49.0239 138.816 49.645 139.425 50.3507Z" fill="#FAFAFA"/>
<path d="M138.355 54.5156C138.073 54.8057 137.746 55.0487 137.387 55.2356C137.057 55.4745 136.693 55.6615 136.307 55.79C136.918 55.2649 137.606 54.8374 138.348 54.5228L138.355 54.5156Z" fill="#FAFAFA"/>
<path d="M142.773 55.5399C142.709 55.0283 142.709 54.5107 142.773 53.9991C142.775 53.4847 142.838 52.9724 142.96 52.4727C143.023 52.9831 143.023 53.4994 142.96 54.0099C142.959 54.5255 142.896 55.0391 142.773 55.5399Z" fill="#FAFAFA"/>
<path d="M147.068 59.7069C146.71 59.3706 146.375 59.0097 146.067 58.6269C145.713 58.2896 145.382 57.9288 145.077 57.5469C145.509 57.7976 145.891 58.1259 146.204 58.5153C146.56 58.8582 146.853 59.2617 147.068 59.7069Z" fill="#FAFAFA"/>
<path d="M147.672 50.998C147.363 51.3194 147.01 51.5957 146.624 51.8188C146.271 52.091 145.882 52.3138 145.469 52.4812C145.779 52.1593 146.132 51.8829 146.52 51.6604C146.873 51.3898 147.26 51.167 147.672 50.998Z" fill="#FAFAFA"/>
<path d="M143.792 47.8477C143.45 48.18 143.065 48.4646 142.647 48.6937C142.264 48.9774 141.845 49.2098 141.401 49.3849C141.743 49.0519 142.128 48.7662 142.546 48.5353C142.931 48.255 143.35 48.024 143.792 47.8477Z" fill="#FAFAFA"/>
<path d="M147.291 49.1004C147.055 48.7519 146.871 48.3712 146.744 47.97C146.567 47.5885 146.445 47.1836 146.384 46.7676C146.623 47.1157 146.807 47.4981 146.931 47.9016C147.11 48.2809 147.232 48.685 147.291 49.1004Z" fill="#FAFAFA"/>
<path d="M152.104 50.6814C151.528 50.2822 151.029 49.7836 150.628 49.209C150.933 49.3833 151.205 49.6099 151.431 49.8786C151.702 50.1032 151.93 50.3752 152.104 50.6814Z" fill="#FAFAFA"/>
<path d="M150.12 54.1909C150.006 53.8353 149.953 53.4626 149.965 53.0893C149.911 52.7206 149.922 52.3454 149.998 51.9805C150.163 52.7051 150.204 53.4524 150.12 54.1909Z" fill="#FAFAFA"/>
<path d="M154.12 53.4639C153.701 53.5307 153.273 53.516 152.86 53.4207C152.438 53.3862 152.026 53.2727 151.646 53.0859C152.065 53.0903 152.481 53.141 152.888 53.2371C153.306 53.2687 153.719 53.3447 154.12 53.4639Z" fill="#FAFAFA"/>
<path d="M137.992 60.7189C137.699 60.3125 137.457 59.8711 137.272 59.4049C137.031 58.965 136.845 58.4971 136.718 58.0117C137.011 58.4182 137.253 58.8596 137.438 59.3257C137.68 59.7653 137.866 60.2333 137.992 60.7189Z" fill="#FAFAFA"/>
<path d="M143.28 66.3982C142.942 66.0908 142.648 65.7383 142.406 65.3506C142.116 64.997 141.874 64.6073 141.686 64.1914C142.025 64.4991 142.32 64.8515 142.564 65.239C142.854 65.5909 143.096 65.9809 143.28 66.3982Z" fill="#FAFAFA"/>
<path d="M147.651 64.0156C147.281 64.2572 146.878 64.4462 146.456 64.5772C146.056 64.7662 145.63 64.8959 145.192 64.9624C145.962 64.5307 146.79 64.2119 147.651 64.0156Z" fill="#FAFAFA"/>
<path d="M136.883 68.6156C137.056 67.9364 137.347 67.293 137.743 66.7148C137.682 67.0634 137.56 67.3985 137.383 67.7048C137.271 68.0355 137.102 68.3438 136.883 68.6156Z" fill="#FAFAFA"/>
<path d="M133.495 52.3481C133.287 52.0844 133.162 51.7649 133.135 51.4301C133.05 51.1056 133.065 50.7631 133.178 50.4473C133.253 50.7596 133.301 51.0774 133.322 51.3977C133.406 51.7093 133.463 52.0271 133.495 52.3481Z" fill="#FAFAFA"/>
<path d="M139.511 64.9738C139.127 64.8726 138.762 64.7084 138.431 64.4878C138.073 64.325 137.742 64.1063 137.452 63.8398C137.836 63.9428 138.201 64.1069 138.532 64.3258C138.889 64.4913 139.219 64.7098 139.511 64.9738Z" fill="#FAFAFA"/>
<path d="M142.985 58.9766C142.394 59.6836 141.709 60.3051 140.947 60.8234C141.22 60.4507 141.543 60.1165 141.905 59.8298C142.224 59.4975 142.588 59.2104 142.985 58.9766Z" fill="#FAFAFA"/>
<g opacity="0.3">
<path d="M140.857 58.8633C141.032 60.1182 141.592 61.288 142.459 62.2113C143.359 63.0897 144.753 63.5325 145.923 63.0753C146.05 63.0401 146.168 62.9746 146.265 62.8844C146.362 62.7941 146.436 62.6818 146.481 62.5569C146.5 62.4034 146.466 62.2477 146.384 62.1164C146.302 61.9852 146.177 61.8864 146.031 61.8369C145.739 61.7431 145.433 61.6993 145.127 61.7073C144.254 61.65 143.41 61.3706 142.676 60.8955C141.941 60.4204 141.34 59.7655 140.929 58.9929" fill="black"/>
</g>
<path d="M145.538 61.7658C145.538 61.7658 145.455 61.7946 145.296 61.809C145.074 61.8315 144.849 61.8315 144.627 61.809C144.296 61.7702 143.971 61.6928 143.658 61.5786C142.887 61.3011 142.201 60.8256 141.671 60.1998C141.456 59.9462 141.271 59.6683 141.12 59.3718C141.014 59.1743 140.931 58.9653 140.872 58.749C140.843 58.6718 140.827 58.5903 140.825 58.5078C140.861 58.5078 140.958 58.8318 141.236 59.307C141.398 59.5843 141.587 59.8447 141.801 60.0846C142.065 60.3764 142.361 60.6384 142.683 60.8658C143.008 61.086 143.355 61.2707 143.72 61.4166C144.018 61.5341 144.328 61.621 144.645 61.6758C145.188 61.755 145.538 61.7298 145.538 61.7658Z" fill="#263238"/>
<path d="M125.719 67.5682L130.932 66.9598L134.608 69.3682L148.648 65.9986L148.979 56.3794L155.218 55.5586V67.2046C155.183 68.6184 154.589 69.9607 153.566 70.9372C152.543 71.9137 151.174 72.4447 149.76 72.4138L129.183 71.8414L128.308 70.0918L123.891 69.9586L125.719 67.5682Z" fill="#FFBE9D"/>
<path d="M148.482 65.9805C148.395 66.0149 148.306 66.0426 148.216 66.0633L147.452 66.2613L144.634 66.9597L135.317 69.2169L134.449 69.4257H134.413H134.384L130.712 67.0101H130.763L125.546 67.6149L125.582 67.5933L124.2 69.3465L123.84 69.8073C123.8 69.8625 123.754 69.9132 123.703 69.9585C123.737 69.8997 123.774 69.8432 123.815 69.7893L124.175 69.3141L125.514 67.5357H125.536L130.745 66.8841H130.774H130.795L134.474 69.2889H134.41L135.277 69.0801L144.605 66.8697L147.438 66.2181L148.208 66.0489C148.298 66.0189 148.389 65.9961 148.482 65.9805Z" fill="#EB996E"/>
<path d="M128.567 69.062C127.895 69.1406 127.217 69.1671 126.541 69.1412H126.181L126.231 69.1232C125.824 69.4975 125.384 69.8348 124.917 70.1312C125.288 69.7215 125.693 69.3434 126.127 69.0008L126.148 68.9792H126.548C127.222 68.9514 127.898 68.9791 128.567 69.062Z" fill="#EB996E"/>
<path d="M151.07 67.5555C150.802 67.132 150.453 66.7652 150.044 66.4755C149.61 66.2302 149.132 66.0736 148.637 66.0147C148.782 65.9642 148.939 65.9518 149.09 65.9787C149.458 66.0175 149.812 66.1407 150.124 66.3386C150.436 66.5366 150.698 66.804 150.89 67.1199C150.988 67.2468 151.05 67.397 151.07 67.5555Z" fill="#EB996E"/>
<path d="M61.0383 144.457H37.5303V147.686H61.0383V144.457Z" fill="#263238"/>
<path d="M61.0784 147.73H37.4912V144.418H61.0784V147.73ZM37.5704 147.647H60.9992V144.497H37.5704V147.647Z" fill="#263238"/>
<path d="M39.7119 146.613L43.0923 163.306H55.6131L58.8855 147.69L39.7119 146.613Z" fill="#263238"/>
<path d="M39.7119 161.727L41.5155 164.211H56.7327L58.8855 161.727H39.7119Z" fill="#455A64"/>
<path d="M48.4028 147.099C48.356 147.099 48.2984 139.366 48.2696 129.819C48.2408 120.272 48.2696 112.539 48.3056 112.539C48.3416 112.539 48.41 120.272 48.4388 129.819C48.4676 139.366 48.4496 147.099 48.4028 147.099Z" fill="#263238"/>
<path d="M53.6401 127.746C53.6244 127.808 53.6027 127.868 53.5753 127.926C53.5213 128.059 53.4493 128.225 53.3665 128.426C53.3197 128.538 53.2693 128.657 53.2117 128.786C53.1541 128.916 53.1109 129.071 53.0569 129.226L52.8733 129.73C52.8121 129.91 52.7617 130.09 52.7005 130.306C52.4212 131.251 52.2012 132.213 52.0417 133.186C51.861 134.379 51.7409 135.58 51.6817 136.786C51.5967 138.979 51.6592 141.175 51.8689 143.359C51.9445 144.202 52.0201 144.878 52.0777 145.346C52.0993 145.566 52.1209 145.746 52.1353 145.886C52.1401 145.95 52.1401 146.014 52.1353 146.077C52.1126 146.017 52.0981 145.954 52.0921 145.89C52.0669 145.75 52.0381 145.573 52.0021 145.357C51.9265 144.889 51.8293 144.212 51.7393 143.374C51.4945 141.184 51.4162 138.98 51.5053 136.778C51.5587 135.567 51.6789 134.359 51.8653 133.16C52.0318 132.186 52.2651 131.223 52.5637 130.28C52.6285 130.079 52.6825 129.884 52.7473 129.708L52.9417 129.204L53.1145 128.768C53.1721 128.635 53.2297 128.52 53.2801 128.408L53.5213 127.919C53.5515 127.855 53.5916 127.797 53.6401 127.746Z" fill="#263238"/>
<path d="M53.0393 121.492C53.0194 121.579 52.9941 121.664 52.9637 121.748C52.9025 121.924 52.8197 122.165 52.7189 122.468L52.5389 122.986C52.4813 123.181 52.4165 123.389 52.3481 123.613C52.2113 124.059 52.0529 124.567 51.9125 125.139L51.6749 126.035C51.6029 126.349 51.5309 126.676 51.4553 127.011C51.2897 127.684 51.1709 128.415 51.0197 129.171C50.7605 130.705 50.5337 132.411 50.3753 134.193C50.2169 135.975 50.1629 137.699 50.1413 139.258C50.1197 140.817 50.1413 142.221 50.2205 143.398C50.2385 143.989 50.2781 144.518 50.3069 144.986C50.3357 145.454 50.3645 145.857 50.3933 146.185C50.4221 146.512 50.4365 146.753 50.4509 146.944C50.4557 147.032 50.4557 147.119 50.4509 147.207C50.4278 147.122 50.4133 147.035 50.4077 146.948C50.3861 146.757 50.3573 146.509 50.3177 146.192C50.2781 145.875 50.2385 145.472 50.2025 144.993C50.1665 144.514 50.1197 143.996 50.0909 143.405C50.0117 142.225 49.9793 140.821 49.9757 139.258C49.9721 137.696 50.0477 135.979 50.1989 134.182C50.3501 132.386 50.5913 130.683 50.8577 129.142C51.0125 128.375 51.1385 127.645 51.3077 126.982C51.3869 126.644 51.4661 126.316 51.5381 126.003L51.7865 125.11C51.9341 124.538 52.1033 124.03 52.2509 123.584C52.3229 123.361 52.3913 123.155 52.4525 122.961C52.5137 122.767 52.5857 122.601 52.6469 122.446L52.9205 121.726C52.9512 121.644 52.991 121.565 53.0393 121.492Z" fill="#263238"/>
<path d="M46.9153 148.468C46.9115 148.438 46.9115 148.407 46.9153 148.378C46.9153 148.309 46.9153 148.223 46.8937 148.111C46.8757 147.866 46.8541 147.524 46.8253 147.089C46.7677 146.185 46.6885 144.904 46.5877 143.32C46.3861 140.141 46.0909 135.76 45.5545 130.918C45.2809 128.498 44.9641 126.205 44.6329 124.124C44.4601 123.088 44.3017 122.101 44.1181 121.18C43.9345 120.258 43.7581 119.405 43.6141 118.624C43.4701 117.842 43.2865 117.144 43.1461 116.528C43.0057 115.913 42.8797 115.38 42.7861 114.948C42.6925 114.516 42.6025 114.192 42.5413 113.951C42.5197 113.846 42.4981 113.76 42.4837 113.692C42.4781 113.662 42.4781 113.631 42.4837 113.602C42.4985 113.629 42.5094 113.658 42.5161 113.688L42.5881 113.944C42.6565 114.181 42.7465 114.512 42.8653 114.934C42.9841 115.355 43.1245 115.888 43.2721 116.507C43.4197 117.126 43.5997 117.821 43.7617 118.602C43.9237 119.383 44.1217 120.233 44.2873 121.154C44.4529 122.076 44.6473 123.062 44.8201 124.103C45.1585 126.184 45.4789 128.48 45.7525 130.896C46.2889 135.734 46.5661 140.13 46.7389 143.312C46.8253 144.907 46.8865 146.192 46.9225 147.085C46.9225 147.521 46.9513 147.863 46.9585 148.111C46.9585 148.219 46.9585 148.309 46.9585 148.378C46.9486 148.41 46.9341 148.44 46.9153 148.468Z" fill="#263238"/>
<path d="M48.2118 116.277C48.1074 115.197 47.0022 114.355 45.9006 114.344C45.3496 114.368 44.8114 114.517 44.3267 114.781C43.8421 115.044 43.4237 115.414 43.1034 115.863C42.4698 116.767 42.0118 117.782 41.7534 118.855C41.0118 121.436 40.6086 124.147 40.9254 126.814C41.2422 129.482 42.3222 132.106 44.2374 133.989C44.547 134.299 44.9574 134.605 45.3786 134.511C45.6065 134.444 45.8136 134.32 45.9798 134.151C47.8543 132.435 49.34 130.337 50.3372 128C51.3344 125.662 51.82 123.138 51.7614 120.597C51.7326 119.585 51.5994 118.527 51.0414 117.685C50.4834 116.842 49.1694 115.942 48.2154 116.281" fill="#FFC20D"/>
<path d="M39.9924 107.496L38.4444 110.304C38.4084 110.369 38.3616 110.445 38.286 110.448C38.2104 110.452 38.142 110.38 38.0988 110.312L34.002 104.04L34.9452 103.504L39.9924 107.496Z" fill="#FFC20D"/>
<g opacity="0.2">
<path d="M39.9924 107.496L38.4444 110.304C38.4084 110.369 38.3616 110.445 38.286 110.448C38.2104 110.452 38.142 110.38 38.0988 110.312L34.002 104.04L34.9452 103.504L39.9924 107.496Z" fill="black"/>
</g>
<path d="M48.3052 112.553L34.33 104.305C34.2504 104.275 34.1777 104.229 34.1159 104.17C34.0541 104.111 34.0046 104.041 33.97 103.963C33.916 103.758 34.0708 103.556 34.2184 103.402C35.18 102.405 36.3449 101.627 37.6338 101.121C38.9228 100.615 40.3056 100.392 41.6884 100.468C43.0706 100.567 44.4078 101.001 45.5844 101.733C46.7611 102.465 47.7419 103.473 48.442 104.669C49.7884 107.077 49.8352 110.267 48.2872 112.553" fill="#FFC20D"/>
<path d="M36.3604 101.673C36.4201 101.656 36.482 101.649 36.544 101.651C36.6628 101.651 36.8428 101.622 37.0732 101.626C37.722 101.617 38.3703 101.668 39.01 101.777C39.9629 101.941 40.8917 102.222 41.7748 102.616C43.2989 103.302 44.6524 104.316 45.7385 105.586C46.8245 106.857 47.6162 108.351 48.0568 109.964C48.2371 110.589 48.3576 111.23 48.4168 111.879C48.4456 112.106 48.4384 112.286 48.4456 112.408C48.4518 112.469 48.4518 112.531 48.4456 112.592C48.4456 112.592 48.4132 112.34 48.3556 111.872C48.2758 111.232 48.1446 110.6 47.9632 109.982C47.3771 107.93 46.2276 106.083 44.645 104.651C43.0625 103.219 41.1103 102.26 39.01 101.882C38.377 101.761 37.7353 101.693 37.0912 101.676C36.598 101.68 36.3604 101.687 36.3604 101.673Z" fill="#263238"/>
<path d="M46.4115 106.859C46.1862 106.997 45.9442 107.104 45.6915 107.18C45.2451 107.356 44.6115 107.579 43.9275 107.803C43.2435 108.026 42.5955 108.199 42.1275 108.314C41.8791 108.39 41.6232 108.438 41.3643 108.458C41.5945 108.346 41.8359 108.26 42.0843 108.199L43.8627 107.641L45.6375 107.068C45.8879 106.973 46.1472 106.903 46.4115 106.859Z" fill="#263238"/>
<path d="M44.2125 100.949C44.3376 101.459 44.3933 101.983 44.3781 102.508C44.4192 103.032 44.3901 103.558 44.2917 104.074C44.2242 103.556 44.1977 103.034 44.2125 102.512C44.1714 101.992 44.1714 101.469 44.2125 100.949Z" fill="#263238"/>
<path d="M34.2002 104.15C34.5272 104 34.8669 103.88 35.2154 103.79C35.849 103.592 36.7346 103.344 37.7354 103.106C38.7362 102.869 39.6218 102.689 40.2554 102.574C40.6105 102.494 40.9719 102.446 41.3354 102.43C40.9936 102.54 40.6448 102.626 40.2914 102.689C39.6434 102.833 38.7506 103.049 37.7714 103.272C36.7922 103.495 35.903 103.736 35.2514 103.902C34.9069 104.008 34.5557 104.091 34.2002 104.15Z" fill="#263238"/>
<path d="M41.8612 113.681C40.6588 112.77 39.388 112.601 37.8796 112.648C36.371 112.744 34.8936 113.121 33.5236 113.76C31.1656 114.79 28.9516 116.312 27.544 118.465C26.1364 120.618 25.6432 123.469 26.698 125.816C26.781 126.062 26.9515 126.268 27.1768 126.396C27.4386 126.469 27.7178 126.447 27.9652 126.335C30.6472 125.46 33.3436 124.578 35.8096 123.21C38.2756 121.842 40.5184 119.938 41.8396 117.45C42.178 116.869 42.3959 116.227 42.4804 115.56C42.5165 115.223 42.4802 114.882 42.3741 114.559C42.2679 114.237 42.0943 113.941 41.8648 113.692" fill="#FFC20D"/>
<path d="M41.883 113.398C41.8229 113.433 41.7588 113.459 41.6922 113.478L41.1306 113.672L40.7238 113.805C40.5762 113.859 40.4178 113.924 40.2486 113.992C39.9102 114.129 39.5286 114.266 39.1002 114.468L38.445 114.766C38.2146 114.871 37.9878 115 37.7466 115.126C37.2606 115.364 36.771 115.67 36.2454 115.98C34.0004 117.371 32.0028 119.127 30.3342 121.174C29.9742 121.653 29.5962 122.103 29.2974 122.557C29.1426 122.78 28.9878 122.989 28.851 123.201L28.491 123.813C28.239 124.198 28.0518 124.573 27.8718 124.893C27.7854 125.052 27.699 125.199 27.627 125.34C27.555 125.48 27.4974 125.606 27.4434 125.725L27.177 126.258C27.1519 126.322 27.118 126.383 27.0762 126.438C27.0937 126.371 27.1178 126.306 27.1482 126.243L27.3822 125.696C27.4362 125.577 27.4938 125.448 27.555 125.304C27.6162 125.16 27.7062 125.012 27.789 124.85C27.9618 124.522 28.149 124.13 28.3866 123.752C28.509 123.554 28.6314 123.345 28.7466 123.129C28.8618 122.913 29.0346 122.704 29.1858 122.478C29.481 122.017 29.8446 121.563 30.2154 121.077C31.0544 120.046 31.9741 119.083 32.9658 118.197C33.9685 117.326 35.04 116.538 36.1698 115.839C36.699 115.53 37.1958 115.227 37.6854 114.993C37.9302 114.871 38.1606 114.745 38.4054 114.633L39.0714 114.345C39.4926 114.147 39.8886 114.018 40.2342 113.888C40.407 113.827 40.5654 113.766 40.7166 113.715L41.127 113.593L41.6994 113.431C41.7597 113.416 41.8211 113.405 41.883 113.398Z" fill="#263238"/>
<path d="M32.4945 118.48C31.5373 118.845 30.5616 119.159 29.5713 119.42C28.5958 119.737 27.603 119.998 26.5977 120.201C27.5548 119.837 28.5305 119.523 29.5209 119.262C30.4969 118.947 31.4896 118.686 32.4945 118.48Z" fill="#263238"/>
<path d="M32.3714 124.92C32.3223 124.619 32.3006 124.314 32.3066 124.01C32.3066 123.448 32.3066 122.667 32.3066 121.81C32.3066 120.953 32.3786 120.172 32.4254 119.61C32.4328 119.305 32.4714 119.001 32.5406 118.703C32.5649 119.007 32.5649 119.313 32.5406 119.618C32.519 120.233 32.4974 120.982 32.4722 121.814C32.447 122.645 32.4326 123.394 32.4146 124.01C32.4281 124.314 32.4136 124.619 32.3714 124.92Z" fill="#263238"/>
<path d="M37.901 122.117C37.8542 122.117 37.7066 120.536 37.5734 118.581C37.4402 116.627 37.3646 115.039 37.4114 115.039C37.4582 115.039 37.6022 116.616 37.739 118.571C37.8758 120.525 37.9478 122.113 37.901 122.117Z" fill="#263238"/>
<path d="M31.0215 114.887C31.3319 114.847 31.6453 114.838 31.9575 114.858C32.5335 114.858 33.3327 114.879 34.2147 114.908C35.0967 114.937 35.8923 114.973 36.4683 115.005C36.781 115.009 37.0929 115.04 37.4007 115.095C37.0903 115.135 36.7769 115.144 36.4647 115.124C35.8887 115.124 35.0895 115.106 34.2075 115.074C33.3255 115.041 32.5299 115.009 31.9503 114.977C31.6387 114.973 31.328 114.943 31.0215 114.887Z" fill="#263238"/>
<path d="M44.8388 134.739C44.8228 134.675 44.8155 134.61 44.8172 134.544C44.8172 134.404 44.8172 134.22 44.792 133.997C44.7704 133.518 44.7668 132.831 44.792 131.974C44.8172 131.117 44.864 130.106 44.9648 128.982C45.0656 127.859 45.2312 126.624 45.458 125.339C45.6848 124.054 45.9656 122.848 46.25 121.739C46.5344 120.63 46.844 119.676 47.1248 118.859C47.4056 118.042 47.6432 117.419 47.8448 116.966C47.9312 116.757 47.9996 116.606 48.0572 116.458C48.0793 116.398 48.107 116.34 48.14 116.285C48.1321 116.349 48.1139 116.411 48.086 116.469L47.8808 116.998C47.7152 117.444 47.4884 118.078 47.2256 118.906C46.9628 119.734 46.6748 120.706 46.3904 121.786C46.106 122.866 45.8396 124.083 45.6092 125.364C45.3788 126.646 45.224 127.884 45.1088 128.99C44.9936 130.095 44.9288 131.121 44.9 131.97C44.8712 132.82 44.8532 133.511 44.8532 133.99C44.8532 134.213 44.8532 134.393 44.8532 134.537C44.8531 134.605 44.8483 134.672 44.8388 134.739Z" fill="#263238"/>
<path d="M45.5725 125.203C45.409 125.427 45.222 125.632 45.0145 125.815C44.6545 126.175 44.1397 126.658 43.5565 127.172C42.9733 127.687 42.4225 128.13 42.0157 128.443C41.8076 128.624 41.5807 128.782 41.3389 128.915C41.5221 128.708 41.7246 128.518 41.9437 128.35L43.4449 127.046L44.9353 125.729C45.1305 125.534 45.3438 125.358 45.5725 125.203Z" fill="#263238"/>
<path d="M49.9971 128.763C49.7781 128.506 49.5795 128.231 49.403 127.943L48.0242 125.927L46.613 123.932C46.4038 123.666 46.2148 123.384 46.0479 123.09C46.2915 123.325 46.5121 123.583 46.7067 123.86C47.0955 124.353 47.6139 125.045 48.1467 125.833C48.6795 126.621 49.1619 127.345 49.4895 127.878C49.686 128.157 49.8559 128.453 49.9971 128.763Z" fill="#263238"/>
<path d="M47.6785 117.556C47.7037 117.595 46.2385 118.585 44.3989 119.766C42.5593 120.947 41.0509 121.876 41.0257 121.836C41.0005 121.797 42.4657 120.807 44.3089 119.626C46.1521 118.445 47.6569 117.52 47.6785 117.556Z" fill="#263238"/>
<path d="M51.8409 122.04C51.0651 121.394 50.3237 120.708 49.6197 119.984C48.8784 119.304 48.1753 118.582 47.5137 117.824C48.2922 118.468 49.0349 119.155 49.7385 119.88C50.4802 120.559 51.1822 121.28 51.8409 122.04Z" fill="#263238"/>
<path d="M52.8662 121.942L54.1262 121.838C55.0222 121.764 55.8917 121.498 56.675 121.056C57.0584 120.833 57.4551 120.633 57.863 120.459C59.4218 119.836 61.1642 119.948 62.8418 119.861C65.5905 119.723 68.2835 119.035 70.7618 117.838C70.9107 117.772 71.0361 117.663 71.1218 117.525C71.381 117.053 70.8986 116.632 70.4846 116.376C68.357 115.066 66.1934 113.741 63.785 113.09C61.3766 112.438 58.637 112.55 56.585 113.964C54.173 115.628 53.291 119.04 52.8842 121.942" fill="#FFC20D"/>
<path d="M71.1331 117.357C71.0606 117.327 70.9896 117.293 70.9207 117.256L70.3231 116.943C69.8047 116.669 69.0595 116.266 68.1127 115.816C67.0161 115.274 65.8726 114.833 64.6963 114.498C63.2578 114.085 61.7511 113.962 60.2647 114.138C58.7762 114.304 57.3703 114.908 56.2255 115.874C55.3313 116.704 54.616 117.709 54.1231 118.826C53.6803 119.772 53.4031 120.579 53.2087 121.126L52.9819 121.763C52.9596 121.839 52.9307 121.912 52.8955 121.983C52.9059 121.904 52.924 121.827 52.9495 121.752C52.9999 121.59 53.0647 121.374 53.1439 121.108C53.3841 120.322 53.6702 119.55 54.0007 118.797C54.4858 117.654 55.2044 116.625 56.1103 115.776C57.2712 114.776 58.7063 114.149 60.2287 113.976C61.7353 113.794 63.2631 113.917 64.7215 114.336C65.9045 114.684 67.0529 115.139 68.1523 115.697C69.0919 116.165 69.8299 116.583 70.3411 116.874L70.9243 117.216C70.9995 117.254 71.0697 117.301 71.1331 117.357Z" fill="#263238"/>
<path d="M68.1049 118.998C68.0797 119.034 66.4273 117.968 64.4185 116.615C62.4097 115.261 60.8005 114.131 60.8185 114.095C60.8365 114.059 62.4925 115.124 64.5013 116.478C66.5101 117.831 68.1301 118.958 68.1049 118.998Z" fill="#263238"/>
<path d="M66.5208 113.931C65.6801 114.195 64.7929 114.277 63.918 114.172C64.3458 114.083 64.7807 114.032 65.2176 114.021C65.6486 113.953 66.0846 113.923 66.5208 113.931Z" fill="#263238"/>
<path d="M59.1231 112.605C58.8083 113.351 58.3954 114.05 57.8955 114.686C58.0244 114.303 58.2061 113.939 58.4355 113.606C58.6161 113.242 58.8476 112.905 59.1231 112.605Z" fill="#263238"/>
<path d="M60.5994 119.968C60.321 119.852 60.0556 119.707 59.8074 119.536C59.3286 119.248 58.6842 118.816 58.0074 118.322C57.3306 117.829 56.715 117.35 56.2758 117.005C56.0299 116.831 55.8009 116.635 55.5918 116.418C55.8593 116.557 56.1125 116.722 56.3478 116.911L58.1082 118.189C58.7922 118.686 59.4222 119.122 59.883 119.438C60.1368 119.594 60.3765 119.771 60.5994 119.968Z" fill="#263238"/>
<path d="M54.7209 127.301C53.5185 126.981 52.0821 128.151 51.8409 129.371C51.5997 130.592 52.0533 131.837 52.5861 132.971C53.7326 135.489 55.4334 137.715 57.5613 139.484C59.7076 141.244 62.3856 142.227 65.1609 142.274C64.6533 139.912 65.2941 137.442 65.0133 135.041C64.7624 132.926 63.8016 130.959 62.2878 129.461C60.774 127.963 58.7967 127.022 56.6793 126.794C55.9125 126.711 55.0233 126.592 54.7173 127.301" fill="#FFC20D"/>
<path d="M65.1606 142.276C65.1003 142.256 65.0424 142.23 64.9878 142.197C64.8302 142.108 64.6797 142.007 64.5378 141.895C64.0337 141.456 63.6287 140.914 63.3498 140.307C63.159 139.947 62.943 139.529 62.7342 139.079C62.5254 138.629 62.3166 138.154 62.0862 137.639C61.8553 137.112 61.5895 136.601 61.2906 136.109C60.9701 135.585 60.609 135.087 60.2106 134.619C59.3898 133.654 58.5042 132.819 57.7374 132.016C57.0442 131.317 56.413 130.56 55.851 129.752C55.4746 129.204 55.1652 128.613 54.9294 127.991C54.8538 127.772 54.7962 127.595 54.7674 127.477C54.7475 127.417 54.7354 127.355 54.7314 127.293C54.7314 127.293 54.8142 127.538 54.9906 127.97C55.2474 128.575 55.5684 129.151 55.9482 129.687C56.5209 130.477 57.1566 131.22 57.849 131.908C58.6194 132.7 59.5086 133.535 60.3402 134.511C60.7478 134.985 61.1173 135.491 61.4454 136.023C61.7431 136.523 62.0088 137.041 62.241 137.575L62.8746 139.015C63.0762 139.461 63.285 139.871 63.4722 140.242C63.735 140.844 64.1171 141.387 64.5954 141.837C64.941 142.147 65.1786 142.262 65.1606 142.276Z" fill="#263238"/>
<path d="M58.9434 140.311C58.9506 140.037 58.988 139.766 59.055 139.501C59.1486 139.004 59.3034 138.323 59.5122 137.582C59.721 136.84 59.9442 136.181 60.1242 135.71C60.203 135.448 60.313 135.197 60.4518 134.961C60.4031 135.228 60.3308 135.491 60.2358 135.746C60.0846 136.228 59.8758 136.891 59.6742 137.629C59.4726 138.367 59.3142 139.036 59.1702 139.526C59.1206 139.794 59.0446 140.057 58.9434 140.311Z" fill="#263238"/>
<path d="M64.9411 134.512C64.6529 134.469 64.3687 134.403 64.0915 134.314C63.5731 134.18 62.8567 133.993 62.0611 133.813C61.2655 133.633 60.5383 133.496 60.0127 133.396C59.7245 133.359 59.4401 133.296 59.1631 133.208C59.454 133.201 59.7449 133.225 60.0307 133.28C60.5635 133.349 61.2979 133.471 62.0971 133.64C62.8963 133.81 63.6127 134.026 64.1239 134.191C64.4067 134.269 64.6805 134.377 64.9411 134.512Z" fill="#263238"/>
<path d="M54.4795 136.196C54.4931 135.88 54.5365 135.565 54.6091 135.257C54.7171 134.684 54.8827 133.892 55.1095 133.032C55.3363 132.171 55.5739 131.397 55.7611 130.843C55.8535 130.538 55.974 130.243 56.1211 129.961C56.0688 130.273 55.9918 130.58 55.8907 130.879C55.7323 131.441 55.5091 132.215 55.2859 133.071C55.0627 133.928 54.8755 134.717 54.7423 135.282C54.6809 135.593 54.593 135.899 54.4795 136.196Z" fill="#263238"/>
<path d="M62.1797 129.459C62.1797 129.502 60.6713 129.384 58.8245 129.186C56.9777 128.988 55.4801 128.793 55.4873 128.75C56.6096 128.782 57.7295 128.872 58.8425 129.02C59.9617 129.109 61.0755 129.256 62.1797 129.459Z" fill="#263238"/>
<path d="M61.0784 147.673C61.0784 147.719 55.7972 147.755 49.2848 147.755C42.7724 147.755 37.4912 147.719 37.4912 147.673C37.4912 147.626 42.7724 147.59 49.2848 147.59C55.7972 147.59 61.0784 147.626 61.0784 147.673Z" fill="#455A64"/>
<path d="M57.4057 154.466C57.4057 154.512 53.8453 154.552 49.4569 154.552C45.0685 154.552 41.5117 154.512 41.5117 154.466C41.5117 154.419 45.0685 154.383 49.4569 154.383C53.8453 154.383 57.4057 154.437 57.4057 154.466Z" fill="#455A64"/>
<path d="M57.5427 155.438C57.5427 155.485 53.9859 155.521 49.5975 155.521C45.2091 155.521 41.6523 155.485 41.6523 155.438C41.6523 155.391 45.2091 155.355 49.5975 155.355C53.9859 155.355 57.5427 155.391 57.5427 155.438Z" fill="#455A64"/>
<path d="M57.5431 153.669C57.5431 153.716 53.8639 153.752 49.3243 153.752C44.7847 153.752 41.1055 153.716 41.1055 153.669C41.1055 153.622 44.7847 153.586 49.3243 153.586C53.8639 153.586 57.5431 153.622 57.5431 153.669Z" fill="#455A64"/>
</svg>
