<svg width="162" height="120" viewBox="0 0 162 120" fill="none" xmlns="http://www.w3.org/2000/svg">
<path d="M161.047 105.453H0V105.534H161.047V105.453Z" fill="#EBEBEB"/>
<path d="M144.91 110.637H134.242V110.717H144.91V110.637Z" fill="#EBEBEB"/>
<path d="M106.684 111.512H103.885V111.592H106.684V111.512Z" fill="#EBEBEB"/>
<path d="M133.92 107.648H127.739V107.729H133.92V107.648Z" fill="#EBEBEB"/>
<path d="M30.8087 108.188H16.8975V108.268H30.8087V108.188Z" fill="#EBEBEB"/>
<path d="M35.7176 108.188H33.6787V108.268H35.7176V108.188Z" fill="#EBEBEB"/>
<path d="M72.5195 109.547H42.3457V109.627H72.5195V109.547Z" fill="#EBEBEB"/>
<path d="M76.3367 91.0882H14.1436C13.6563 91.0874 13.1894 90.8932 12.8452 90.5484C12.5009 90.2036 12.3076 89.7363 12.3076 89.2491V1.82305C12.3119 1.33863 12.5071 0.875445 12.8508 0.534102C13.1946 0.19276 13.6591 0.000829839 14.1436 0H76.3367C76.8245 0 77.2923 0.193768 77.6372 0.538677C77.9821 0.883586 78.1759 1.35138 78.1759 1.83916V89.2491C78.1759 89.7368 77.9821 90.2046 77.6372 90.5496C77.2923 90.8945 76.8245 91.0882 76.3367 91.0882ZM14.1436 0.0644191C13.6777 0.0652723 13.2312 0.250932 12.9021 0.580648C12.573 0.910363 12.3881 1.35719 12.3881 1.82305V89.2491C12.3881 89.7149 12.573 90.1618 12.9021 90.4915C13.2312 90.8212 13.6777 91.0068 14.1436 91.0077H76.3367C76.8029 91.0068 77.2497 90.8213 77.5793 90.4917C77.9089 90.162 78.0945 89.7152 78.0954 89.2491V1.82305C78.0945 1.3569 77.9089 0.910075 77.5793 0.580451C77.2497 0.250828 76.8029 0.0652705 76.3367 0.0644191H14.1436Z" fill="#EBEBEB"/>
<path d="M146.008 91.0882H83.8118C83.3243 91.0874 82.857 90.8933 82.5123 90.5486C82.1676 90.2039 81.9735 89.7366 81.9727 89.2491V1.82305C81.9777 1.33834 82.1737 0.875155 82.5179 0.533901C82.8622 0.192647 83.3271 0.000820789 83.8118 0H146.008C146.492 0.00167634 146.956 0.193981 147.299 0.535233C147.642 0.876485 147.837 1.33919 147.841 1.82305V89.2491C147.841 89.7357 147.648 90.2025 147.305 90.5473C146.961 90.892 146.495 91.0865 146.008 91.0882ZM83.8118 0.0644191C83.3457 0.0652705 82.8988 0.250828 82.5692 0.580451C82.2396 0.910075 82.054 1.3569 82.0532 1.82305V89.2491C82.054 89.7152 82.2396 90.162 82.5692 90.4917C82.8988 90.8213 83.3457 91.0068 83.8118 91.0077H146.008C146.474 91.0068 146.921 90.8213 147.251 90.4917C147.58 90.162 147.766 89.7152 147.767 89.2491V1.82305C147.766 1.3569 147.58 0.910075 147.251 0.580451C146.921 0.250828 146.474 0.0652705 146.008 0.0644191H83.8118Z" fill="#EBEBEB"/>
<path d="M76.3359 40.6168V46.2728L79.2348 46.5466C79.6237 48.4105 80.3614 50.1842 81.4089 51.7742L79.5376 54.0288L83.538 58.0292L85.7926 56.1579C87.3816 57.2044 89.1542 57.941 91.017 58.3288L91.2908 61.2276H96.9822L97.256 58.3288C99.1197 57.941 100.893 57.2044 102.484 56.1579L104.738 58.0292L108.739 54.0288L106.867 51.7742C107.914 50.184 108.65 48.4103 109.038 46.5466L111.953 46.2728V40.6168L109.038 40.3398C108.653 38.4744 107.919 36.6985 106.874 35.1058L108.745 32.8511L104.745 28.854L102.49 30.7253C100.902 29.6802 99.1322 28.9427 97.2721 28.5512L96.9983 25.6523H91.323L91.0492 28.5512C89.1867 28.9415 87.4144 29.6791 85.8248 30.7253L83.5702 28.854L79.5569 32.8511L81.4282 35.1058C80.3816 36.6951 79.644 38.4675 79.2541 40.3302L76.3359 40.6168ZM94.1413 35.7854C95.6562 35.7854 97.1371 36.2346 98.3966 37.0763C99.6562 37.9179 100.638 39.1141 101.218 40.5137C101.797 41.9133 101.949 43.4533 101.654 44.9391C101.358 46.4249 100.629 47.7897 99.5573 48.8608C98.4861 49.932 97.1214 50.6615 95.6356 50.9571C94.1498 51.2526 92.6097 51.1009 91.2102 50.5212C89.8106 49.9415 88.6144 48.9597 87.7727 47.7002C86.9311 46.4406 86.4819 44.9597 86.4819 43.4448C86.4819 42.4379 86.6804 41.4408 87.0662 40.5107C87.4519 39.5806 88.0172 38.7357 88.7298 38.0243C89.4424 37.3128 90.2883 36.7489 91.2191 36.3648C92.1499 35.9806 93.1473 35.7837 94.1542 35.7854H94.1413Z" fill="#F0F0F0"/>
<path d="M66.7896 65.936L68.4001 67.2823L71.2764 64.406L69.93 62.7956C70.6893 61.6507 71.2239 60.3718 71.5051 59.0271L73.5987 58.8306V54.7561L71.5051 54.5596C71.2263 53.2203 70.6962 51.946 69.9429 50.804L71.2893 49.1935L68.413 46.3172L66.8025 47.6636C65.6598 46.9116 64.3858 46.3817 63.0469 46.1014L62.8504 44.0078H58.7727L58.5762 46.1014C57.2369 46.3836 55.9628 46.9158 54.8206 47.67L53.2101 46.3237L50.3338 49.2L51.6802 50.8104C50.9269 51.9524 50.3968 53.2267 50.118 54.5661L48.0244 54.7625V58.8274L50.118 59.0238C50.3968 60.3631 50.9269 61.6375 51.6802 62.7795L50.3338 64.3899L53.2101 67.2662L54.8206 65.9199C55.9632 66.6718 57.2373 67.2018 58.5762 67.482L58.7727 69.5756H62.8375L63.034 67.482C64.3717 67.2068 65.6458 66.6823 66.7896 65.936ZM55.3037 56.7982C55.3037 55.7093 55.6267 54.6449 56.2317 53.7396C56.8367 52.8344 57.6965 52.1288 58.7026 51.7123C59.7086 51.2957 60.8155 51.1869 61.8834 51.3996C62.9513 51.6122 63.9321 52.1368 64.7018 52.907C65.4715 53.6771 65.9955 54.6583 66.2075 55.7263C66.4196 56.7943 66.3101 57.9011 65.893 58.9069C65.4759 59.9127 64.7698 60.7722 63.8642 61.3766C62.9585 61.9811 61.8939 62.3034 60.8051 62.3028C60.0824 62.3028 59.3667 62.1604 58.6991 61.8837C58.0314 61.607 57.4248 61.2015 56.9139 60.6903C56.403 60.1791 55.9979 59.5723 55.7216 58.9044C55.4453 58.2366 55.3033 57.5209 55.3037 56.7982Z" fill="#F5F5F5"/>
<path d="M84.8558 93.4695C86.4501 93.1381 87.9671 92.5075 89.3265 91.611L91.259 93.2215L94.6958 89.7912L93.0853 87.8586C93.9818 86.4992 94.6124 84.9822 94.9438 83.3879L97.4368 83.156V78.3246L94.9438 78.0895C94.6139 76.4907 93.9833 74.9692 93.0853 73.6059L94.6958 71.6734L91.2623 68.2495L89.3297 69.86C87.9695 68.9651 86.4528 68.3346 84.859 68.0015L84.6239 65.5117H79.7925L79.5574 67.9918C77.9636 68.3249 76.4469 68.9554 75.0867 69.8503L73.1541 68.2399L69.7303 71.6637L71.3408 73.5963C70.4458 74.9565 69.8153 76.4732 69.4823 78.067L66.9893 78.3021V83.1335L69.4823 83.3654C69.8147 84.9593 70.4453 86.4762 71.3408 87.8361L69.7303 89.7686L73.1541 93.1893L75.0867 91.5788C76.4437 92.4866 77.9608 93.1282 79.5574 93.4695L79.7925 95.9625H84.6239L84.8558 93.4695ZM75.6504 80.7307C75.651 79.4351 76.0358 78.1687 76.756 77.0918C77.4763 76.0148 78.4997 75.1756 79.6969 74.6803C80.8941 74.1849 82.2112 74.0556 83.4819 74.3088C84.7525 74.5619 85.9195 75.1861 86.8354 76.1025C87.7513 77.0188 88.375 78.1862 88.6275 79.457C88.88 80.7277 88.7501 82.0448 88.2542 83.2417C87.7582 84.4387 86.9185 85.4617 85.8412 86.1814C84.7639 86.9011 83.4974 87.2853 82.2018 87.2853C81.3412 87.2853 80.489 87.1157 79.6939 86.7863C78.8988 86.4568 78.1765 85.974 77.5681 85.3653C76.9597 84.7566 76.4772 84.034 76.1481 83.2388C75.8191 82.4435 75.6499 81.5913 75.6504 80.7307Z" fill="#FAFAFA"/>
<path d="M45.5652 34.9033L30.748 32.8789L28.7236 47.6961L43.5408 49.7205L45.5652 34.9033Z" fill="#F5F5F5"/>
<path d="M32.9267 36.941L32.7959 37.8984L42.4432 39.2165L42.574 38.2591L32.9267 36.941Z" fill="#E0E0E0"/>
<path d="M32.5146 39.9489L32.3838 40.9062L42.0311 42.2243L42.1619 41.2669L32.5146 39.9489Z" fill="#E0E0E0"/>
<path d="M32.0937 43.0543L31.9629 44.0117L37.6434 44.7878L37.7742 43.8304L32.0937 43.0543Z" fill="#E0E0E0"/>
<path d="M128.522 18.4478L113.567 18.5L113.62 33.4547L128.574 33.4025L128.522 18.4478Z" fill="#F0F0F0"/>
<path d="M126.036 22.1635L116.299 22.1992L116.302 23.1655L126.039 23.1298L126.036 22.1635Z" fill="#E0E0E0"/>
<path d="M126.05 25.1987L116.313 25.2344L116.317 26.2007L126.054 26.165L126.05 25.1987Z" fill="#E0E0E0"/>
<path d="M122.055 28.3462L116.322 28.3672L116.326 29.3335L122.059 29.3124L122.055 28.3462Z" fill="#E0E0E0"/>
<path d="M137.496 54.9174L122.66 56.7969L124.54 71.6331L139.376 69.7536L137.496 54.9174Z" fill="#F5F5F5"/>
<path d="M135.488 58.9247L125.828 60.1484L125.95 61.1071L135.609 59.8833L135.488 58.9247Z" fill="#E0E0E0"/>
<path d="M135.87 61.9325L126.21 63.1562L126.331 64.1149L135.991 62.8911L135.87 61.9325Z" fill="#E0E0E0"/>
<path d="M132.29 65.549L126.603 66.2695L126.724 67.2282L132.412 66.5076L132.29 65.549Z" fill="#E0E0E0"/>
<path d="M57.9469 78.9947L42.9922 79.0469L43.0444 94.0016L57.9991 93.9494L57.9469 78.9947Z" fill="#F0F0F0"/>
<path d="M55.478 82.726L45.7412 82.7617L45.7448 83.728L55.4816 83.6923L55.478 82.726Z" fill="#E0E0E0"/>
<path d="M55.4888 85.7612L45.752 85.7969L45.7555 86.7632L55.4923 86.7275L55.4888 85.7612Z" fill="#E0E0E0"/>
<path d="M51.4969 88.9087L45.7637 88.9297L45.7672 89.896L51.5005 89.8749L51.4969 88.9087Z" fill="#E0E0E0"/>
<path d="M123.998 86.3189L109.043 86.3711L109.095 101.326L124.05 101.274L123.998 86.3189Z" fill="#F0F0F0"/>
<path d="M121.528 90.0385L111.791 90.0742L111.795 91.0405L121.531 91.0048L121.528 90.0385Z" fill="#E0E0E0"/>
<path d="M121.542 93.0698L111.805 93.1055L111.808 94.0717L121.545 94.0361L121.542 93.0698Z" fill="#E0E0E0"/>
<path d="M117.546 96.2251L111.812 96.2461L111.816 97.2124L117.549 97.1914L117.546 96.2251Z" fill="#E0E0E0"/>
<path d="M60.9801 17.469L46.3809 20.7109L49.6228 35.3101L64.222 32.0682L60.9801 17.469Z" fill="#F0F0F0"/>
<path d="M59.3462 21.6549L49.8408 23.7656L50.0503 24.7089L59.5557 22.5982L59.3462 21.6549Z" fill="#E0E0E0"/>
<path d="M60.0044 24.6158L50.499 26.7266L50.7085 27.6699L60.2139 25.5591L60.0044 24.6158Z" fill="#E0E0E0"/>
<path d="M56.7747 28.5462L51.1777 29.7891L51.3872 30.7324L56.9841 29.4895L56.7747 28.5462Z" fill="#E0E0E0"/>
<path d="M31.9649 34.4962H31.6976L31.3271 32.7891H32.3321L31.9649 34.4962Z" fill="#E0E0E0"/>
<path d="M31.829 34.0748C32.5797 34.0748 33.1882 33.5946 33.1882 33.0023C33.1882 32.4099 32.5797 31.9297 31.829 31.9297C31.0783 31.9297 30.4697 32.4099 30.4697 33.0023C30.4697 33.5946 31.0783 34.0748 31.829 34.0748Z" fill="#E6E6E6"/>
<path d="M59.2878 19.5906H59.0205L58.6533 17.8867H59.6583L59.2878 19.5906Z" fill="#E0E0E0"/>
<path d="M59.1564 19.1764C59.9089 19.1764 60.5189 18.6962 60.5189 18.1038C60.5189 17.5115 59.9089 17.0312 59.1564 17.0312C58.4039 17.0312 57.7939 17.5115 57.7939 18.1038C57.7939 18.6962 58.4039 19.1764 59.1564 19.1764Z" fill="#E6E6E6"/>
<path d="M120.83 20.0203H120.563L120.192 18.3164H121.197L120.83 20.0203Z" fill="#E0E0E0"/>
<path d="M120.695 19.6022C121.446 19.6022 122.054 19.122 122.054 18.5296C122.054 17.9372 121.446 17.457 120.695 17.457C119.944 17.457 119.336 17.9372 119.336 18.5296C119.336 19.122 119.944 19.6022 120.695 19.6022Z" fill="#E6E6E6"/>
<path d="M136.117 57.0593H135.85L135.482 55.3555H136.487L136.117 57.0593Z" fill="#E0E0E0"/>
<path d="M135.985 56.6412C136.736 56.6412 137.344 56.161 137.344 55.5687C137.344 54.9763 136.736 54.4961 135.985 54.4961C135.235 54.4961 134.626 54.9763 134.626 55.5687C134.626 56.161 135.235 56.6412 135.985 56.6412Z" fill="#E6E6E6"/>
<path d="M116.788 88.0196H116.518L116.15 86.3125H117.155L116.788 88.0196Z" fill="#E0E0E0"/>
<path d="M116.652 87.5983C117.403 87.5983 118.011 87.1181 118.011 86.5257C118.011 85.9333 117.403 85.4531 116.652 85.4531C115.902 85.4531 115.293 85.9333 115.293 86.5257C115.293 87.1181 115.902 87.5983 116.652 87.5983Z" fill="#E6E6E6"/>
<path d="M50.0798 80.3516H49.8125L49.4453 78.6445H50.4502L50.0798 80.3516Z" fill="#E0E0E0"/>
<path d="M49.9471 79.9303C50.6978 79.9303 51.3064 79.4501 51.3064 78.8577C51.3064 78.2654 50.6978 77.7852 49.9471 77.7852C49.1964 77.7852 48.5879 78.2654 48.5879 78.8577C48.5879 79.4501 49.1964 79.9303 49.9471 79.9303Z" fill="#E6E6E6"/>
<path d="M80.5231 119.999C115.014 119.999 142.974 118.367 142.974 116.353C142.974 114.339 115.014 112.707 80.5231 112.707C46.0325 112.707 18.0723 114.339 18.0723 116.353C18.0723 118.367 46.0325 119.999 80.5231 119.999Z" fill="#F5F5F5"/>
<path d="M46.2744 62.4354C46.2744 60.3128 47.6691 58.5703 49.3858 58.5703C51.1026 58.5703 52.4973 60.2967 52.4973 62.4354C52.4973 64.5741 51.1026 66.2812 49.3858 66.2812C47.6691 66.2812 46.2744 64.558 46.2744 62.4354ZM46.9186 62.4354C46.9186 64.2005 48.0266 65.6371 49.3858 65.6371C50.7451 65.6371 51.8531 64.2005 51.8531 62.4354C51.8531 60.6704 50.7483 59.2145 49.3858 59.2145C48.0234 59.2145 46.9186 60.6704 46.9186 62.4354Z" fill="#263238"/>
<path d="M40.1514 62.4354C40.1514 60.3128 41.546 58.5703 43.2628 58.5703C44.9796 58.5703 46.3742 60.2967 46.3742 62.4354C46.3742 64.5741 44.9796 66.2812 43.2628 66.2812C41.546 66.2812 40.1514 64.558 40.1514 62.4354ZM40.7956 62.4354C40.7956 64.2005 41.9003 65.6371 43.2628 65.6371C44.6253 65.6371 45.73 64.2005 45.73 62.4354C45.73 60.6704 44.622 59.2145 43.2628 59.2145C41.9036 59.2145 40.7956 60.6704 40.7956 62.4354Z" fill="#263238"/>
<path d="M34.0254 62.4354C34.0254 60.3128 35.4233 58.5703 37.14 58.5703C38.8568 58.5703 40.2515 60.2967 40.2515 62.4354C40.2515 64.5741 38.8536 66.2812 37.14 66.2812C35.4265 66.2812 34.0254 64.558 34.0254 62.4354ZM34.6696 62.4354C34.6696 64.2005 35.7776 65.6371 37.14 65.6371C38.5025 65.6371 39.6073 64.2005 39.6073 62.4354C39.6073 60.6704 38.4993 59.2145 37.14 59.2145C35.7808 59.2145 34.6696 60.6704 34.6696 62.4354Z" fill="#263238"/>
<path d="M27.9023 62.4354C27.9023 60.3128 29.3002 58.5703 31.017 58.5703C32.7338 58.5703 34.1284 60.2967 34.1284 62.4354C34.1284 64.5741 32.7305 66.2812 31.017 66.2812C29.3035 66.2812 27.9023 64.558 27.9023 62.4354ZM28.5465 62.4354C28.5465 64.2005 29.6545 65.6371 31.017 65.6371C32.3795 65.6371 33.4842 64.2005 33.4842 62.4354C33.4842 60.6704 32.3762 59.2145 31.017 59.2145C29.6578 59.2145 28.5465 60.6704 28.5465 62.4354Z" fill="#263238"/>
<path d="M52.3975 62.4354C52.3975 60.3128 53.7921 58.5703 55.5089 58.5703C57.2257 58.5703 58.6235 60.2967 58.6235 62.4354C58.6235 64.5741 57.2257 66.2812 55.5089 66.2812C53.7921 66.2812 52.3975 64.558 52.3975 62.4354ZM53.0416 62.4354C53.0416 64.2005 54.1497 65.6371 55.5089 65.6371C56.8681 65.6371 57.9794 64.2005 57.9794 62.4354C57.9794 60.6704 56.8713 59.2145 55.5089 59.2145C54.1464 59.2145 53.0416 60.6704 53.0416 62.4354Z" fill="#263238"/>
<path d="M23.853 115.566H62.208L62.208 62.5111L23.853 62.5111L23.853 115.566Z" fill="#263238"/>
<path opacity="0.7" d="M23.853 115.566H62.208L62.208 62.5111L23.853 62.5111L23.853 115.566Z" fill="white"/>
<path opacity="0.6" d="M27.3091 115.566H62.208L62.208 62.5111L27.3091 62.5111L27.3091 115.566Z" fill="white"/>
<path opacity="0.2" d="M25.0037 115.564L24.8427 65.9805L24.6816 115.564H25.0037Z" fill="black"/>
<path opacity="0.2" d="M26.6073 115.565L26.4462 69.0703L26.2852 115.565H26.6073Z" fill="black"/>
<path opacity="0.2" d="M25.4834 62.5508L25.6444 99.8267L25.8055 62.5508H25.4834Z" fill="black"/>
<path d="M56.4366 65.0326C56.4696 65.2043 56.5508 65.3631 56.6707 65.4904C56.7906 65.6177 56.9443 65.7082 57.1137 65.7514C57.2832 65.7945 57.4614 65.7886 57.6276 65.7342C57.7938 65.6798 57.9411 65.5793 58.0523 65.4443C58.1634 65.3093 58.2339 65.1455 58.2554 64.9719C58.2769 64.7984 58.2485 64.6223 58.1737 64.4643C58.0988 64.3063 57.9805 64.1728 57.8326 64.0795C57.6847 63.9862 57.5133 63.937 57.3384 63.9375C57.0745 63.9652 56.832 64.0955 56.6633 64.3004C56.4946 64.5053 56.4131 64.7683 56.4366 65.0326Z" fill="#263238"/>
<path d="M57.3959 65.3568C57.4419 65.3564 57.4872 65.3461 57.5289 65.3266C57.5706 65.3072 57.6076 65.279 57.6375 65.2441C58.2864 64.4531 58.6355 63.4585 58.6231 62.4354C58.6231 60.3128 57.2252 58.5703 55.5084 58.5703C54.2458 58.5703 53.1153 59.5044 52.6321 60.9441C52.6186 60.9843 52.6131 61.0268 52.616 61.0691C52.6188 61.1114 52.63 61.1527 52.6489 61.1907C52.6677 61.2287 52.6938 61.2626 52.7258 61.2905C52.7577 61.3184 52.7949 61.3397 52.835 61.3532C52.8752 61.3667 52.9177 61.3722 52.96 61.3694C53.0023 61.3665 53.0436 61.3553 53.0816 61.3365C53.1196 61.3176 53.1535 61.2915 53.1814 61.2595C53.2093 61.2276 53.2306 61.1905 53.2441 61.1503C53.6371 59.9746 54.5325 59.2177 55.4988 59.2177C56.8612 59.2177 57.9692 60.6575 57.9692 62.4387C57.9829 63.3069 57.6897 64.1521 57.1414 64.8254C57.1004 64.8721 57.0738 64.9297 57.0647 64.9912C57.0557 65.0527 57.0647 65.1155 57.0906 65.1721C57.1164 65.2286 57.1581 65.2764 57.2106 65.3098C57.2631 65.3431 57.3241 65.3606 57.3862 65.3601L57.3959 65.3568Z" fill="#263238"/>
<g opacity="0.4">
<path d="M57.3969 65.3568C57.4429 65.3564 57.4882 65.3461 57.5299 65.3266C57.5715 65.3072 57.6086 65.279 57.6384 65.2441C58.2874 64.4531 58.6364 63.4585 58.6241 62.4354C58.6241 60.3128 57.2262 58.5703 55.5094 58.5703C54.2468 58.5703 53.1162 59.5044 52.6331 60.9441C52.6196 60.9843 52.6141 61.0268 52.617 61.0691C52.6198 61.1114 52.631 61.1527 52.6498 61.1907C52.6687 61.2287 52.6948 61.2626 52.7268 61.2905C52.7587 61.3184 52.7958 61.3397 52.836 61.3532C52.8762 61.3667 52.9187 61.3722 52.961 61.3694C53.0033 61.3665 53.0446 61.3553 53.0826 61.3365C53.1206 61.3176 53.1545 61.2915 53.1823 61.2595C53.2102 61.2276 53.2315 61.1905 53.2451 61.1503C53.638 59.9746 54.5335 59.2177 55.4997 59.2177C56.8622 59.2177 57.9702 60.6575 57.9702 62.4387C57.9838 63.3069 57.6907 64.1521 57.1424 64.8254C57.1014 64.8721 57.0747 64.9297 57.0657 64.9912C57.0567 65.0527 57.0656 65.1155 57.0915 65.1721C57.1174 65.2286 57.1591 65.2764 57.2116 65.3098C57.264 65.3431 57.325 65.3606 57.3872 65.3601L57.3969 65.3568Z" fill="white"/>
</g>
<path d="M50.3135 65.0326C50.3471 65.2033 50.4284 65.3609 50.5481 65.4871C50.6678 65.6133 50.8208 65.7029 50.9895 65.7455C51.1581 65.7881 51.3354 65.7819 51.5006 65.7276C51.6658 65.6734 51.8123 65.5733 51.9228 65.439C52.0334 65.3048 52.1035 65.1419 52.1251 64.9693C52.1467 64.7967 52.1188 64.6215 52.0446 64.4642C51.9705 64.3069 51.8532 64.1738 51.7064 64.0806C51.5596 63.9873 51.3893 63.9377 51.2154 63.9375C50.9514 63.9652 50.7089 64.0955 50.5402 64.3004C50.3715 64.5053 50.2901 64.7683 50.3135 65.0326Z" fill="#263238"/>
<path d="M51.2706 65.3568C51.3171 65.3568 51.3631 65.3468 51.4054 65.3273C51.4476 65.3078 51.4852 65.2795 51.5154 65.2441C52.1635 64.4528 52.5114 63.4581 52.4978 62.4354C52.4978 60.3128 51.1031 58.5703 49.3864 58.5703C48.1205 58.5703 46.9932 59.5044 46.5101 60.9441C46.4827 61.0253 46.4887 61.114 46.5268 61.1907C46.5649 61.2674 46.6318 61.3259 46.713 61.3532C46.7941 61.3805 46.8828 61.3745 46.9595 61.3365C47.0362 61.2984 47.0947 61.2314 47.122 61.1503C47.515 59.9746 48.4104 59.2177 49.3767 59.2177C50.7392 59.2177 51.8439 60.6575 51.8439 62.4387C51.8588 63.3065 51.5668 64.1518 51.0194 64.8254C50.9785 64.8719 50.9519 64.9292 50.9428 64.9904C50.9337 65.0516 50.9423 65.1142 50.9678 65.1706C50.9933 65.227 51.0345 65.2749 51.0865 65.3085C51.1385 65.3421 51.199 65.36 51.2609 65.3601L51.2706 65.3568Z" fill="#263238"/>
<g opacity="0.4">
<path d="M51.2696 65.3568C51.3162 65.3568 51.3621 65.3468 51.4044 65.3273C51.4466 65.3078 51.4842 65.2795 51.5144 65.2441C52.1625 64.4528 52.5104 63.4581 52.4968 62.4354C52.4968 60.3128 51.1021 58.5703 49.3854 58.5703C48.1196 58.5703 46.9922 59.5044 46.5091 60.9441C46.4817 61.0253 46.4878 61.114 46.5258 61.1907C46.5639 61.2674 46.6308 61.3259 46.712 61.3532C46.7932 61.3805 46.8818 61.3745 46.9586 61.3365C47.0353 61.2984 47.0937 61.2314 47.1211 61.1503C47.514 59.9746 48.4094 59.2177 49.3757 59.2177C50.7382 59.2177 51.843 60.6575 51.843 62.4387C51.8578 63.3065 51.5658 64.1518 51.0184 64.8254C50.9775 64.8719 50.951 64.9292 50.9418 64.9904C50.9327 65.0516 50.9414 65.1142 50.9669 65.1706C50.9923 65.227 51.0335 65.2749 51.0855 65.3085C51.1375 65.3421 51.1981 65.36 51.26 65.3601L51.2696 65.3568Z" fill="white"/>
</g>
<path d="M44.1873 65.0326C44.2202 65.2042 44.3014 65.3629 44.4211 65.4901C44.5409 65.6173 44.6944 65.7079 44.8636 65.7512C45.0329 65.7944 45.211 65.7887 45.3772 65.7346C45.5433 65.6805 45.6906 65.5802 45.8019 65.4455C45.9133 65.3109 45.984 65.1473 46.0058 64.9739C46.0277 64.8006 45.9998 64.6246 45.9254 64.4665C45.851 64.3084 45.7332 64.1747 45.5857 64.081C45.4382 63.9874 45.2671 63.9376 45.0923 63.9375C44.8281 63.9652 44.5854 64.0954 44.4161 64.3002C44.2469 64.505 44.1647 64.7679 44.1873 65.0326Z" fill="#263238"/>
<path d="M45.1473 65.3568C45.1938 65.3568 45.2398 65.3468 45.282 65.3273C45.3243 65.3078 45.3618 65.2795 45.3921 65.2441C46.0343 64.4506 46.3765 63.4561 46.3583 62.4354C46.3583 60.3128 44.9637 58.5703 43.2469 58.5703C41.9811 58.5703 40.8538 59.5044 40.3706 60.9441C40.357 60.9843 40.3514 61.0268 40.3542 61.0691C40.3571 61.1115 40.3682 61.1528 40.3871 61.1909C40.4059 61.2289 40.4321 61.2628 40.4641 61.2906C40.4961 61.3185 40.5333 61.3398 40.5735 61.3532C40.6137 61.3668 40.6562 61.3724 40.6985 61.3696C40.7409 61.3668 40.7822 61.3556 40.8202 61.3368C40.8583 61.3179 40.8922 61.2917 40.92 61.2597C40.9479 61.2277 40.9692 61.1905 40.9826 61.1503C41.3756 59.9746 42.271 59.2177 43.2373 59.2177C44.5965 59.2177 45.7045 60.6575 45.7045 62.4387C45.7198 63.3071 45.4265 64.1529 44.8767 64.8254C44.8357 64.8721 44.809 64.9297 44.8 64.9912C44.791 65.0527 44.7999 65.1155 44.8258 65.1721C44.8517 65.2286 44.8934 65.2764 44.9459 65.3098C44.9983 65.3431 45.0593 65.3606 45.1215 65.3601L45.1473 65.3568Z" fill="#263238"/>
<g opacity="0.4">
<path d="M45.1473 65.3568C45.1938 65.3568 45.2398 65.3468 45.282 65.3273C45.3243 65.3078 45.3618 65.2795 45.3921 65.2441C46.0343 64.4506 46.3765 63.4561 46.3583 62.4354C46.3583 60.3128 44.9637 58.5703 43.2469 58.5703C41.9811 58.5703 40.8538 59.5044 40.3706 60.9441C40.357 60.9843 40.3514 61.0268 40.3542 61.0691C40.3571 61.1115 40.3682 61.1528 40.3871 61.1909C40.4059 61.2289 40.4321 61.2628 40.4641 61.2906C40.4961 61.3185 40.5333 61.3398 40.5735 61.3532C40.6137 61.3668 40.6562 61.3724 40.6985 61.3696C40.7409 61.3668 40.7822 61.3556 40.8202 61.3368C40.8583 61.3179 40.8922 61.2917 40.92 61.2597C40.9479 61.2277 40.9692 61.1905 40.9826 61.1503C41.3756 59.9746 42.271 59.2177 43.2373 59.2177C44.5965 59.2177 45.7045 60.6575 45.7045 62.4387C45.7198 63.3071 45.4265 64.1529 44.8767 64.8254C44.8357 64.8721 44.809 64.9297 44.8 64.9912C44.791 65.0527 44.7999 65.1155 44.8258 65.1721C44.8517 65.2286 44.8934 65.2764 44.9459 65.3098C44.9983 65.3431 45.0593 65.3606 45.1215 65.3601L45.1473 65.3568Z" fill="white"/>
</g>
<path d="M38.0642 65.0326C38.0972 65.2042 38.1783 65.3629 38.2981 65.4901C38.4178 65.6173 38.5713 65.7079 38.7406 65.7512C38.9099 65.7944 39.088 65.7887 39.2541 65.7346C39.4203 65.6805 39.5676 65.5802 39.6789 65.4455C39.7902 65.3109 39.8609 65.1473 39.8828 64.9739C39.9046 64.8006 39.8767 64.6246 39.8023 64.4665C39.728 64.3084 39.6101 64.1747 39.4626 64.081C39.3151 63.9874 39.144 63.9376 38.9693 63.9375C38.7051 63.9652 38.4623 64.0954 38.2931 64.3002C38.1238 64.505 38.0417 64.7679 38.0642 65.0326Z" fill="#263238"/>
<path d="M39.024 65.3568C39.0705 65.3568 39.1165 65.3468 39.1588 65.3273C39.201 65.3078 39.2386 65.2795 39.2688 65.2441C39.9111 64.4506 40.2532 63.4561 40.2351 62.4354C40.2351 60.3128 38.8372 58.5703 37.1237 58.5703C35.8578 58.5703 34.7305 59.5044 34.2474 60.9441C34.2304 60.9849 34.222 61.0287 34.2227 61.0728C34.2234 61.117 34.2331 61.1605 34.2513 61.2007C34.2695 61.2409 34.2958 61.2769 34.3285 61.3065C34.3612 61.3362 34.3996 61.3588 34.4414 61.3729C34.4832 61.3871 34.5275 61.3925 34.5715 61.3888C34.6155 61.3852 34.6582 61.3725 34.6971 61.3516C34.736 61.3308 34.7702 61.3021 34.7975 61.2675C34.8249 61.2328 34.8448 61.193 34.8561 61.1503C35.2491 59.9746 36.1445 59.2177 37.1108 59.2177C38.47 59.2177 39.578 60.6575 39.578 62.4387C39.5917 63.3069 39.2985 64.1521 38.7502 64.8254C38.7092 64.8721 38.6826 64.9297 38.6735 64.9912C38.6645 65.0527 38.6735 65.1155 38.6993 65.1721C38.7252 65.2286 38.7669 65.2764 38.8194 65.3098C38.8719 65.3431 38.9329 65.3606 38.995 65.3601L39.024 65.3568Z" fill="#263238"/>
<g opacity="0.4">
<path d="M39.024 65.3568C39.0705 65.3568 39.1165 65.3468 39.1588 65.3273C39.201 65.3078 39.2386 65.2795 39.2688 65.2441C39.9111 64.4506 40.2532 63.4561 40.2351 62.4354C40.2351 60.3128 38.8372 58.5703 37.1237 58.5703C35.8578 58.5703 34.7305 59.5044 34.2474 60.9441C34.2304 60.9849 34.222 61.0287 34.2227 61.0728C34.2234 61.117 34.2331 61.1605 34.2513 61.2007C34.2695 61.2409 34.2958 61.2769 34.3285 61.3065C34.3612 61.3362 34.3996 61.3588 34.4414 61.3729C34.4832 61.3871 34.5275 61.3925 34.5715 61.3888C34.6155 61.3852 34.6582 61.3725 34.6971 61.3516C34.736 61.3308 34.7702 61.3021 34.7975 61.2675C34.8249 61.2328 34.8448 61.193 34.8561 61.1503C35.2491 59.9746 36.1445 59.2177 37.1108 59.2177C38.47 59.2177 39.578 60.6575 39.578 62.4387C39.5917 63.3069 39.2985 64.1521 38.7502 64.8254C38.7092 64.8721 38.6826 64.9297 38.6735 64.9912C38.6645 65.0527 38.6735 65.1155 38.6993 65.1721C38.7252 65.2286 38.7669 65.2764 38.8194 65.3098C38.8719 65.3431 38.9329 65.3606 38.995 65.3601L39.024 65.3568Z" fill="white"/>
</g>
<path d="M31.9414 65.0326C31.9414 65.6382 32.3472 66.1277 32.8433 66.1277C33.0985 66.0796 33.3289 65.9438 33.4946 65.7439C33.6604 65.5439 33.7511 65.2923 33.7511 65.0326C33.7511 64.7729 33.6604 64.5213 33.4946 64.3214C33.3289 64.1214 33.0985 63.9857 32.8433 63.9375C32.3472 63.9375 31.9414 64.4206 31.9414 65.0326Z" fill="#263238"/>
<path d="M32.901 65.3568C32.9475 65.3568 32.9935 65.3468 33.0357 65.3273C33.078 65.3078 33.1155 65.2795 33.1458 65.2441C33.7868 64.4499 34.1288 63.4559 34.112 62.4354C34.112 60.3128 32.7142 58.5703 31.0006 58.5703C29.7348 58.5703 28.6042 59.5044 28.1243 60.9441C28.1074 60.9849 28.099 61.0287 28.0996 61.0728C28.1003 61.117 28.1101 61.1605 28.1283 61.2007C28.1465 61.2409 28.1727 61.2769 28.2054 61.3066C28.2381 61.3362 28.2766 61.3588 28.3184 61.3729C28.3602 61.3871 28.4045 61.3925 28.4484 61.3888C28.4924 61.3852 28.5352 61.3725 28.5741 61.3516C28.613 61.3308 28.6471 61.3021 28.6745 61.2675C28.7018 61.2328 28.7218 61.193 28.7331 61.1503C29.126 59.9746 30.0214 59.2177 30.9877 59.2177C32.347 59.2177 33.455 60.6575 33.455 62.4387C33.4686 63.3069 33.1755 64.1521 32.6272 64.8254C32.599 64.8574 32.5775 64.8947 32.5638 64.9351C32.5502 64.9755 32.5447 65.0183 32.5477 65.0608C32.5507 65.1034 32.5621 65.1449 32.5813 65.183C32.6005 65.2211 32.627 65.255 32.6594 65.2828C32.6926 65.3107 32.7311 65.3317 32.7726 65.3445C32.8141 65.3572 32.8578 65.3614 32.901 65.3568Z" fill="#263238"/>
<g opacity="0.4">
<path d="M32.901 65.3568C32.9475 65.3568 32.9935 65.3468 33.0357 65.3273C33.078 65.3078 33.1155 65.2795 33.1458 65.2441C33.7868 64.4499 34.1288 63.4559 34.112 62.4354C34.112 60.3128 32.7142 58.5703 31.0006 58.5703C29.7348 58.5703 28.6042 59.5044 28.1243 60.9441C28.1074 60.9849 28.099 61.0287 28.0996 61.0728C28.1003 61.117 28.1101 61.1605 28.1283 61.2007C28.1465 61.2409 28.1727 61.2769 28.2054 61.3066C28.2381 61.3362 28.2766 61.3588 28.3184 61.3729C28.3602 61.3871 28.4045 61.3925 28.4484 61.3888C28.4924 61.3852 28.5352 61.3725 28.5741 61.3516C28.613 61.3308 28.6471 61.3021 28.6745 61.2675C28.7018 61.2328 28.7218 61.193 28.7331 61.1503C29.126 59.9746 30.0214 59.2177 30.9877 59.2177C32.347 59.2177 33.455 60.6575 33.455 62.4387C33.4686 63.3069 33.1755 64.1521 32.6272 64.8254C32.599 64.8574 32.5775 64.8947 32.5638 64.9351C32.5502 64.9755 32.5447 65.0183 32.5477 65.0608C32.5507 65.1034 32.5621 65.1449 32.5813 65.183C32.6005 65.2211 32.627 65.255 32.6594 65.2828C32.6926 65.3107 32.7311 65.3317 32.7726 65.3445C32.8141 65.3572 32.8578 65.3614 32.901 65.3568Z" fill="white"/>
</g>
<path d="M37.3876 86.918H34.6885V91.5207H37.3876V86.918Z" fill="#FFC20D"/>
<path d="M41.7587 83.5664H39.0596V91.5189H41.7587V83.5664Z" fill="#FFC20D"/>
<path d="M46.1327 84.8242H43.4336V91.5206H46.1327V84.8242Z" fill="#FFC20D"/>
<path d="M50.5068 81.4766H47.8076V91.5227H50.5068V81.4766Z" fill="#FFC20D"/>
<path d="M54.8779 78.125H52.1787V91.5209H54.8779V78.125Z" fill="#FFC20D"/>
<path opacity="0.5" d="M37.3876 86.918H34.6885V91.5207H37.3876V86.918Z" fill="white"/>
<path opacity="0.5" d="M41.7587 83.5664H39.0596V91.5189H41.7587V83.5664Z" fill="white"/>
<path opacity="0.5" d="M46.1327 84.8242H43.4336V91.5206H46.1327V84.8242Z" fill="white"/>
<path opacity="0.5" d="M50.5068 81.4766H47.8076V91.5227H50.5068V81.4766Z" fill="white"/>
<path opacity="0.5" d="M54.8779 78.125H52.1787V91.5209H54.8779V78.125Z" fill="white"/>
<path d="M58.4786 90.8828H30.9814V92.1583H58.4786V90.8828Z" fill="#263238"/>
<path d="M32.1405 87.8629L31.5479 87.1156L40.3668 80.0972L44.7312 82.6288L56.5134 72.5859L57.1318 73.3106L44.8375 83.7948L40.4538 81.2503L32.1405 87.8629Z" fill="#FFC20D"/>
<path d="M57.5252 72.3594L55.7344 72.6364L56.997 73.9827L57.5252 72.3594Z" fill="#FFC20D"/>
<g opacity="0.3">
<path d="M46.5748 96.3043H31.0145C30.9291 96.3043 30.8471 96.2704 30.7867 96.21C30.7263 96.1496 30.6924 96.0677 30.6924 95.9823C30.6924 95.8968 30.7263 95.8149 30.7867 95.7545C30.8471 95.6941 30.9291 95.6602 31.0145 95.6602H46.5748C46.6603 95.6602 46.7422 95.6941 46.8026 95.7545C46.863 95.8149 46.8969 95.8968 46.8969 95.9823C46.8969 96.0677 46.863 96.1496 46.8026 96.21C46.7422 96.2704 46.6603 96.3043 46.5748 96.3043Z" fill="black"/>
</g>
<g opacity="0.3">
<path d="M58.5946 99.1793H33.2362C33.1507 99.1793 33.0688 99.1454 33.0084 99.085C32.948 99.0246 32.9141 98.9427 32.9141 98.8573C32.9141 98.7718 32.948 98.6899 33.0084 98.6295C33.0688 98.5691 33.1507 98.5352 33.2362 98.5352H58.5946C58.6801 98.5352 58.762 98.5691 58.8224 98.6295C58.8828 98.6899 58.9167 98.7718 58.9167 98.8573C58.9167 98.9427 58.8828 99.0246 58.8224 99.085C58.762 99.1454 58.6801 99.1793 58.5946 99.1793Z" fill="black"/>
<path d="M58.6202 100.793H31.0135C30.9281 100.793 30.8461 100.759 30.7857 100.698C30.7253 100.638 30.6914 100.556 30.6914 100.471C30.6914 100.385 30.7253 100.303 30.7857 100.243C30.8461 100.182 30.9281 100.148 31.0135 100.148H58.6202C58.7056 100.148 58.7875 100.182 58.8479 100.243C58.9083 100.303 58.9423 100.385 58.9423 100.471C58.9423 100.556 58.9083 100.638 58.8479 100.698C58.7875 100.759 58.7056 100.793 58.6202 100.793Z" fill="black"/>
<path d="M58.665 102.406H31.0487C30.9632 102.406 30.8813 102.372 30.8209 102.312C30.7605 102.251 30.7266 102.169 30.7266 102.084C30.7266 101.998 30.7605 101.916 30.8209 101.856C30.8813 101.796 30.9632 101.762 31.0487 101.762H58.665C58.7504 101.762 58.8324 101.796 58.8928 101.856C58.9532 101.916 58.9871 101.998 58.9871 102.084C58.9871 102.169 58.9532 102.251 58.8928 102.312C58.8324 102.372 58.7504 102.406 58.665 102.406Z" fill="black"/>
<path d="M54.1886 104.019H31.0848C30.9994 104.019 30.9174 103.985 30.857 103.925C30.7966 103.864 30.7627 103.783 30.7627 103.697C30.7627 103.612 30.7966 103.53 30.857 103.469C30.9174 103.409 30.9994 103.375 31.0848 103.375H54.1886C54.274 103.375 54.356 103.409 54.4164 103.469C54.4768 103.53 54.5107 103.612 54.5107 103.697C54.5107 103.783 54.4768 103.864 54.4164 103.925C54.356 103.985 54.274 104.019 54.1886 104.019Z" fill="black"/>
</g>
<g opacity="0.3">
<path d="M58.5956 106.914H33.2371C33.1517 106.914 33.0698 106.88 33.0094 106.819C32.949 106.759 32.915 106.677 32.915 106.592C32.915 106.506 32.949 106.424 33.0094 106.364C33.0698 106.303 33.1517 106.27 33.2371 106.27H58.5956C58.681 106.27 58.763 106.303 58.8234 106.364C58.8838 106.424 58.9177 106.506 58.9177 106.592C58.9177 106.677 58.8838 106.759 58.8234 106.819C58.763 106.88 58.681 106.914 58.5956 106.914Z" fill="black"/>
<path d="M58.6212 108.527H31.0145C30.9291 108.527 30.8471 108.493 30.7867 108.433C30.7263 108.372 30.6924 108.29 30.6924 108.205C30.6924 108.119 30.7263 108.038 30.7867 107.977C30.8471 107.917 30.9291 107.883 31.0145 107.883H58.6212C58.7066 107.883 58.7885 107.917 58.8489 107.977C58.9093 108.038 58.9433 108.119 58.9433 108.205C58.9433 108.29 58.9093 108.372 58.8489 108.433C58.7885 108.493 58.7066 108.527 58.6212 108.527Z" fill="black"/>
<path d="M58.666 110.156H31.0496C30.9642 110.156 30.8823 110.122 30.8219 110.062C30.7615 110.001 30.7275 109.919 30.7275 109.834C30.7275 109.748 30.7615 109.666 30.8219 109.606C30.8823 109.546 30.9642 109.512 31.0496 109.512H58.666C58.7514 109.512 58.8333 109.546 58.8937 109.606C58.9541 109.666 58.9881 109.748 58.9881 109.834C58.9881 109.919 58.9541 110.001 58.8937 110.062C58.8333 110.122 58.7514 110.156 58.666 110.156Z" fill="black"/>
<path d="M54.1886 111.765H31.0848C30.9994 111.765 30.9174 111.731 30.857 111.671C30.7966 111.611 30.7627 111.529 30.7627 111.443C30.7627 111.358 30.7966 111.276 30.857 111.215C30.9174 111.155 30.9994 111.121 31.0848 111.121H54.1886C54.274 111.121 54.356 111.155 54.4164 111.215C54.4768 111.276 54.5107 111.358 54.5107 111.443C54.5107 111.529 54.4768 111.611 54.4164 111.671C54.356 111.731 54.274 111.765 54.1886 111.765Z" fill="black"/>
</g>
<g opacity="0.3">
<path d="M46.5748 69.5465H31.0145C30.9291 69.5465 30.8471 69.5126 30.7867 69.4522C30.7263 69.3918 30.6924 69.3099 30.6924 69.2244C30.6924 69.139 30.7263 69.0571 30.7867 68.9967C30.8471 68.9363 30.9291 68.9023 31.0145 68.9023H46.5748C46.6603 68.9023 46.7422 68.9363 46.8026 68.9967C46.863 69.0571 46.8969 69.139 46.8969 69.2244C46.8969 69.3099 46.863 69.3918 46.8026 69.4522C46.7422 69.5126 46.6603 69.5465 46.5748 69.5465Z" fill="black"/>
</g>
<path d="M132.201 37.4414H95.215C94.5995 37.4414 94.1006 37.9404 94.1006 38.5558V99.6571C94.1006 100.273 94.5995 100.772 95.215 100.772H132.201C132.817 100.772 133.316 100.273 133.316 99.6571V38.5558C133.316 37.9404 132.817 37.4414 132.201 37.4414Z" fill="#FFC20D"/>
<path d="M103.341 37.1407H124.078C124.132 37.1407 124.185 37.1624 124.223 37.201C124.262 37.2397 124.284 37.2921 124.284 37.3468V39.4211H103.132V37.3468C103.132 37.3194 103.137 37.2924 103.148 37.2672C103.158 37.2419 103.174 37.2191 103.193 37.1999C103.213 37.1807 103.236 37.1656 103.261 37.1554C103.287 37.1452 103.314 37.1402 103.341 37.1407Z" fill="#263238"/>
<path opacity="0.9" d="M131.767 39.4219H95.6533V98.787H131.767V39.4219Z" fill="white"/>
<path d="M120.786 42.1507H114.438L114.364 41.9285C114.319 41.7908 114.231 41.671 114.114 41.5859C113.997 41.5009 113.856 41.4551 113.711 41.4551C113.567 41.4551 113.426 41.5009 113.308 41.5859C113.191 41.671 113.104 41.7908 113.059 41.9285L112.985 42.1507H106.63C106.384 42.1507 106.147 42.0531 105.973 41.8792C105.799 41.7053 105.7 41.4694 105.699 41.2231V38.8847C105.701 38.6386 105.8 38.4032 105.974 38.2295C106.148 38.0558 106.384 37.9579 106.63 37.957H120.802C121.048 37.9579 121.283 38.0559 121.457 38.2297C121.631 38.4034 121.729 38.6389 121.73 38.8847V41.2295C121.729 41.3522 121.704 41.4734 121.656 41.5863C121.608 41.6991 121.538 41.8014 121.45 41.887C121.362 41.9727 121.259 42.0401 121.145 42.0854C121.031 42.1306 120.909 42.1528 120.786 42.1507ZM114.879 41.5065H120.786C120.823 41.5069 120.861 41.4999 120.895 41.4858C120.93 41.4717 120.961 41.4509 120.987 41.4245C121.014 41.398 121.035 41.3666 121.049 41.332C121.063 41.2975 121.07 41.2604 121.07 41.2231V38.8847C121.07 38.8095 121.04 38.7374 120.987 38.6842C120.933 38.6311 120.861 38.6012 120.786 38.6012H106.614C106.576 38.6008 106.539 38.6078 106.505 38.6219C106.47 38.6359 106.438 38.6567 106.411 38.6831C106.385 38.7095 106.364 38.7408 106.349 38.7754C106.335 38.81 106.327 38.8472 106.327 38.8847V41.2295C106.327 41.267 106.335 41.3041 106.349 41.3387C106.364 41.3733 106.385 41.4047 106.411 41.4311C106.438 41.4574 106.47 41.4783 106.505 41.4923C106.539 41.5064 106.576 41.5134 106.614 41.513H112.54C112.654 41.3017 112.823 41.1252 113.03 41.0022C113.236 40.8791 113.471 40.8142 113.711 40.8142C113.951 40.8142 114.187 40.8791 114.393 41.0022C114.599 41.1252 114.768 41.3017 114.882 41.513L114.879 41.5065Z" fill="#263238"/>
<g opacity="0.5">
<path d="M120.786 42.1507H114.438L114.364 41.9285C114.319 41.7908 114.231 41.671 114.114 41.5859C113.997 41.5009 113.856 41.4551 113.711 41.4551C113.567 41.4551 113.426 41.5009 113.308 41.5859C113.191 41.671 113.104 41.7908 113.059 41.9285L112.985 42.1507H106.63C106.384 42.1507 106.147 42.0531 105.973 41.8792C105.799 41.7053 105.7 41.4694 105.699 41.2231V38.8847C105.701 38.6386 105.8 38.4032 105.974 38.2295C106.148 38.0558 106.384 37.9579 106.63 37.957H120.802C121.048 37.9579 121.283 38.0559 121.457 38.2297C121.631 38.4034 121.729 38.6389 121.73 38.8847V41.2295C121.729 41.3522 121.704 41.4734 121.656 41.5863C121.608 41.6991 121.538 41.8014 121.45 41.887C121.362 41.9727 121.259 42.0401 121.145 42.0854C121.031 42.1306 120.909 42.1528 120.786 42.1507ZM114.879 41.5065H120.786C120.823 41.5069 120.861 41.4999 120.895 41.4858C120.93 41.4717 120.961 41.4509 120.987 41.4245C121.014 41.398 121.035 41.3666 121.049 41.332C121.063 41.2975 121.07 41.2604 121.07 41.2231V38.8847C121.07 38.8095 121.04 38.7374 120.987 38.6842C120.933 38.6311 120.861 38.6012 120.786 38.6012H106.614C106.576 38.6008 106.539 38.6078 106.505 38.6219C106.47 38.6359 106.438 38.6567 106.411 38.6831C106.385 38.7095 106.364 38.7408 106.349 38.7754C106.335 38.81 106.327 38.8472 106.327 38.8847V41.2295C106.327 41.267 106.335 41.3041 106.349 41.3387C106.364 41.3733 106.385 41.4047 106.411 41.4311C106.438 41.4574 106.47 41.4783 106.505 41.4923C106.539 41.5064 106.576 41.5134 106.614 41.513H112.54C112.654 41.3017 112.823 41.1252 113.03 41.0022C113.236 40.8791 113.471 40.8142 113.711 40.8142C113.951 40.8142 114.187 40.8791 114.393 41.0022C114.599 41.1252 114.768 41.3017 114.882 41.513L114.879 41.5065Z" fill="white"/>
</g>
<path d="M119.794 37.5859H107.626C107.449 37.5859 107.307 37.7287 107.307 37.9048V38.6682C107.307 38.8443 107.449 38.987 107.626 38.987H119.794C119.97 38.987 120.113 38.8443 120.113 38.6682V37.9048C120.113 37.7287 119.97 37.5859 119.794 37.5859Z" fill="#263238"/>
<path opacity="0.2" d="M119.794 37.5859H107.626C107.449 37.5859 107.307 37.7287 107.307 37.9048V38.6682C107.307 38.8443 107.449 38.987 107.626 38.987H119.794C119.97 38.987 120.113 38.8443 120.113 38.6682V37.9048C120.113 37.7287 119.97 37.5859 119.794 37.5859Z" fill="white"/>
<path d="M128.942 89.1538C129.811 85.4696 127.529 81.7781 123.845 80.9085C120.161 80.0389 116.469 82.3207 115.6 86.0049C114.73 89.6891 117.012 93.3807 120.696 94.2503C124.38 95.1198 128.072 92.8381 128.942 89.1538Z" fill="#FFC20D"/>
<path opacity="0.3" d="M122.274 87.5885H129.128C129.128 88.9442 128.726 90.2693 127.973 91.3965C127.22 92.5237 126.149 93.4022 124.897 93.921C123.645 94.4397 122.266 94.5755 120.937 94.311C119.607 94.0465 118.386 93.3937 117.427 92.4352C116.469 91.4766 115.816 90.2553 115.552 88.9257C115.287 87.5961 115.423 86.218 115.942 84.9656C116.46 83.7131 117.339 82.6426 118.466 81.8895C119.593 81.1364 120.918 80.7344 122.274 80.7344H122.3L122.274 87.5885Z" fill="white"/>
<path opacity="0.3" d="M122.274 87.5885L125.972 93.3572C125.075 93.9324 124.057 94.2908 122.998 94.4039C121.939 94.517 120.868 94.3818 119.871 94.0089C118.873 93.636 117.976 93.0358 117.251 92.2558C116.525 91.4758 115.992 90.5375 115.692 89.5154C115.393 88.4932 115.336 87.4154 115.526 86.3674C115.715 85.3193 116.147 84.3299 116.786 83.4777C117.424 82.6254 118.253 81.9338 119.206 81.4576C120.158 80.9814 121.209 80.7338 122.274 80.7344H122.297L122.274 87.5885Z" fill="white"/>
<path opacity="0.3" d="M122.274 87.5885L116.496 91.2733C115.835 90.2373 115.465 89.0428 115.425 87.8149C115.384 86.5869 115.674 85.3706 116.265 84.2933C116.856 83.216 117.725 82.3172 118.782 81.6911C119.839 81.065 121.045 80.7346 122.274 80.7344H122.297L122.274 87.5885Z" fill="white"/>
<g opacity="0.5">
<path d="M98.2559 50.0508V66.2263H129.177V50.0508H98.2559ZM128.922 52.576H123.572V50.2924H128.922V52.576ZM111.835 52.576H106.328V50.2924H111.835V52.576ZM112.077 50.2924H117.582V52.576H112.09L112.077 50.2924ZM111.835 52.8176V65.9848H106.328V52.824L111.835 52.8176ZM112.077 52.8176H117.582V65.9848H112.09L112.077 52.8176ZM117.823 52.8176H123.331V65.9848H117.823V52.8176ZM117.823 52.576V50.2924H123.331V52.576H117.823ZM106.086 50.2924V52.576H98.4974V50.2924H106.086ZM98.4974 52.824H106.086V65.9912H98.4974V52.824ZM123.572 65.9912V52.824H128.922V65.9912H123.572Z" fill="black"/>
<path d="M108.083 55.0778H110.312C110.397 55.0778 110.479 55.0438 110.539 54.9834C110.6 54.923 110.634 54.8411 110.634 54.7557C110.634 54.6703 110.6 54.5883 110.539 54.5279C110.479 54.4675 110.397 54.4336 110.312 54.4336H108.083C107.997 54.4336 107.915 54.4675 107.855 54.5279C107.795 54.5883 107.761 54.6703 107.761 54.7557C107.761 54.8411 107.795 54.923 107.855 54.9834C107.915 55.0438 107.997 55.0778 108.083 55.0778Z" fill="black"/>
<path d="M113.7 57.9997H116.119C116.204 57.9997 116.286 57.9657 116.347 57.9053C116.407 57.8449 116.441 57.763 116.441 57.6776C116.441 57.5921 116.407 57.5102 116.347 57.4498C116.286 57.3894 116.204 57.3555 116.119 57.3555H113.7C113.615 57.3555 113.533 57.3894 113.472 57.4498C113.412 57.5102 113.378 57.5921 113.378 57.6776C113.378 57.763 113.412 57.8449 113.472 57.9053C113.533 57.9657 113.615 57.9997 113.7 57.9997Z" fill="black"/>
<path d="M116.235 63.2031H113.7C113.615 63.2031 113.533 63.2371 113.472 63.2975C113.412 63.3579 113.378 63.4398 113.378 63.5252C113.378 63.6106 113.412 63.6926 113.472 63.753C113.533 63.8134 113.615 63.8473 113.7 63.8473H116.225C116.311 63.8473 116.393 63.8134 116.453 63.753C116.513 63.6926 116.547 63.6106 116.547 63.5252C116.547 63.4398 116.513 63.3579 116.453 63.2975C116.393 63.2371 116.311 63.2031 116.225 63.2031H116.235Z" fill="black"/>
<path d="M121.839 60.2773H119.176C119.09 60.2773 119.008 60.3113 118.948 60.3717C118.887 60.4321 118.854 60.514 118.854 60.5994C118.854 60.6849 118.887 60.7668 118.948 60.8272C119.008 60.8876 119.09 60.9215 119.176 60.9215H121.846C121.931 60.9215 122.013 60.8876 122.074 60.8272C122.134 60.7668 122.168 60.6849 122.168 60.5994C122.168 60.514 122.134 60.4321 122.074 60.3717C122.013 60.3113 121.931 60.2773 121.846 60.2773H121.839Z" fill="black"/>
<path d="M127.602 54.4336H124.896C124.811 54.4336 124.729 54.4675 124.669 54.5279C124.608 54.5883 124.574 54.6703 124.574 54.7557C124.574 54.8411 124.608 54.923 124.669 54.9834C124.729 55.0438 124.811 55.0778 124.896 55.0778H127.602C127.687 55.0778 127.769 55.0438 127.83 54.9834C127.89 54.923 127.924 54.8411 127.924 54.7557C127.924 54.6703 127.89 54.5883 127.83 54.5279C127.769 54.4675 127.687 54.4336 127.602 54.4336Z" fill="black"/>
<path d="M127.254 63.2031H124.896C124.811 63.2031 124.729 63.2371 124.669 63.2975C124.608 63.3579 124.574 63.4398 124.574 63.5252C124.574 63.6106 124.608 63.6926 124.669 63.753C124.729 63.8134 124.811 63.8473 124.896 63.8473H127.254C127.339 63.8473 127.421 63.8134 127.482 63.753C127.542 63.6926 127.576 63.6106 127.576 63.5252C127.576 63.4398 127.542 63.3579 127.482 63.2975C127.421 63.2371 127.339 63.2031 127.254 63.2031Z" fill="black"/>
<path d="M108.083 60.9215H109.993C110.078 60.9215 110.16 60.8876 110.221 60.8272C110.281 60.7668 110.315 60.6849 110.315 60.5994C110.315 60.514 110.281 60.4321 110.221 60.3717C110.16 60.3113 110.078 60.2773 109.993 60.2773H108.083C107.997 60.2773 107.915 60.3113 107.855 60.3717C107.795 60.4321 107.761 60.514 107.761 60.5994C107.761 60.6849 107.795 60.7668 107.855 60.8272C107.915 60.8876 107.997 60.9215 108.083 60.9215Z" fill="black"/>
<path d="M110.312 63.2031H108.083C107.997 63.2031 107.915 63.2371 107.855 63.2975C107.795 63.3579 107.761 63.4398 107.761 63.5252C107.761 63.6106 107.795 63.6926 107.855 63.753C107.915 63.8134 107.997 63.8473 108.083 63.8473H110.312C110.397 63.8473 110.479 63.8134 110.539 63.753C110.6 63.6926 110.634 63.6106 110.634 63.5252C110.634 63.4398 110.6 63.3579 110.539 63.2975C110.479 63.2371 110.397 63.2031 110.312 63.2031Z" fill="black"/>
<path d="M99.66 55.0778H104.756C104.841 55.0778 104.923 55.0438 104.983 54.9834C105.044 54.923 105.078 54.8411 105.078 54.7557C105.078 54.6703 105.044 54.5883 104.983 54.5279C104.923 54.4675 104.841 54.4336 104.756 54.4336H99.66C99.5746 54.4336 99.4926 54.4675 99.4322 54.5279C99.3718 54.5883 99.3379 54.6703 99.3379 54.7557C99.3379 54.8411 99.3718 54.923 99.4322 54.9834C99.4926 55.0438 99.5746 55.0778 99.66 55.0778Z" fill="black"/>
<path d="M99.66 57.9997H103.052C103.137 57.9997 103.219 57.9657 103.279 57.9053C103.34 57.8449 103.374 57.763 103.374 57.6776C103.374 57.5921 103.34 57.5102 103.279 57.4498C103.219 57.3894 103.137 57.3555 103.052 57.3555H99.66C99.5746 57.3555 99.4926 57.3894 99.4322 57.4498C99.3718 57.5102 99.3379 57.5921 99.3379 57.6776C99.3379 57.763 99.3718 57.8449 99.4322 57.9053C99.4926 57.9657 99.5746 57.9997 99.66 57.9997Z" fill="black"/>
<path d="M104.756 60.2773H99.66C99.5746 60.2773 99.4926 60.3113 99.4322 60.3717C99.3718 60.4321 99.3379 60.514 99.3379 60.5994C99.3379 60.6849 99.3718 60.7668 99.4322 60.8272C99.4926 60.8876 99.5746 60.9215 99.66 60.9215H104.756C104.841 60.9215 104.923 60.8876 104.983 60.8272C105.044 60.7668 105.078 60.6849 105.078 60.5994C105.078 60.514 105.044 60.4321 104.983 60.3717C104.923 60.3113 104.841 60.2773 104.756 60.2773Z" fill="black"/>
<path d="M102.208 63.2031H99.66C99.5746 63.2031 99.4926 63.2371 99.4322 63.2975C99.3718 63.3579 99.3379 63.4398 99.3379 63.5252C99.3379 63.6106 99.3718 63.6926 99.4322 63.753C99.4926 63.8134 99.5746 63.8473 99.66 63.8473H102.208C102.293 63.8473 102.375 63.8134 102.436 63.753C102.496 63.6926 102.53 63.6106 102.53 63.5252C102.53 63.4398 102.496 63.3579 102.436 63.2975C102.375 63.2371 102.293 63.2031 102.208 63.2031Z" fill="black"/>
</g>
<g opacity="0.5">
<path d="M110.637 46.6598H98.578C98.4925 46.6598 98.4106 46.6259 98.3502 46.5655C98.2898 46.5051 98.2559 46.4231 98.2559 46.3377C98.2559 46.2523 98.2898 46.1704 98.3502 46.11C98.4106 46.0496 98.4925 46.0156 98.578 46.0156H110.637C110.723 46.0156 110.805 46.0496 110.865 46.11C110.925 46.1704 110.959 46.2523 110.959 46.3377C110.959 46.4231 110.925 46.5051 110.865 46.5655C110.805 46.6259 110.723 46.6598 110.637 46.6598Z" fill="black"/>
</g>
<g opacity="0.5">
<path d="M106.408 48.4684H98.578C98.4925 48.4684 98.4106 48.4345 98.3502 48.3741C98.2898 48.3137 98.2559 48.2317 98.2559 48.1463C98.2559 48.0609 98.2898 47.979 98.3502 47.9186C98.4106 47.8582 98.4925 47.8242 98.578 47.8242H106.408C106.493 47.8242 106.575 47.8582 106.636 47.9186C106.696 47.979 106.73 48.0609 106.73 48.1463C106.73 48.2317 106.696 48.3137 106.636 48.3741C106.575 48.4345 106.493 48.4684 106.408 48.4684Z" fill="black"/>
</g>
<g opacity="0.5">
<path d="M114.138 69.0231H98.578C98.4925 69.0231 98.4106 68.9892 98.3502 68.9288C98.2898 68.8684 98.2559 68.7864 98.2559 68.701C98.2559 68.6156 98.2898 68.5337 98.3502 68.4733C98.4106 68.4128 98.4925 68.3789 98.578 68.3789H114.138C114.224 68.3789 114.306 68.4128 114.366 68.4733C114.426 68.5337 114.46 68.6156 114.46 68.701C114.46 68.7864 114.426 68.8684 114.366 68.9288C114.306 68.9892 114.224 69.0231 114.138 69.0231Z" fill="black"/>
</g>
<path d="M100.179 81.7891H98.2559V83.712H100.179V81.7891Z" fill="#FFC20D"/>
<g opacity="0.5">
<path d="M111.123 83.0739H101.576C101.491 83.0739 101.409 83.0399 101.348 82.9795C101.288 82.9191 101.254 82.8372 101.254 82.7518C101.254 82.6664 101.288 82.5844 101.348 82.524C101.409 82.4636 101.491 82.4297 101.576 82.4297H111.123C111.208 82.4297 111.29 82.4636 111.351 82.524C111.411 82.5844 111.445 82.6664 111.445 82.7518C111.445 82.8372 111.411 82.9191 111.351 82.9795C111.29 83.0399 111.208 83.0739 111.123 83.0739Z" fill="black"/>
</g>
<path d="M100.179 85.0156H98.2559V86.9385H100.179V85.0156Z" fill="#FFC20D"/>
<g opacity="0.5">
<path d="M111.123 86.2926H101.576C101.491 86.2926 101.409 86.2587 101.348 86.1983C101.288 86.1379 101.254 86.056 101.254 85.9705C101.254 85.8851 101.288 85.8032 101.348 85.7428C101.409 85.6824 101.491 85.6484 101.576 85.6484H111.123C111.208 85.6484 111.29 85.6824 111.351 85.7428C111.411 85.8032 111.445 85.8851 111.445 85.9705C111.445 86.056 111.411 86.1379 111.351 86.1983C111.29 86.2587 111.208 86.2926 111.123 86.2926Z" fill="black"/>
</g>
<path d="M100.179 88.2344H98.2559V90.1573H100.179V88.2344Z" fill="#FFC20D"/>
<g opacity="0.5">
<path d="M111.123 89.5192H101.576C101.491 89.5192 101.409 89.4852 101.348 89.4248C101.288 89.3644 101.254 89.2825 101.254 89.1971C101.254 89.1117 101.288 89.0297 101.348 88.9693C101.409 88.9089 101.491 88.875 101.576 88.875H111.123C111.208 88.875 111.29 88.9089 111.351 88.9693C111.411 89.0297 111.445 89.1117 111.445 89.1971C111.445 89.2825 111.411 89.3644 111.351 89.4248C111.29 89.4852 111.208 89.5192 111.123 89.5192Z" fill="black"/>
</g>
<path d="M100.179 91.4609H98.2559V93.3838H100.179V91.4609Z" fill="#FFC20D"/>
<g opacity="0.5">
<path d="M111.123 92.7458H101.576C101.491 92.7458 101.409 92.7118 101.348 92.6514C101.288 92.591 101.254 92.5091 101.254 92.4237C101.254 92.3382 101.288 92.2563 101.348 92.1959C101.409 92.1355 101.491 92.1016 101.576 92.1016H111.123C111.208 92.1016 111.29 92.1355 111.351 92.1959C111.411 92.2563 111.445 92.3382 111.445 92.4237C111.445 92.5091 111.411 92.591 111.351 92.6514C111.29 92.7118 111.208 92.7458 111.123 92.7458Z" fill="black"/>
</g>
<g opacity="0.5">
<path d="M128.735 71.902H100.797C100.711 71.902 100.629 71.8681 100.569 71.8077C100.509 71.7473 100.475 71.6653 100.475 71.5799C100.475 71.4945 100.509 71.4126 100.569 71.3521C100.629 71.2917 100.711 71.2578 100.797 71.2578H128.735C128.821 71.2578 128.903 71.2917 128.963 71.3521C129.023 71.4126 129.057 71.4945 129.057 71.5799C129.057 71.6653 129.023 71.7473 128.963 71.8077C128.903 71.8681 128.821 71.902 128.735 71.902Z" fill="black"/>
<path d="M128.771 73.5153H98.578C98.4925 73.5153 98.4106 73.4813 98.3502 73.4209C98.2898 73.3605 98.2559 73.2786 98.2559 73.1932C98.2559 73.1078 98.2898 73.0258 98.3502 72.9654C98.4106 72.905 98.4925 72.8711 98.578 72.8711H128.771C128.856 72.8711 128.938 72.905 128.999 72.9654C129.059 73.0258 129.093 73.1078 129.093 73.1932C129.093 73.2786 129.059 73.3605 128.999 73.4209C128.938 73.4813 128.856 73.5153 128.771 73.5153Z" fill="black"/>
<path d="M128.806 75.1286H98.6131C98.5277 75.1286 98.4458 75.0946 98.3853 75.0342C98.3249 74.9738 98.291 74.8919 98.291 74.8065C98.291 74.721 98.3249 74.6391 98.3853 74.5787C98.4458 74.5183 98.5277 74.4844 98.6131 74.4844H128.806C128.892 74.4844 128.974 74.5183 129.034 74.5787C129.094 74.6391 129.128 74.721 129.128 74.8065C129.128 74.8919 129.094 74.9738 129.034 75.0342C128.974 75.0946 128.892 75.1286 128.806 75.1286Z" fill="black"/>
<path d="M124.329 76.7418H98.6483C98.5628 76.7418 98.4809 76.7079 98.4205 76.6475C98.3601 76.5871 98.3262 76.5052 98.3262 76.4198C98.3262 76.3343 98.3601 76.2524 98.4205 76.192C98.4809 76.1316 98.5628 76.0977 98.6483 76.0977H124.329C124.414 76.0977 124.496 76.1316 124.557 76.192C124.617 76.2524 124.651 76.3343 124.651 76.4198C124.651 76.5052 124.617 76.5871 124.557 76.6475C124.496 76.7079 124.414 76.7418 124.329 76.7418Z" fill="black"/>
</g>
<path opacity="0.3" d="M100.179 85.0156H98.2559V86.9385H100.179V85.0156Z" fill="white"/>
<path opacity="0.5" d="M100.179 88.2344H98.2559V90.1573H100.179V88.2344Z" fill="white"/>
<path opacity="0.7" d="M100.179 91.4609H98.2559V93.3838H100.179V91.4609Z" fill="white"/>
<path d="M131.224 108.952C131.224 108.952 129.694 105.615 131.443 102.323C133.192 99.0313 133.698 98.2583 132.583 97.5851C131.469 96.9119 130.957 100.217 130.957 100.217C130.405 98.7215 130.349 97.0888 130.796 95.5591C131.569 93.1789 132.055 89.3009 130.999 88.8853C129.942 88.4698 130.796 93.7168 129.874 95.514C129.407 94.256 129.105 92.9427 128.976 91.607C128.85 89.697 129.047 86.6436 128.212 85.8609C127.378 85.0782 126.84 85.6193 127.662 89.8387C128.155 92.3601 128.428 94.9197 128.477 97.4885C128.477 97.4885 126.663 91.9517 125.442 91.7906C124.222 91.6296 124.225 93.4237 125.269 94.9794C126.312 96.5351 128.325 99.318 128.654 100.751C128.654 100.751 126.66 96.5866 124.869 97.8524C123.078 99.1183 126.428 101.647 127.923 102.555C129.417 103.463 130.448 109.174 130.448 109.174L131.224 108.952Z" fill="#FFC20D"/>
<path opacity="0.2" d="M131.224 108.952C131.224 108.952 129.694 105.615 131.443 102.323C133.192 99.0313 133.698 98.2583 132.583 97.5851C131.469 96.9119 130.957 100.217 130.957 100.217C130.405 98.7215 130.349 97.0888 130.796 95.5591C131.569 93.1789 132.055 89.3009 130.999 88.8853C129.942 88.4698 130.796 93.7168 129.874 95.514C129.407 94.256 129.105 92.9427 128.976 91.607C128.85 89.697 129.047 86.6436 128.212 85.8609C127.378 85.0782 126.84 85.6193 127.662 89.8387C128.155 92.3601 128.428 94.9197 128.477 97.4885C128.477 97.4885 126.663 91.9517 125.442 91.7906C124.222 91.6296 124.225 93.4237 125.269 94.9794C126.312 96.5351 128.325 99.318 128.654 100.751C128.654 100.751 126.66 96.5866 124.869 97.8524C123.078 99.1183 126.428 101.647 127.923 102.555C129.417 103.463 130.448 109.174 130.448 109.174L131.224 108.952Z" fill="black"/>
<path d="M130.017 110.321C130.017 110.321 131.508 106.962 129.72 103.699C127.933 100.436 127.417 99.6665 128.522 98.974C129.627 98.2815 130.181 101.583 130.181 101.583C130.715 100.082 130.752 98.4493 130.287 96.9255C129.485 94.5549 128.95 90.6866 130.004 90.2549C131.057 89.8233 130.265 95.0864 131.205 96.8643C131.658 95.6012 131.945 94.2846 132.059 92.9476C132.162 91.0312 131.927 87.981 132.754 87.1854C133.582 86.3898 134.123 86.9245 133.35 91.1568C132.887 93.6852 132.646 96.2491 132.629 98.8194C132.629 98.8194 134.378 93.2569 135.602 93.0894C136.826 92.9219 136.838 94.6998 135.814 96.2717C134.79 97.8435 132.812 100.659 132.5 102.095C132.5 102.095 134.432 97.9079 136.249 99.1512C138.066 100.394 134.735 102.968 133.254 103.899C131.772 104.83 130.799 110.544 130.799 110.544L130.017 110.321Z" fill="#FFC20D"/>
<path d="M136.89 107.93H124.583L125.578 116.736H135.892L136.89 107.93Z" fill="#263238"/>
<path d="M62.5703 32.3945H71.8272C72.5824 32.3945 73.3066 32.6945 73.8406 33.2285C74.3746 33.7625 74.6746 34.4867 74.6746 35.2418V43.2942C74.6746 44.0494 74.3746 44.7736 73.8406 45.3076C73.3066 45.8415 72.5824 46.1415 71.8272 46.1415H69.1217L70.0879 49.6523L67.1891 46.1415H62.5703C62.1961 46.1419 61.8255 46.0686 61.4797 45.9257C61.1338 45.7828 60.8196 45.5731 60.5548 45.3087C60.2901 45.0443 60.0801 44.7302 59.9368 44.3846C59.7935 44.0389 59.7197 43.6684 59.7197 43.2942V35.2418C59.7197 34.8677 59.7935 34.4971 59.9368 34.1515C60.0801 33.8058 60.2901 33.4918 60.5548 33.2274C60.8196 32.9629 61.1338 32.7532 61.4797 32.6103C61.8255 32.4674 62.1961 32.3941 62.5703 32.3945Z" fill="#FFC20D"/>
<path opacity="0.7" d="M62.5703 32.3945H71.8272C72.5824 32.3945 73.3066 32.6945 73.8406 33.2285C74.3746 33.7625 74.6746 34.4867 74.6746 35.2418V43.2942C74.6746 44.0494 74.3746 44.7736 73.8406 45.3076C73.3066 45.8415 72.5824 46.1415 71.8272 46.1415H69.1217L70.0879 49.6523L67.1891 46.1415H62.5703C62.1961 46.1419 61.8255 46.0686 61.4797 45.9257C61.1338 45.7828 60.8196 45.5731 60.5548 45.3087C60.2901 45.0443 60.0801 44.7302 59.9368 44.3846C59.7935 44.0389 59.7197 43.6684 59.7197 43.2942V35.2418C59.7197 34.8677 59.7935 34.4971 59.9368 34.1515C60.0801 33.8058 60.2901 33.4918 60.5548 33.2274C60.8196 32.9629 61.1338 32.7532 61.4797 32.6103C61.8255 32.4674 62.1961 32.3941 62.5703 32.3945Z" fill="white"/>
<path opacity="0.7" d="M65.7978 41.0233C67.3899 41.0233 68.6805 39.7326 68.6805 38.1406C68.6805 36.5485 67.3899 35.2578 65.7978 35.2578C64.2057 35.2578 62.915 36.5485 62.915 38.1406C62.915 39.7326 64.2057 41.0233 65.7978 41.0233Z" fill="white"/>
<path d="M65.7975 41.4363C65.0345 41.4357 64.2954 41.1706 63.706 40.6862C63.1166 40.2018 62.7134 39.528 62.565 38.7796C62.4166 38.0313 62.5322 37.2546 62.8921 36.5819C63.2521 35.9093 63.8341 35.3822 64.5391 35.0905C65.2441 34.7987 66.0284 34.7605 66.7584 34.9821C67.4884 35.2037 68.119 35.6716 68.5428 36.306C68.9666 36.9404 69.1573 37.7021 69.0826 38.4614C69.0078 39.2207 68.6721 39.9305 68.1327 40.47C67.8263 40.777 67.4622 41.0204 67.0615 41.1862C66.6607 41.352 66.2312 41.437 65.7975 41.4363ZM65.7975 35.6741C65.2274 35.6742 64.675 35.8719 64.2344 36.2336C63.7938 36.5953 63.4923 37.0986 63.3811 37.6578C63.27 38.2169 63.3562 38.7972 63.625 39.2999C63.8938 39.8026 64.3286 40.1966 64.8553 40.4147C65.382 40.6328 65.968 40.6615 66.5135 40.4959C67.059 40.3304 67.5302 39.9808 67.8468 39.5068C68.1635 39.0327 68.306 38.4636 68.25 37.8963C68.1941 37.329 67.9431 36.7986 67.54 36.3956C67.3118 36.1659 67.0403 35.9839 66.7411 35.86C66.442 35.7362 66.1212 35.673 65.7975 35.6741Z" fill="#FFC20D"/>
<path d="M68.1342 39.8844L67.542 40.4766L70.8285 43.7631L71.4207 43.1709L68.1342 39.8844Z" fill="#FFC20D"/>
<path d="M71.4759 44.4529C71.3096 44.4514 71.1503 44.3856 71.0314 44.2693L68.5223 41.7602C68.4596 41.7031 68.4092 41.6338 68.374 41.5566C68.3388 41.4794 68.3196 41.3959 68.3176 41.3111C68.3155 41.2263 68.3307 41.142 68.3621 41.0632C68.3936 40.9844 68.4407 40.9128 68.5005 40.8527C68.5604 40.7926 68.6318 40.7453 68.7105 40.7136C68.7892 40.6818 68.8734 40.6664 68.9583 40.6681C69.0431 40.6698 69.1266 40.6887 69.204 40.7236C69.2813 40.7585 69.3507 40.8087 69.4081 40.8712L71.9204 43.3836C72.0073 43.4716 72.0663 43.5833 72.0899 43.7046C72.1136 43.826 72.1009 43.9517 72.0534 44.0659C72.006 44.1801 71.9258 44.2777 71.8231 44.3466C71.7204 44.4154 71.5996 44.4524 71.4759 44.4529Z" fill="#FFC20D"/>
<path d="M66.2454 36.8356C66.2454 36.963 66.2076 37.0876 66.1368 37.1935C66.0661 37.2994 65.9654 37.382 65.8477 37.4307C65.73 37.4795 65.6005 37.4923 65.4755 37.4674C65.3506 37.4425 65.2358 37.3812 65.1457 37.2911C65.0556 37.201 64.9943 37.0862 64.9694 36.9613C64.9446 36.8363 64.9573 36.7068 65.0061 36.5891C65.0548 36.4714 65.1374 36.3708 65.2433 36.3C65.3493 36.2292 65.4738 36.1914 65.6012 36.1914C65.7721 36.1914 65.9359 36.2593 66.0567 36.3801C66.1775 36.5009 66.2454 36.6647 66.2454 36.8356Z" fill="white"/>
<path d="M67.2018 37.3065C67.2018 37.3702 67.1829 37.4324 67.1475 37.4854C67.1121 37.5384 67.0618 37.5797 67.003 37.604C66.9441 37.6284 66.8794 37.6348 66.8169 37.6224C66.7544 37.6099 66.697 37.5793 66.652 37.5342C66.6069 37.4892 66.5762 37.4318 66.5638 37.3693C66.5514 37.3068 66.5578 37.2421 66.5821 37.1832C66.6065 37.1244 66.6478 37.074 66.7008 37.0387C66.7537 37.0033 66.816 36.9844 66.8797 36.9844C66.9651 36.9844 67.0471 37.0183 67.1075 37.0787C67.1679 37.1391 67.2018 37.221 67.2018 37.3065Z" fill="white"/>
<path d="M93.0137 91.625H45.041V99.3456H93.0137V91.625Z" fill="#FFC20D"/>
<path opacity="0.8" d="M93.0137 91.625H45.041V99.3456H93.0137V91.625Z" fill="white"/>
<path opacity="0.2" d="M93.0139 93.6632V93.0352L60.1699 93.2961L93.0139 93.6632Z" fill="black"/>
<path opacity="0.2" d="M93.014 96.3692V95.8828L78.2686 96.411L93.014 96.3692Z" fill="black"/>
<path opacity="0.2" d="M93.014 98.1789V97.5508L69.2402 97.9147L93.014 98.1789Z" fill="black"/>
<path opacity="0.2" d="M55.7674 91.625L55.0781 97.3808L55.8995 96.5047C56.1755 97.5555 56.6915 98.5279 57.4069 99.3456C57.92 98.6734 58.3283 97.9273 58.6179 97.1328L81.0228 96.8751L58.8305 96.3888C58.8994 96.0713 58.9351 95.7474 58.9368 95.4225C58.9356 95.1534 58.9098 94.8849 58.8595 94.6205L91.7324 94.5367L58.7822 94.2791C58.6663 93.8454 58.5043 93.4254 58.2991 93.0261C58.773 92.6081 59.3839 92.3789 60.0158 92.3819H93.0144V91.625H55.7674Z" fill="black"/>
<path d="M56.5082 95.4396C56.5107 96.3651 56.88 97.2518 57.535 97.9056C58.19 98.5595 59.0774 98.927 60.0029 98.9279H93.5683C93.6022 98.9279 93.6357 98.9345 93.667 98.9475C93.6982 98.9604 93.7266 98.9794 93.7505 99.0034C93.7745 99.0273 93.7935 99.0557 93.8064 99.0869C93.8194 99.1182 93.826 99.1517 93.826 99.1856V99.4626C93.826 99.5309 93.7989 99.5964 93.7505 99.6448C93.7022 99.6931 93.6367 99.7202 93.5683 99.7202H43.9852C43.4196 99.7203 42.8597 99.6083 42.3376 99.3908C41.8155 99.1733 41.3417 98.8546 40.9434 98.453C40.5452 98.0515 40.2304 97.575 40.0172 97.0512C39.804 96.5274 39.6966 95.9665 39.7013 95.4009C39.7292 94.2578 40.2056 93.1715 41.0276 92.3766C41.8496 91.5817 42.9512 91.142 44.0947 91.1525H93.5683C93.6367 91.1525 93.7022 91.1797 93.7505 91.228C93.7989 91.2763 93.826 91.3419 93.826 91.4102V91.684C93.826 91.7523 93.7989 91.8179 93.7505 91.8662C93.7022 91.9145 93.6367 91.9417 93.5683 91.9417H60.106C59.1683 91.9397 58.2671 92.3044 57.5948 92.9581C56.9226 93.6117 56.5326 94.5023 56.5082 95.4396Z" fill="#FFC20D"/>
<path opacity="0.4" d="M56.5082 95.4396C56.5107 96.3651 56.88 97.2518 57.535 97.9056C58.19 98.5595 59.0774 98.927 60.0029 98.9279H93.5683C93.6022 98.9279 93.6357 98.9345 93.667 98.9475C93.6982 98.9604 93.7266 98.9794 93.7505 99.0034C93.7745 99.0273 93.7935 99.0557 93.8064 99.0869C93.8194 99.1182 93.826 99.1517 93.826 99.1856V99.4626C93.826 99.5309 93.7989 99.5964 93.7505 99.6448C93.7022 99.6931 93.6367 99.7202 93.5683 99.7202H43.9852C43.4196 99.7203 42.8597 99.6083 42.3376 99.3908C41.8155 99.1733 41.3417 98.8546 40.9434 98.453C40.5452 98.0515 40.2304 97.575 40.0172 97.0512C39.804 96.5274 39.6966 95.9665 39.7013 95.4009C39.7292 94.2578 40.2056 93.1715 41.0276 92.3766C41.8496 91.5817 42.9512 91.142 44.0947 91.1525H93.5683C93.6367 91.1525 93.7022 91.1797 93.7505 91.228C93.7989 91.2763 93.826 91.3419 93.826 91.4102V91.684C93.826 91.7523 93.7989 91.8179 93.7505 91.8662C93.7022 91.9145 93.6367 91.9417 93.5683 91.9417H60.106C59.1683 91.9397 58.2671 92.3044 57.5948 92.9581C56.9226 93.6117 56.5326 94.5023 56.5082 95.4396Z" fill="white"/>
<path d="M56.5082 95.4395C56.5107 96.365 56.8799 97.2517 57.535 97.9055C58.19 98.5594 59.0774 98.9269 60.0029 98.9278H93.5683C93.6022 98.9278 93.6357 98.9344 93.6669 98.9474C93.6982 98.9603 93.7266 98.9793 93.7505 99.0033C93.7744 99.0272 93.7934 99.0556 93.8064 99.0868C93.8193 99.1181 93.826 99.1516 93.826 99.1855V99.4625C93.826 99.5308 93.7988 99.5963 93.7505 99.6447C93.7022 99.693 93.6367 99.7201 93.5683 99.7201H59.8096C59.244 99.7197 58.6841 99.6075 58.1621 99.3899C57.64 99.1723 57.1662 98.8536 56.7677 98.4522C56.3693 98.0507 56.0542 97.5745 55.8405 97.0508C55.6268 96.5272 55.5187 95.9664 55.5226 95.4009C55.5521 94.2594 56.0281 93.175 56.8483 92.3806C57.6686 91.5863 58.7676 91.1453 59.9095 91.1524H93.5683C93.6367 91.1524 93.7022 91.1796 93.7505 91.2279C93.7988 91.2762 93.826 91.3418 93.826 91.4101V91.6839C93.826 91.7522 93.7988 91.8178 93.7505 91.8661C93.7022 91.9144 93.6367 91.9416 93.5683 91.9416H60.106C59.1683 91.9396 58.2671 92.3043 57.5948 92.958C56.9225 93.6116 56.5326 94.5022 56.5082 95.4395Z" fill="#FFC20D"/>
<path d="M62.8271 93.3594V96.4547L63.948 95.3338L65.0335 96.4193V93.3594H62.8271Z" fill="#263238"/>
<path opacity="0.6" d="M56.5082 95.4395C56.5107 96.365 56.8799 97.2517 57.535 97.9055C58.19 98.5594 59.0774 98.9269 60.0029 98.9278H93.5683C93.6022 98.9278 93.6357 98.9344 93.6669 98.9474C93.6982 98.9603 93.7266 98.9793 93.7505 99.0033C93.7744 99.0272 93.7934 99.0556 93.8064 99.0868C93.8193 99.1181 93.826 99.1516 93.826 99.1855V99.4625C93.826 99.5308 93.7988 99.5963 93.7505 99.6447C93.7022 99.693 93.6367 99.7201 93.5683 99.7201H59.8096C59.244 99.7197 58.6841 99.6075 58.1621 99.3899C57.64 99.1723 57.1662 98.8536 56.7677 98.4522C56.3693 98.0507 56.0542 97.5745 55.8405 97.0508C55.6268 96.5272 55.5187 95.9664 55.5226 95.4009C55.5521 94.2594 56.0281 93.175 56.8483 92.3806C57.6686 91.5863 58.7676 91.1453 59.9095 91.1524H93.5683C93.6367 91.1524 93.7022 91.1796 93.7505 91.2279C93.7988 91.2762 93.826 91.3418 93.826 91.4101V91.6839C93.826 91.7522 93.7988 91.8178 93.7505 91.8661C93.7022 91.9144 93.6367 91.9416 93.5683 91.9416H60.106C59.1683 91.9396 58.2671 92.3043 57.5948 92.958C56.9225 93.6116 56.5326 94.5022 56.5082 95.4395Z" fill="white"/>
<path d="M95.3301 108.633H47.3574V116.353H95.3301V108.633Z" fill="#FFC20D"/>
<path opacity="0.7" d="M95.3301 108.633H47.3574V116.353H95.3301V108.633Z" fill="white"/>
<path opacity="0.2" d="M95.3303 110.675V110.047L62.4863 110.311L95.3303 110.675Z" fill="black"/>
<path opacity="0.2" d="M95.3295 113.378V112.895L80.584 113.42L95.3295 113.378Z" fill="black"/>
<path opacity="0.2" d="M95.3294 115.191V114.566L71.5557 114.927L95.3294 115.191Z" fill="black"/>
<path opacity="0.2" d="M58.0834 108.633L57.3877 114.389L58.209 113.513C58.4881 114.563 59.0049 115.535 59.7197 116.353C60.2305 115.679 60.6376 114.932 60.9275 114.137L83.3324 113.88L61.1401 113.397C61.2097 113.079 61.2464 112.755 61.2496 112.43C61.2474 112.161 61.2204 111.893 61.1691 111.628L94.0517 111.554L61.0982 111.297C60.9823 110.864 60.8203 110.445 60.6151 110.047C61.0866 109.623 61.6978 109.388 62.3318 109.387H95.34V108.633H58.0834Z" fill="black"/>
<path d="M58.8238 112.45C58.8221 112.91 58.9113 113.366 59.0862 113.791C59.2611 114.216 59.5183 114.603 59.843 114.928C60.1677 115.254 60.5536 115.512 60.9784 115.688C61.4032 115.865 61.8587 115.955 62.3185 115.955H95.884C95.9523 115.955 96.0178 115.982 96.0662 116.03C96.1145 116.078 96.1416 116.144 96.1416 116.212V116.489C96.1416 116.558 96.1145 116.623 96.0662 116.671C96.0178 116.72 95.9523 116.747 95.884 116.747H43.6628C43.0978 116.746 42.5385 116.634 42.017 116.416C41.4956 116.198 41.0222 115.88 40.6242 115.479C40.2261 115.078 39.9112 114.602 39.6975 114.079C39.4838 113.556 39.3756 112.996 39.379 112.431C39.406 111.286 39.8824 110.198 40.7051 109.402C41.5278 108.606 42.6307 108.165 43.7756 108.176H95.884C95.9523 108.176 96.0178 108.203 96.0662 108.251C96.1145 108.3 96.1416 108.365 96.1416 108.434V108.711C96.1416 108.779 96.1145 108.845 96.0662 108.893C96.0178 108.941 95.9523 108.968 95.884 108.968H62.4216C61.4867 108.966 60.5878 109.329 59.9159 109.979C59.2441 110.629 58.8523 111.516 58.8238 112.45Z" fill="#263238"/>
<path opacity="0.2" d="M58.8238 112.45C58.8221 112.91 58.9113 113.366 59.0862 113.791C59.2611 114.216 59.5183 114.603 59.843 114.928C60.1677 115.254 60.5536 115.512 60.9784 115.688C61.4032 115.865 61.8587 115.955 62.3185 115.955H95.884C95.9523 115.955 96.0178 115.982 96.0662 116.03C96.1145 116.078 96.1416 116.144 96.1416 116.212V116.489C96.1416 116.558 96.1145 116.623 96.0662 116.671C96.0178 116.72 95.9523 116.747 95.884 116.747H43.6628C43.0978 116.746 42.5385 116.634 42.017 116.416C41.4956 116.198 41.0222 115.88 40.6242 115.479C40.2261 115.078 39.9112 114.602 39.6975 114.079C39.4838 113.556 39.3756 112.996 39.379 112.431C39.406 111.286 39.8824 110.198 40.7051 109.402C41.5278 108.606 42.6307 108.165 43.7756 108.176H95.884C95.9523 108.176 96.0178 108.203 96.0662 108.251C96.1145 108.3 96.1416 108.365 96.1416 108.434V108.711C96.1416 108.779 96.1145 108.845 96.0662 108.893C96.0178 108.941 95.9523 108.968 95.884 108.968H62.4216C61.4867 108.966 60.5878 109.329 59.9159 109.979C59.2441 110.629 58.8523 111.516 58.8238 112.45Z" fill="white"/>
<path d="M58.8233 112.45C58.8216 112.91 58.9108 113.366 59.0857 113.791C59.2606 114.216 59.5178 114.603 59.8425 114.928C60.1673 115.254 60.5531 115.512 60.9779 115.688C61.4028 115.865 61.8582 115.955 62.318 115.955H95.8835C95.9518 115.955 96.0174 115.982 96.0657 116.03C96.114 116.078 96.1412 116.144 96.1412 116.212V116.489C96.1412 116.558 96.114 116.623 96.0657 116.671C96.0174 116.72 95.9518 116.747 95.8835 116.747H62.1248C61.5595 116.747 60.9998 116.635 60.478 116.418C59.9561 116.2 59.4824 115.882 59.0842 115.481C58.686 115.08 58.3711 114.604 58.1577 114.08C57.9444 113.557 57.8367 112.996 57.8409 112.431C57.8671 111.287 58.3428 110.199 59.165 109.402C59.9872 108.606 61.0898 108.166 62.2343 108.176H95.8835C95.9518 108.176 96.0174 108.203 96.0657 108.251C96.114 108.3 96.1412 108.365 96.1412 108.434V108.711C96.1412 108.779 96.114 108.845 96.0657 108.893C96.0174 108.941 95.9518 108.968 95.8835 108.968H62.4211C61.4862 108.966 60.5873 109.329 59.9155 109.979C59.2436 110.629 58.8518 111.516 58.8233 112.45Z" fill="#263238"/>
<path d="M62.4863 111.473V114.568L63.604 113.447L64.6895 114.533V111.473H62.4863Z" fill="#FFC20D"/>
<path opacity="0.4" d="M58.8233 112.45C58.8216 112.91 58.9108 113.366 59.0857 113.791C59.2606 114.216 59.5178 114.603 59.8425 114.928C60.1673 115.254 60.5531 115.512 60.9779 115.688C61.4028 115.865 61.8582 115.955 62.318 115.955H95.8835C95.9518 115.955 96.0174 115.982 96.0657 116.03C96.114 116.078 96.1412 116.144 96.1412 116.212V116.489C96.1412 116.558 96.114 116.623 96.0657 116.671C96.0174 116.72 95.9518 116.747 95.8835 116.747H62.1248C61.5595 116.747 60.9998 116.635 60.478 116.418C59.9561 116.2 59.4824 115.882 59.0842 115.481C58.686 115.08 58.3711 114.604 58.1577 114.08C57.9444 113.557 57.8367 112.996 57.8409 112.431C57.8671 111.287 58.3428 110.199 59.165 109.402C59.9872 108.606 61.0898 108.166 62.2343 108.176H95.8835C95.9518 108.176 96.0174 108.203 96.0657 108.251C96.114 108.3 96.1412 108.365 96.1412 108.434V108.711C96.1412 108.779 96.114 108.845 96.0657 108.893C96.0174 108.941 95.9518 108.968 95.8835 108.968H62.4211C61.4862 108.966 60.5873 109.329 59.9155 109.979C59.2436 110.629 58.8518 111.516 58.8233 112.45Z" fill="white"/>
<path d="M43.0413 107.836H60.8145V100.125H43.0413V107.836Z" fill="#FFC20D"/>
<path opacity="0.8" d="M43.0413 107.836H60.8145V100.125H43.0413V107.836Z" fill="white"/>
<path opacity="0.2" d="M59.3905 100.883H43.041V100.129H59.3712L59.3905 100.883Z" fill="black"/>
<path opacity="0.2" d="M59.3903 101.539L44.6416 101.855L59.3903 102.167V101.539Z" fill="black"/>
<path opacity="0.2" d="M59.3908 104.391L43.7725 104.655L59.3908 104.877V104.391Z" fill="black"/>
<path opacity="0.2" d="M59.391 106.059L43.9111 106.371L59.391 106.683V106.059Z" fill="black"/>
<path opacity="0.2" d="M43.041 102.637L58.0152 103.088L43.041 103.403V102.637Z" fill="black"/>
<path d="M82.71 103.939C82.7083 104.865 82.3395 105.753 81.6844 106.407C81.0293 107.062 80.1414 107.43 79.2153 107.43H42.2196C42.1513 107.43 42.0857 107.458 42.0374 107.506C41.9891 107.554 41.9619 107.62 41.9619 107.688V107.962C41.9619 108.03 41.9891 108.096 42.0374 108.144C42.0857 108.192 42.1513 108.22 42.2196 108.22H79.4086C79.9741 108.22 80.5342 108.109 81.0564 107.892C81.5787 107.675 82.0527 107.357 82.4511 106.955C82.8495 106.554 83.1643 106.078 83.3774 105.554C83.5905 105.03 83.6975 104.469 83.6924 103.903C83.6662 102.759 83.1906 101.671 82.3684 100.875C81.5462 100.079 80.4436 99.6382 79.2991 99.6486H42.2196C42.1513 99.6486 42.0857 99.6758 42.0374 99.7241C41.9891 99.7724 41.9619 99.838 41.9619 99.9063V100.183C41.9619 100.252 41.9891 100.317 42.0374 100.365C42.0857 100.414 42.1513 100.441 42.2196 100.441H79.1123C80.0499 100.439 80.9511 100.804 81.6234 101.457C82.2957 102.111 82.6857 103.002 82.71 103.939Z" fill="#263238"/>
<path opacity="0.4" d="M82.71 103.939C82.7083 104.865 82.3395 105.753 81.6844 106.407C81.0293 107.062 80.1414 107.43 79.2153 107.43H42.2196C42.1513 107.43 42.0857 107.458 42.0374 107.506C41.9891 107.554 41.9619 107.62 41.9619 107.688V107.962C41.9619 108.03 41.9891 108.096 42.0374 108.144C42.0857 108.192 42.1513 108.22 42.2196 108.22H79.4086C79.9741 108.22 80.5342 108.109 81.0564 107.892C81.5787 107.675 82.0527 107.357 82.4511 106.955C82.8495 106.554 83.1643 106.078 83.3774 105.554C83.5905 105.03 83.6975 104.469 83.6924 103.903C83.6662 102.759 83.1906 101.671 82.3684 100.875C81.5462 100.079 80.4436 99.6382 79.2991 99.6486H42.2196C42.1513 99.6486 42.0857 99.6758 42.0374 99.7241C41.9891 99.7724 41.9619 99.838 41.9619 99.9063V100.183C41.9619 100.252 41.9891 100.317 42.0374 100.365C42.0857 100.414 42.1513 100.441 42.2196 100.441H79.1123C80.0499 100.439 80.9511 100.804 81.6234 101.457C82.2957 102.111 82.6857 103.002 82.71 103.939Z" fill="white"/>
<path d="M96.2028 103.986C96.2028 105.011 95.7955 105.994 95.0707 106.719C94.3458 107.444 93.3627 107.851 92.3376 107.851H59.3906V100.121H92.3409C93.3654 100.122 94.3477 100.53 95.0718 101.254C95.796 101.979 96.2028 102.962 96.2028 103.986Z" fill="#FFC20D"/>
<path opacity="0.7" d="M59.3906 100.129V107.859H92.3441C93.3692 107.859 94.3523 107.452 95.0771 106.727C95.802 106.002 96.2092 105.019 96.2092 103.994C96.2092 102.969 95.802 101.986 95.0771 101.261C94.3523 100.536 93.3692 100.129 92.3441 100.129H59.3906Z" fill="white"/>
<path opacity="0.2" d="M59.3906 102.167V101.539L92.2346 101.803L59.3906 102.167Z" fill="black"/>
<path opacity="0.2" d="M59.3906 104.877V104.391L74.1361 104.919L59.3906 104.877Z" fill="black"/>
<path opacity="0.2" d="M59.3906 106.683V106.059L83.1644 106.419L59.3906 106.683Z" fill="black"/>
<path opacity="0.2" d="M92.3956 100.881C93.0296 100.883 93.6408 101.118 94.1124 101.542C93.907 101.941 93.744 102.361 93.626 102.795L60.6758 103.052L93.5519 103.133C93.5006 103.398 93.4736 103.668 93.4714 103.938C93.472 104.263 93.5098 104.588 93.5841 104.904L71.3886 105.388L93.7903 105.648C93.9844 106.183 94.2338 106.696 94.5343 107.178C95.2086 106.709 95.7159 106.037 95.9826 105.26C96.2492 104.483 96.2614 103.642 96.0173 102.857C95.7732 102.073 95.2855 101.387 94.625 100.898C93.9645 100.41 93.1656 100.144 92.3441 100.141H59.3906V100.894L92.3956 100.881Z" fill="black"/>
<path d="M95.8969 103.939C95.8952 104.865 95.5264 105.753 94.8713 106.407C94.2162 107.062 93.3282 107.43 92.4022 107.43H58.8368C58.7684 107.43 58.7029 107.458 58.6546 107.506C58.6062 107.554 58.5791 107.62 58.5791 107.688V107.962C58.5791 108.03 58.6062 108.096 58.6546 108.144C58.7029 108.192 58.7684 108.22 58.8368 108.22H92.5955C93.161 108.22 93.7211 108.109 94.2433 107.892C94.7656 107.675 95.2396 107.357 95.638 106.955C96.0364 106.554 96.3512 106.078 96.5643 105.554C96.7773 105.03 96.8844 104.469 96.8793 103.903C96.8531 102.759 96.3775 101.671 95.5553 100.875C94.7331 100.079 93.6305 99.6382 92.486 99.6486H58.8368C58.7684 99.6486 58.7029 99.6758 58.6546 99.7241C58.6062 99.7724 58.5791 99.838 58.5791 99.9063V100.183C58.5791 100.252 58.6062 100.317 58.6546 100.365C58.7029 100.414 58.7684 100.441 58.8368 100.441H92.2991C93.2368 100.439 94.138 100.804 94.8103 101.457C95.4825 102.111 95.8725 103.002 95.8969 103.939Z" fill="#263238"/>
<path d="M92.2347 102.961V106.056L91.1138 104.935L90.0283 106.021V102.961H92.2347Z" fill="#FFC20D"/>
<path d="M100.94 59.4535H100.135C99.9853 59.4566 99.8386 59.4953 99.7069 59.5664C99.5753 59.6376 99.4625 59.7391 99.378 59.8626L98.5792 61.0286C98.4207 61.2589 98.3198 61.5239 98.285 61.8014C98.2503 62.0789 98.2827 62.3606 98.3795 62.6229L98.5019 62.945C99.8386 63.0094 101.333 62.0947 101.333 62.0947L101.79 61.8821C101.885 61.8409 101.97 61.7814 102.042 61.7069C102.113 61.6325 102.169 61.5447 102.206 61.4485C102.243 61.3524 102.261 61.2498 102.258 61.1467C102.255 61.0437 102.232 60.9422 102.19 60.8482L101.781 59.9624C101.705 59.8057 101.585 59.6742 101.436 59.5839C101.286 59.4937 101.114 59.4484 100.94 59.4535Z" fill="#EEC1BB"/>
<path d="M85.6768 60.8757C87.7447 62.5474 89.9768 64.1579 92.4408 65.1435L92.1348 65.0791C92.3603 65.1338 92.9529 64.9084 93.2621 64.757C94.9821 63.9195 96.6119 62.6634 98.158 61.5167C98.3162 61.4022 98.5102 61.348 98.7049 61.364C98.8996 61.3801 99.0821 61.4653 99.2195 61.6042C99.3568 61.7431 99.4399 61.9265 99.4538 62.1214C99.4676 62.3163 99.4113 62.5096 99.295 62.6666C97.7521 64.5991 94.28 68.5255 91.5293 67.9521C88.5145 67.0535 85.8507 65.3754 83.4769 63.3237C81.9373 61.842 84.0019 59.5262 85.6768 60.8757Z" fill="#EBC0BB"/>
<path d="M81.3385 58.5992C80.5848 60.6992 81.7991 62.7864 84.7205 65.244C86.1731 65.0282 88.1347 62.0488 88.1347 62.0488C88.1347 62.0488 84.0247 57.9389 81.3385 58.5992Z" fill="#FFC20D"/>
<path d="M83.8509 45.5529C83.8509 45.5529 80.9746 42.609 77.2254 46.3034C73.4763 49.9978 72.7451 62.2374 72.7451 62.2374L82.5303 64.1377C82.5303 64.1377 83.7962 62.6851 84.4468 58.4946C85.0974 54.3042 85.4421 50.2973 86.2666 49.3633C87.0912 48.4292 83.8509 45.5529 83.8509 45.5529Z" fill="#263238"/>
<path d="M92.2542 107.537L90.1348 106.693L90.9625 103.604L91.7259 100.77L94.4057 101.362L93.2687 104.631L92.2542 107.537Z" fill="#EEC1BB"/>
<path opacity="0.2" d="M93.2424 104.697L90.9395 103.66L91.7157 100.797L94.3987 101.377L93.2424 104.697Z" fill="black"/>
<path d="M76.2165 79.7018C76.2165 79.7018 93.9316 77.3118 98.8532 80.4555C103.775 83.5991 94.2441 102.744 94.2441 102.744L91.2615 102.1C91.2615 102.1 93.4968 86.9231 93.3293 86.2886C93.1618 85.6541 84.8196 89.793 73.4014 90.1859L76.2165 79.7018Z" fill="#263238"/>
<path opacity="0.2" d="M76.2165 79.7018C76.2165 79.7018 93.9316 77.3118 98.8532 80.4555C103.775 83.5991 94.2441 102.744 94.2441 102.744L91.2615 102.1C91.2615 102.1 93.4968 86.9231 93.3293 86.2886C93.1618 85.6541 84.8196 89.793 73.4014 90.1859L76.2165 79.7018Z" fill="black"/>
<path d="M91.0977 101.137L94.8501 102.354L94.1769 104.065L90.7305 102.892L91.0977 101.137Z" fill="#263238"/>
<path d="M94.2152 108.012C93.8094 108.012 93.0943 107.368 92.9461 107.214C92.9376 107.206 92.931 107.196 92.9268 107.185V107.165C92.9261 107.145 92.9317 107.125 92.9429 107.107C92.9622 107.085 93.4325 106.463 93.8834 106.444C93.9516 106.437 94.0205 106.445 94.0851 106.468C94.1497 106.491 94.2084 106.528 94.2571 106.576C94.3698 106.682 94.4084 106.785 94.3698 106.882C94.3086 107.036 94.0477 107.12 93.7546 107.172C93.9918 107.206 94.2149 107.305 94.3988 107.458C94.4311 107.491 94.4561 107.53 94.4722 107.572C94.4883 107.615 94.4951 107.661 94.4922 107.706C94.4922 107.893 94.3923 107.967 94.3215 107.993C94.2876 108.006 94.2515 108.013 94.2152 108.012ZM93.2167 107.249C93.5903 107.571 94.0864 107.919 94.2635 107.848C94.2635 107.848 94.3279 107.826 94.3344 107.697C94.3357 107.672 94.3318 107.648 94.323 107.625C94.3141 107.602 94.3004 107.582 94.2828 107.565C94.1089 107.371 93.571 107.281 93.2167 107.255V107.249ZM93.9189 106.605H93.8899C93.605 106.68 93.3526 106.846 93.1716 107.078C93.6644 107.056 94.1669 106.962 94.2184 106.83C94.2345 106.788 94.1798 106.727 94.1443 106.695C94.0828 106.639 94.002 106.609 93.9189 106.611V106.605Z" fill="#577AFA"/>
<path d="M89.7388 105.376C89.8225 105.138 92.6988 106.282 92.6988 106.282C92.6988 106.282 93.9099 108.707 95.5333 109.692C97.1566 110.678 95.8296 111.412 93.868 110.772L89.0109 109.19C87.6098 108.739 88.8724 107.837 89.7388 105.376Z" fill="#2E353A"/>
<path opacity="0.4" d="M91.0977 101.137L94.8501 102.354L94.1769 104.065L90.7305 102.892L91.0977 101.137Z" fill="white"/>
<path d="M101.498 113.667L99.3013 114.285L98.0773 111.329L96.9629 108.617L99.4495 107.457L100.535 110.746L101.498 113.667Z" fill="#EEC1BB"/>
<path d="M98.3248 112.731C98.3248 112.48 101.423 112.754 101.423 112.754C101.423 112.754 103.275 114.735 105.111 115.214C106.947 115.694 105.888 116.777 103.823 116.728L98.7177 116.599C97.2522 116.564 98.1992 115.337 98.3248 112.731Z" fill="#2E353A"/>
<path d="M103.05 113.582C102.598 113.521 102.162 113.378 101.761 113.16L101.739 113.144C101.738 113.136 101.738 113.127 101.739 113.118C101.738 113.111 101.738 113.103 101.739 113.096C101.735 113.085 101.735 113.074 101.739 113.064C101.739 113.028 102.026 112.32 102.448 112.155C102.511 112.129 102.58 112.118 102.648 112.122C102.717 112.126 102.784 112.145 102.844 112.178C102.982 112.246 103.047 112.333 103.04 112.439C103.024 112.603 102.792 112.761 102.534 112.89C102.774 112.854 103.018 112.886 103.24 112.983C103.279 113.005 103.314 113.035 103.341 113.071C103.368 113.107 103.388 113.149 103.398 113.193C103.418 113.248 103.422 113.309 103.407 113.366C103.393 113.424 103.362 113.475 103.317 113.515C103.239 113.568 103.144 113.592 103.05 113.582ZM102.029 113.118C102.483 113.321 103.053 113.511 103.204 113.392C103.204 113.392 103.259 113.35 103.23 113.228C103.225 113.204 103.214 113.181 103.199 113.162C103.184 113.142 103.165 113.127 103.143 113.115C102.918 112.98 102.377 113.054 102.029 113.118ZM102.609 112.278C102.568 112.278 102.527 112.285 102.489 112.3C102.241 112.451 102.047 112.676 101.935 112.945C102.402 112.784 102.857 112.548 102.869 112.41C102.869 112.365 102.802 112.32 102.76 112.3C102.712 112.281 102.66 112.274 102.609 112.278Z" fill="#577AFA"/>
<path opacity="0.2" d="M100.555 110.813L98.0971 111.389L96.9697 108.645L99.4531 107.473L100.555 110.813Z" fill="black"/>
<path d="M81.2412 81.9946C81.2412 81.9946 80.9867 78.4903 80.8676 77.7752C80.7691 77.0664 80.6238 76.3648 80.4327 75.6752C79.6565 73.34 69.2432 76.0874 69.2432 76.0874L68.9469 77.6979C68.9469 77.6979 64.2475 86.5587 67.3879 89.7507C68.3542 90.717 70.2127 91.155 72.1227 91.1421C72.1227 91.1421 77.9623 91.4223 88.8233 90.9167C88.8233 90.9167 88.0181 97.2426 96.969 109.637L99.9645 108.67C99.9645 108.67 94.0509 86.169 93.5484 85.7696C89.2195 82.2717 81.2412 81.9946 81.2412 81.9946Z" fill="#263238"/>
<path d="M96.4277 109.485L100.148 108.168L100.654 109.936L97.204 111.102L96.4277 109.485Z" fill="#263238"/>
<path d="M84.7426 60.2776C84.7426 60.2776 84.3689 61.1924 83.8472 62.7899C83.7215 63.1636 83.5927 63.5759 83.4574 64.0203C83.2803 64.6033 83.0902 65.2443 82.9002 65.9529C82.7617 66.4554 82.6232 66.9804 82.4879 67.5344C82.3526 68.0884 82.2077 68.6875 82.0692 69.2963C82.0692 69.3671 82.037 69.4412 82.0241 69.5121C81.4352 72.0043 81.0049 74.5313 80.7357 77.078L69.2949 76.0796C69.2933 73.5686 69.4233 71.0592 69.6847 68.5619C69.8909 66.3982 70.2908 64.2573 70.8796 62.1651C71.3338 60.6577 71.92 59.3629 72.6737 58.5158C72.6737 58.5286 78.8772 56.493 84.7426 60.2776Z" fill="#FFC20D"/>
<path d="M78.9127 56.8843C75.4695 55.7828 74.1328 58.4948 74.1328 58.4948L75.9655 58.3144L79.6857 62.9848L81.8663 60.16L83.2384 60.8976C83.2384 60.8976 81.8953 57.8377 78.9127 56.8843Z" fill="#FFC20D"/>
<path opacity="0.6" d="M78.9127 56.8843C75.4695 55.7828 74.1328 58.4948 74.1328 58.4948L75.9655 58.3144L79.6857 62.9848L81.8663 60.16L83.2384 60.8976C83.2384 60.8976 81.8953 57.8377 78.9127 56.8843Z" fill="white"/>
<path d="M79.5891 62.7285L76.4326 58.0034C77.9207 57.3302 78.9063 54.4829 79.1221 52.8789L81.351 56.248C80.6231 57.3302 80.1367 58.5671 81.8051 59.5012C81.8116 59.5012 79.5859 62.7189 79.5891 62.7285Z" fill="#EEC1BB"/>
<path opacity="0.2" d="M80.0302 54.2539L81.3508 56.2477C81.1773 56.4951 81.0274 56.7582 80.903 57.0336C80.2428 56.7373 79.5406 55.7452 79.7049 55.0591C79.7609 54.7724 79.8713 54.4991 80.0302 54.2539Z" fill="black"/>
<path d="M69.1177 76.4414L72.6961 76.6765L72.5673 77.6879L68.7666 77.4141L69.1177 76.4414Z" fill="black"/>
<path d="M81.0224 78.2878L72.999 77.7145L73.1279 76.7031L80.8935 77.2153L81.0224 78.2878Z" fill="black"/>
<path d="M78.0821 78.288H78.0499L77.0836 78.2236C76.9683 78.2161 76.8605 78.1637 76.7834 78.0776C76.7063 77.9914 76.6661 77.8785 76.6714 77.763L76.6971 77.1188C76.6968 77.0579 76.7096 76.9976 76.7346 76.942C76.7596 76.8865 76.7962 76.8369 76.8421 76.7967C76.8847 76.756 76.9354 76.7246 76.9908 76.7046C77.0463 76.6847 77.1054 76.6765 77.1642 76.6808L78.1691 76.7388C78.2277 76.742 78.285 76.7569 78.3377 76.7826C78.3905 76.8083 78.4375 76.8442 78.4762 76.8883C78.5149 76.9324 78.5444 76.9837 78.563 77.0394C78.5816 77.095 78.589 77.1537 78.5846 77.2122L78.5363 77.8822C78.5257 77.9947 78.4731 78.099 78.3889 78.1742C78.3046 78.2495 78.1951 78.2902 78.0821 78.288ZM77.0063 77.1156L76.9774 77.7598C76.9764 77.7912 76.9876 77.8218 77.0086 77.8451C77.0296 77.8685 77.0588 77.8829 77.0901 77.8854L78.0564 77.9531C78.0883 77.9548 78.1197 77.944 78.1438 77.923C78.1679 77.9019 78.1827 77.8722 78.1852 77.8403L78.2335 77.1736C78.2351 77.1574 78.2334 77.141 78.2284 77.1255C78.2234 77.11 78.2153 77.0957 78.2045 77.0834C78.1938 77.0717 78.1809 77.0623 78.1666 77.0556C78.1522 77.049 78.1366 77.0453 78.1208 77.0448L77.1159 76.9868C77.0838 76.9857 77.0525 76.9973 77.0289 77.019C77.0167 77.0293 77.007 77.0421 77.0003 77.0566C76.9936 77.0711 76.9902 77.0868 76.9902 77.1027L77.0063 77.1156Z" fill="white"/>
<path opacity="0.5" d="M96.4277 109.485L100.148 108.168L100.654 109.936L97.204 111.102L96.4277 109.485Z" fill="white"/>
<path d="M86.9427 52.0152C86.926 52.0157 86.9096 52.0114 86.8953 52.0029C86.881 51.9943 86.8695 51.9818 86.8621 51.9669C86.7729 51.7932 86.6453 51.642 86.4891 51.5248C86.3329 51.4077 86.152 51.3275 85.9603 51.2905C85.9483 51.2902 85.9365 51.2873 85.9256 51.2821C85.9148 51.277 85.9051 51.2696 85.8972 51.2606C85.8894 51.2515 85.8835 51.2409 85.8799 51.2294C85.8763 51.2179 85.8752 51.2058 85.8765 51.1939C85.8797 51.1709 85.8914 51.1498 85.9093 51.1349C85.9271 51.12 85.9499 51.1123 85.9732 51.1134C86.1959 51.1515 86.4066 51.2413 86.5884 51.3755C86.7702 51.5097 86.918 51.6847 87.02 51.8864C87.0255 51.8967 87.0288 51.908 87.0299 51.9197C87.0309 51.9313 87.0296 51.9431 87.026 51.9542C87.0224 51.9653 87.0165 51.9756 87.0089 51.9844C87.0012 51.9933 86.9918 52.0005 86.9813 52.0056L86.9427 52.0152Z" fill="#263238"/>
<path d="M85.8668 53.4102C85.9019 53.8572 85.9906 54.2984 86.1309 54.7243C86.017 54.7941 85.8861 54.831 85.7525 54.831C85.6189 54.831 85.4879 54.7941 85.374 54.7243L85.8668 53.4102Z" fill="#D4827D"/>
<path d="M86.5793 52.9275C86.4956 53.1272 86.3216 53.2496 86.1864 53.1916C86.0511 53.1336 86.0092 52.9275 86.093 52.7278C86.1767 52.5281 86.3506 52.4057 86.4859 52.4637C86.6212 52.5216 86.6598 52.7246 86.5793 52.9275Z" fill="#263238"/>
<path d="M86.4238 52.4531H86.9295C86.9295 52.4531 86.5623 52.7398 86.4238 52.4531Z" fill="#263238"/>
<path d="M79.1637 54.663C79.1759 54.696 79.1921 54.7274 79.212 54.7564C79.2442 54.8208 79.2796 54.8788 79.3151 54.9432C79.5219 55.3398 79.8029 55.6929 80.1429 55.9836C81.2412 56.8951 82.1881 57.185 83.0417 56.9499C83.0836 56.9499 83.1222 56.9241 83.1641 56.9112C84.4267 56.4345 85.4188 54.9786 86.2594 53.0139C86.6235 52.2532 86.8617 51.4384 86.9648 50.6014C86.9648 50.6014 86.9648 50.5724 86.9648 50.566C86.9648 50.5595 86.9648 50.4983 86.9648 50.4693C87.006 49.9879 86.9262 49.5039 86.7327 49.0612C86.5392 48.6185 86.2381 48.2312 85.8568 47.9344C85.5312 47.6664 85.1769 47.4352 84.8003 47.2452C81.1413 45.3448 77.3954 51.1264 79.1637 54.663Z" fill="#EEC1BB"/>
<path d="M86.9649 50.567C86.9649 50.567 85.8634 53.2597 82.8486 53.1437C82.8486 53.1437 80.4393 55.305 78.8707 54.561C76.7288 53.5464 76.3809 49.5975 78.6581 46.9016C81.6182 43.4036 87.8024 46.1156 86.9649 50.567Z" fill="#263238"/>
<path d="M84.4751 53.031C84.6781 52.6252 84.6942 51.7845 84.021 51.5591C83.3478 51.3336 82.1528 52.7476 83.5701 53.9103C83.773 54.0778 84.0661 53.8749 84.4751 53.031Z" fill="#EEC1BB"/>
<path d="M83.8513 45.5541C83.8513 45.5541 86.6374 46.1725 87.5006 47.8539C88.512 49.8186 88.512 51.3228 85.684 52.2343C85.684 52.2343 82.215 48.8008 80.6915 48.3918C79.8032 48.1477 78.896 47.9786 77.9795 47.8861C79.0714 45.0001 82.7529 44.2979 83.8513 45.5541Z" fill="#263238"/>
<path d="M82.8547 53.145C81.1025 56.6462 77.2503 62.5953 73.1436 58.3984C73.1436 58.3984 74.6187 53.6507 77.5981 51.6924C80.5775 49.7341 82.8547 53.145 82.8547 53.145Z" fill="#263238"/>
<path d="M82.2207 58.9855C83.7184 60.0935 81.802 63.7396 83.6927 64.5513C83.515 64.3057 83.4033 64.0185 83.3684 63.7174C83.3334 63.4162 83.3763 63.1112 83.493 62.8313C83.8891 61.8393 85.4964 59.2174 84.8554 55.668L82.2207 58.9855Z" fill="#263238"/>
<path opacity="0.2" d="M74.462 66.6717C74.462 66.6717 72.0141 68.3305 69.6982 68.5366C69.9016 66.3809 70.2972 64.2476 70.8803 62.1624C71.1766 61.9955 71.5071 61.8986 71.8466 61.8789C73.5666 61.9111 74.1947 63.5248 74.1947 63.5248C74.3808 64.5632 74.4703 65.6167 74.462 66.6717Z" fill="black"/>
<path d="M83.3967 78.163L82.8813 77.5446C82.7844 77.4317 82.662 77.3435 82.5242 77.2875C82.3863 77.2315 82.2371 77.2092 82.089 77.2225L80.6782 77.3256C80.3994 77.3458 80.1295 77.4328 79.8913 77.5791C79.6531 77.7254 79.4535 77.9267 79.3093 78.1662L79.1289 78.4658C79.9148 79.5512 81.5607 80.1471 81.5607 80.1471L82.0116 80.3693C82.1023 80.4183 82.2017 80.4488 82.3042 80.459C82.4066 80.4693 82.5101 80.4592 82.6087 80.4292C82.7072 80.3993 82.7988 80.3501 82.8782 80.2846C82.9576 80.219 83.0233 80.1383 83.0713 80.0472L83.5223 79.1583C83.6031 78.9988 83.6343 78.8188 83.6119 78.6414C83.5895 78.464 83.5146 78.2974 83.3967 78.163Z" fill="#EEC1BB"/>
<path d="M73.4791 63.3536C73.4398 65.3822 73.5854 67.4101 73.9139 69.4122C74.0346 70.0527 74.1906 70.686 74.381 71.3093L74.2393 71.0291C74.9833 72.1661 76.072 73.2194 77.0221 74.2501L78.6133 75.8928L80.2238 77.5451C80.3656 77.688 80.4495 77.8783 80.4594 78.0794C80.4692 78.2805 80.4042 78.4781 80.277 78.6342C80.1498 78.7902 79.9693 78.8936 79.7703 78.9245C79.5714 78.9553 79.368 78.9114 79.1995 78.8013C78.5328 78.3793 77.9111 77.9348 77.2669 77.4839C75.3022 76.0055 73.3213 74.6237 71.7913 72.6525C70.4579 69.6989 70.1326 66.4167 70.2453 63.2087C70.4353 61.0668 73.5403 61.2246 73.5145 63.3729L73.4791 63.3536Z" fill="#EBC0BB"/>
<path d="M72.5643 58.5469C70.4546 59.2716 69.5817 61.5262 69.4883 65.3398C70.5673 66.3415 74.1168 66.0098 74.1168 66.0098C74.1168 66.0098 74.7577 60.2314 72.5643 58.5469Z" fill="#FFC20D"/>
<path d="M95.2979 81.1229V82.1311C95.2979 82.392 94.9758 82.4983 94.7311 82.4983H74.4037C74.1428 82.4983 73.8271 82.392 73.8271 82.1311V81.1133L95.2979 81.1229Z" fill="#263238"/>
<path opacity="0.4" d="M95.2979 81.1229V82.1311C95.2979 82.392 94.9758 82.4983 94.7311 82.4983H74.4037C74.1428 82.4983 73.8271 82.392 73.8271 82.1311V81.1133L95.2979 81.1229Z" fill="white"/>
<path opacity="0.2" d="M95.2974 81.1229V82.1311C95.2974 82.392 94.9753 82.4983 94.7305 82.4983H81.325C81.0641 82.4983 80.7549 82.392 80.7549 82.1311V81.1133L95.2974 81.1229Z" fill="black"/>
<path d="M98.6995 70.5671L96.2773 81.5409C96.2344 81.7176 96.1338 81.8749 95.9915 81.9881C95.8492 82.1012 95.6732 82.1637 95.4914 82.1658H82.2855C82.2034 82.1633 82.123 82.142 82.0505 82.1035C81.9779 82.065 81.9153 82.0103 81.8673 81.9436C81.8193 81.877 81.7874 81.8001 81.7739 81.7191C81.7604 81.6381 81.7657 81.5551 81.7895 81.4765L84.2084 70.5833C84.2574 70.4174 84.3619 70.2734 84.5044 70.1755C84.6469 70.0776 84.8188 70.0316 84.9911 70.0453H98.2131C98.561 70.0453 98.7768 70.2161 98.6995 70.5671Z" fill="#263238"/>
<path opacity="0.4" d="M98.6992 70.5674L96.277 81.5411C96.2341 81.7178 96.1335 81.8752 95.9912 81.9883C95.8489 82.1015 95.6729 82.164 95.4911 82.166H82.7233C82.6409 82.1641 82.5601 82.1431 82.4872 82.1048C82.4143 82.0665 82.3512 82.0118 82.3028 81.9451C82.2545 81.8784 82.2222 81.8014 82.2086 81.7202C82.1949 81.6389 82.2002 81.5556 82.2241 81.4767L84.643 70.5835C84.6921 70.4171 84.797 70.2727 84.9402 70.1747C85.0834 70.0767 85.256 70.0311 85.4289 70.0456H98.1999C98.5607 70.0456 98.7765 70.2163 98.6992 70.5674Z" fill="white"/>
<path opacity="0.2" d="M92.1794 76.146C92.1794 77.0833 91.1713 77.8466 90.4337 77.8466C89.6961 77.8466 89.258 77.0833 89.4674 76.146C89.6768 75.2087 90.4144 74.4711 91.1358 74.4453C90.9265 75.3826 91.3774 76.146 92.1021 76.146H92.1794Z" fill="black"/>
</svg>
