<svg width="86" height="86" viewBox="0 0 86 86" fill="none" xmlns="http://www.w3.org/2000/svg">
<path d="M85.6266 42.9996C85.6266 19.5124 66.4873 0.373047 43.0001 0.373047C19.5129 0.373047 0.373535 19.5124 0.373535 42.9996C0.373535 55.3613 5.70185 66.4868 14.1419 74.2875C14.1419 74.3301 14.1419 74.3301 14.0993 74.3727C14.5255 74.799 15.0371 75.14 15.4633 75.5237C15.7191 75.7368 15.9322 75.9499 16.188 76.1204C16.9553 76.7598 17.8078 77.3566 18.6177 77.9534C18.9161 78.1665 19.1718 78.337 19.4702 78.5501C20.2801 79.1043 21.1327 79.6158 22.0278 80.0847C22.3262 80.2552 22.6672 80.4683 22.9656 80.6388C23.8181 81.1077 24.7133 81.534 25.6511 81.9176C25.9921 82.0881 26.3331 82.2587 26.6741 82.3865C27.6119 82.7702 28.5497 83.1112 29.4875 83.4096C29.8285 83.5375 30.1695 83.6653 30.5105 83.7506C31.5335 84.049 32.5566 84.3047 33.5796 84.5605C33.878 84.6457 34.1764 84.731 34.5174 84.7736C35.7109 85.0294 36.9045 85.1999 38.1407 85.3278C38.3112 85.3278 38.4817 85.3704 38.6522 85.413C40.1015 85.5409 41.5508 85.6262 43.0001 85.6262C44.4494 85.6262 45.8987 85.5409 47.3054 85.413C47.4759 85.413 47.6464 85.3704 47.8169 85.3278C49.0531 85.1999 50.2466 85.0294 51.4401 84.7736C51.7385 84.731 52.0369 84.6031 52.3779 84.5605C53.401 84.3047 54.4666 84.0916 55.447 83.7506C55.7881 83.6227 56.1291 83.4948 56.4701 83.4096C57.4079 83.0686 58.3883 82.7702 59.2834 82.3865C59.6244 82.2587 59.9655 82.0881 60.3065 81.9176C61.2016 81.534 62.0968 81.1077 62.9919 80.6388C63.333 80.4683 63.6313 80.2552 63.9297 80.0847C64.7823 79.5732 65.6348 79.1043 66.4873 78.5501C66.7857 78.3796 67.0415 78.1665 67.3398 77.9534C68.1924 77.3566 69.0023 76.7598 69.7696 76.1204C70.0253 75.9073 70.2385 75.6942 70.4942 75.5237C70.9631 75.14 71.432 74.7564 71.8583 74.3727C71.8583 74.3301 71.8583 74.3301 71.8156 74.2875C80.2983 66.4868 85.6266 55.3613 85.6266 42.9996ZM64.0576 64.185C52.5058 56.427 33.5796 56.427 21.9426 64.185C20.067 65.4212 18.5324 66.8705 17.2537 68.4476C10.7744 61.8832 6.76752 52.889 6.76752 42.9996C6.76752 23.0077 23.0082 6.76703 43.0001 6.76703C62.9919 6.76703 79.2327 23.0077 79.2327 42.9996C79.2327 52.889 75.2258 61.8832 68.7465 68.4476C67.5104 66.8705 65.9332 65.4212 64.0576 64.185Z" fill="#656567"/>
</svg>
